<svg width="163" height="248" viewBox="0 0 163 248" fill="none" xmlns="http://www.w3.org/2000/svg">
<g clip-path="url(#clip0_186_42)">
<path d="M30.7754 49.7368C30.2144 50.2211 29.6969 50.7086 29.223 51.1993C28.7491 51.69 28.3166 52.2129 27.9255 52.7681C27.8043 52.9869 27.7168 53.1848 27.6629 53.3619C27.6091 53.5389 27.5216 53.7369 27.4004 53.9557C27.0674 54.5151 26.636 54.9038 26.1062 55.1219C25.8399 55.0906 25.6579 55.0247 25.5602 54.9241C25.5546 54.3632 25.6235 53.8632 25.7666 53.4241C25.9098 52.9851 26.0565 52.5375 26.2067 52.0814C26.5525 51.5871 26.8663 51.0497 27.1484 50.469L27.5607 49.6234C27.6295 49.4825 27.7032 49.3536 27.7818 49.2368C27.8675 49.1029 27.9582 48.9811 28.0539 48.8714C28.3216 48.5641 28.5738 48.2702 28.8105 47.9898C29.0471 47.7094 29.2702 47.4134 29.4799 47.1018C29.7747 46.5863 30.1385 46.0846 30.5713 45.5967C31.0042 45.1088 31.4239 44.6404 31.8305 44.1915C32.0459 43.9621 32.2602 43.7472 32.4734 43.5468C32.6866 43.3464 32.9158 43.1676 33.1609 43.0104C33.2785 42.9198 33.3985 42.8352 33.5211 42.7566C33.6507 42.661 33.7828 42.5715 33.9174 42.4879C34.1745 42.3258 34.4217 42.1396 34.6591 41.9293C34.8418 41.8259 35.0161 41.719 35.1818 41.6086C35.3546 41.4811 35.513 41.3526 35.6568 41.223C35.9203 40.9738 36.2798 40.7696 36.7352 40.6103C36.8075 40.5806 36.8847 40.5629 36.9668 40.5572C36.9958 40.5594 37.0309 40.559 37.072 40.5562C37.1131 40.5534 37.1602 40.5481 37.2133 40.5403C37.5264 40.4115 37.759 40.3439 37.9113 40.3375C38.0636 40.3312 38.2098 40.3273 38.3501 40.326C38.5724 40.3189 38.8313 40.3321 39.1266 40.3654L39.8819 40.4559C40.0151 40.4715 40.1412 40.5041 40.2601 40.5537C40.3281 40.5821 40.4421 40.6196 40.6022 40.6664C40.8564 40.7026 41.02 40.7409 41.093 40.7813L41.3734 40.8982C41.5604 40.9761 41.7119 41.0194 41.8281 41.0279C41.9563 41.0315 42.0455 41.1285 42.0957 41.3191C42.1984 41.4317 42.301 41.5443 42.4037 41.657C42.5014 41.7575 42.6016 41.8642 42.7043 41.9768C42.9096 42.2021 43.0693 42.4532 43.1832 42.7301C43.2328 42.8505 43.2643 42.9784 43.2777 43.1136C43.2911 43.2489 43.2985 43.3867 43.2999 43.5269C43.3105 43.6211 43.3272 43.7128 43.3498 43.8021C43.3675 43.8793 43.3852 43.9565 43.4029 44.0337C43.4382 44.1881 43.4506 44.3379 43.4399 44.4831L43.6862 45.5434C43.7718 45.8883 43.8588 46.2538 43.9473 46.6398C43.9925 46.8183 44.035 46.9557 44.0747 47.052C44.1143 47.1483 44.1568 47.2857 44.202 47.4642C44.2424 47.6307 44.2707 47.8021 44.2869 47.9784C44.3102 48.1378 44.3191 48.2961 44.3134 48.4533C44.297 48.7557 44.3483 49.0514 44.4672 49.3404C44.5308 49.9056 44.5403 50.3734 44.4956 50.7438C44.4509 51.1142 44.3966 51.4956 44.3328 51.8879C44.2264 52.3822 44.1778 52.8458 44.1869 53.2785C44.1988 53.7523 44.1892 54.2421 44.1579 54.7478C44.1416 54.8108 44.1462 54.9075 44.1716 55.0378C44.1971 55.1681 44.2017 55.2648 44.1854 55.3278C44.0706 55.6989 44.0245 55.9291 44.0471 56.0183C44.0698 56.1076 44.0782 56.2308 44.0725 56.388C44.0697 56.5863 44.0682 56.8052 44.0681 57.0446C44.0681 57.2839 44.0716 57.5148 44.0786 57.7372C44.0531 57.8463 44.0353 58.0085 44.0254 58.2238C44.0126 58.398 43.9817 58.5796 43.9328 58.7687C43.9144 58.8608 43.8924 58.9614 43.8669 59.0704C43.8364 59.1674 43.8084 59.2705 43.7829 59.3796C43.5078 60.9008 43.1108 62.3313 42.5921 63.6712C42.2236 64.555 41.8194 65.3691 41.3794 66.1133C40.9181 66.9086 40.4799 67.7084 40.0647 68.5129L39.5875 69.4062C39.4571 69.6711 39.274 69.9788 39.038 70.3293C38.9977 70.4022 38.9512 70.4776 38.8988 70.5555C38.8535 70.6164 38.8081 70.6773 38.7628 70.7382C38.653 70.882 38.5662 71.0303 38.5024 71.1833C38.2849 71.6811 37.9321 72.1924 37.444 72.7171C37.1847 72.9083 37.0264 73.0368 36.969 73.1026C36.9116 73.1685 36.8588 73.2113 36.8107 73.2312C36.698 73.3338 36.5635 73.4174 36.4069 73.4818C36.3106 73.5214 36.1711 73.5929 35.9883 73.6963C35.9401 73.7161 35.8728 73.7579 35.7864 73.8216C35.7 73.8853 35.6207 73.932 35.5484 73.9618C35.3629 74.0241 35.1444 74.0576 34.8929 74.0625C34.7817 74.0661 34.6645 74.0721 34.5413 74.0805C34.435 74.0961 34.3288 74.1116 34.2226 74.1272C34.1694 74.135 34.1163 74.1428 34.0632 74.1505C34.0221 74.1534 33.981 74.1562 33.94 74.159C33.8989 74.1618 33.8518 74.1671 33.7987 74.1749C33.7576 74.1777 33.7105 74.183 33.6574 74.1908L33.0837 74.1312C32.9966 74.1248 32.907 74.1124 32.8149 74.0939C32.7278 74.0875 32.6382 74.0751 32.5462 74.0567C32.1623 74.1161 31.8911 74.0728 31.7324 73.9269C31.5689 73.7689 31.4081 73.652 31.2502 73.5762C31.0838 73.3772 30.9284 73.1877 30.784 73.0078C30.6516 72.8229 30.5241 72.65 30.4016 72.4892C30.2791 72.3284 30.1517 72.1556 30.0193 71.9707C29.8869 71.7858 29.7435 71.5914 29.5892 71.3874C29.4716 71.2386 29.3676 71.1055 29.2769 70.9879C29.1863 70.8703 29.1183 70.7222 29.0731 70.5438C29.0455 70.4425 29.0391 70.2902 29.054 70.0869L29.0924 69.5643C29.1392 69.1648 29.1485 68.7597 29.1203 68.3489C29.0921 67.9381 29.1014 67.533 29.1482 67.1336C29.1765 67.0656 29.1939 66.9881 29.2003 66.9009C29.2067 66.8138 29.2241 66.7363 29.2524 66.6683C29.2652 66.4941 29.272 66.3223 29.2727 66.1531C29.2735 65.9838 29.2731 65.829 29.2718 65.6888C29.2959 65.2001 29.3286 64.715 29.3698 64.2334C29.411 63.7518 29.4727 63.2688 29.555 62.7844C29.6316 62.2178 29.6983 61.7468 29.755 61.3715C29.8118 60.9961 29.9181 60.6215 30.074 60.2476C30.055 59.7908 30.0845 59.3492 30.1625 58.9228C30.2405 58.4965 30.27 58.0549 30.251 57.5981C30.3183 57.3169 30.3506 57.0361 30.3478 56.7557C30.3394 56.393 30.3497 56.0931 30.3788 55.8559C30.3825 55.2489 30.4067 54.7602 30.4514 54.3898C30.4698 54.2978 30.4883 54.2057 30.5067 54.1136C30.5251 54.0215 30.5266 53.9224 30.511 53.8162C30.4821 53.3353 30.4893 52.8395 30.5326 52.3289C30.566 51.7941 30.6015 51.3501 30.6392 50.9967L30.7754 49.7368ZM37.5037 43.5044C37.1765 43.6672 36.8846 43.8647 36.6282 44.0969C36.3717 44.3292 36.1118 44.5699 35.8482 44.8192C35.6612 44.9806 35.4912 45.1491 35.3382 45.3247C35.1852 45.5004 35.0322 45.676 34.8791 45.8516C34.7119 46.0612 34.5628 46.2633 34.4317 46.4581C34.3007 46.6528 34.1685 46.8621 34.0353 47.0858C34.053 47.163 34.0502 47.2417 34.0268 47.3217C34.0034 47.4017 34.0005 47.4803 34.0182 47.5575C33.8553 47.9484 33.778 48.3252 33.7864 48.6878C33.7906 48.8691 33.7828 49.0554 33.7629 49.2466C33.7551 49.4329 33.7387 49.6156 33.7139 49.7948C33.682 49.991 33.6561 50.1847 33.6362 50.3759C33.6114 50.5551 33.589 50.7403 33.5692 50.9315L33.4605 52.0533C33.4491 52.3678 33.4193 52.6546 33.3711 52.9138C33.3208 53.202 33.298 53.4719 33.3029 53.7233C33.1888 54.4039 33.1476 54.8855 33.1794 55.1681C33.1715 55.3543 33.1481 55.5541 33.1091 55.7672C33.0652 55.9684 33.0587 56.1752 33.0899 56.3877C33.0884 56.4868 33.087 56.586 33.0855 56.6851C33.0791 56.7722 33.0692 56.8678 33.0557 56.9719C33.0423 57.0761 33.0348 57.1777 33.0334 57.2768C33.039 57.359 33.0471 57.4472 33.0577 57.5414C33.0563 57.6405 33.0807 57.7854 33.1309 57.9759C33.1812 58.1664 33.2056 58.3113 33.2041 58.4104C33.2126 58.5336 33.2211 58.6569 33.2295 58.7801C33.238 58.9034 33.2405 59.0291 33.2369 59.1573C33.2439 59.3796 33.2648 59.6527 33.2994 59.9764C33.2653 60.2016 33.2083 60.4222 33.1282 60.6382C33.0531 60.8662 33.0031 61.0698 32.9783 61.249C33.003 61.5486 32.9895 61.7724 32.9378 61.9204C32.9002 62.0344 32.881 62.1761 32.8803 62.3453C32.8321 62.6045 32.8079 62.8538 32.8079 63.0932C32.8128 63.3446 32.7936 63.606 32.7503 63.8772L32.677 64.1608C32.6607 64.2239 32.6412 64.3305 32.6185 64.4806C32.6078 64.6258 32.6095 64.8011 32.6237 65.0065L32.6586 65.6046C32.6571 65.7037 32.6557 65.8029 32.6543 65.902C32.6479 65.9892 32.6355 66.0788 32.617 66.1708C32.5986 66.2629 32.5862 66.3525 32.5798 66.4396C32.5854 66.5217 32.5911 66.6039 32.5967 66.6861C32.5499 67.0855 32.5392 67.4701 32.5646 67.8398C32.5631 67.9389 32.5617 68.0381 32.5603 68.1372C32.5709 68.2314 32.5815 68.3256 32.5921 68.4198C32.6027 68.514 32.6073 68.6107 32.6058 68.7099C32.6164 68.8041 32.621 68.9007 32.6196 68.9999C32.5961 69.3193 32.5915 69.5817 32.6056 69.7871C32.6162 69.8813 32.6243 69.9695 32.6299 70.0516C32.6356 70.1338 32.6412 70.2159 32.6469 70.2981L32.6701 70.8165C32.6843 71.0219 32.7161 71.1848 32.7656 71.3052C32.6374 71.5411 32.6565 71.7585 32.8229 71.9575C32.9843 72.1446 33.0154 72.357 32.9162 72.595C33.2888 72.3713 33.5562 72.1486 33.7184 71.9269C33.8878 71.6883 34.1311 71.4755 34.4484 71.2886C34.6539 71.0351 34.8027 70.7979 34.8948 70.5769C35.0082 70.305 35.2249 70.0961 35.5451 69.9503C35.6882 69.7506 35.8168 69.5498 35.9309 69.348C36.0449 69.1462 36.153 68.9469 36.255 68.75C36.4612 68.3272 36.7488 67.9484 37.1179 67.6135C37.2341 67.3826 37.3528 67.1578 37.474 66.9389C37.6022 66.7031 37.7354 66.4794 37.8736 66.2676C38.1449 65.8321 38.3408 65.3502 38.4614 64.8219C38.5499 64.7291 38.6739 64.5514 38.8333 64.2887C38.9084 64.0606 38.9775 63.8351 39.0406 63.612C39.1037 63.3889 39.1558 63.1563 39.197 62.9141C39.3677 62.5763 39.4832 62.2753 39.5435 62.0111C39.62 61.6839 39.7526 61.39 39.941 61.1295C39.9361 60.878 39.9868 60.6248 40.0931 60.3699C40.1427 60.2509 40.1863 60.1344 40.2238 60.0204C40.2734 59.9014 40.3146 59.7789 40.3472 59.6529C40.3939 59.4928 40.4347 59.3352 40.4694 59.1801C40.4992 59.013 40.529 58.8459 40.5588 58.6787C40.6205 58.3154 40.696 58.0027 40.7853 57.7407C40.825 57.3583 40.8673 56.9819 40.912 56.6115C40.9687 56.2361 41.034 55.8643 41.1077 55.496C41.246 54.8055 41.3024 54.036 41.2771 53.1876C41.3891 52.7754 41.4636 52.3575 41.5005 51.934C41.5374 51.5105 41.5467 51.1054 41.5284 50.7187C41.6347 50.4637 41.6574 50.1939 41.5966 49.9092C41.5357 49.6245 41.6194 49.4 41.8475 49.2357C41.9191 48.8965 41.8827 48.5172 41.7383 48.0979C41.671 47.9003 41.6063 47.7087 41.544 47.5231C41.4768 47.3255 41.418 47.1314 41.3678 46.9409C41.3374 46.7985 41.2928 46.6902 41.234 46.6158C41.1604 46.5053 41.1087 46.4139 41.079 46.3417C41.0514 46.2404 41.0238 46.1391 40.9962 46.0378C40.9756 45.9195 40.9516 45.8097 40.924 45.7085C40.8709 45.4769 40.7931 45.3047 40.6904 45.1921C40.5296 45.0752 40.4114 44.976 40.3356 44.8946L40.2146 44.7543C40.1119 44.6417 40.0333 44.5191 39.9788 44.3867C39.9151 44.3002 39.8648 44.2294 39.828 44.1742C39.7862 44.1069 39.7494 44.0516 39.7175 44.0084C39.6708 43.9291 39.5866 43.8441 39.4648 43.7534C39.2799 43.6464 39.1252 43.527 39.0006 43.3953C38.8979 43.2826 38.7531 43.1873 38.5661 43.1094C38.4649 43.137 38.3721 43.1681 38.2878 43.2028C38.1985 43.2255 38.1118 43.2541 38.0275 43.2888L37.5037 43.5044ZM46.9362 58.4199C47.058 58.2712 47.1764 58.0113 47.2912 57.6402C47.4011 57.2571 47.5099 56.8885 47.6176 56.5344C47.7204 56.1682 47.8185 55.9448 47.912 55.8641C47.9347 55.7139 47.9588 55.5843 47.9844 55.4753C48.0099 55.3662 48.068 55.2508 48.1587 55.129C48.2076 54.7005 48.3391 54.3014 48.5531 53.9318C48.7741 53.5451 48.9637 53.1503 49.1217 52.7474C49.3108 52.5569 49.495 52.3544 49.6743 52.1398C49.8655 51.9203 50.0434 51.6852 50.2077 51.4346C50.5485 50.9282 51.0054 50.5501 51.5784 50.3003C51.8929 50.3117 52.1666 50.2413 52.3997 50.089C52.6207 49.9418 52.8803 49.9054 53.1784 49.9798C53.405 50.1541 53.5704 50.248 53.6745 50.2614C53.7786 50.2749 53.8781 50.3114 53.973 50.3709C54.1932 50.6323 54.3472 50.8013 54.435 50.8778C54.5348 50.9493 54.6131 51.0368 54.6697 51.1402C54.7561 51.3159 54.8325 51.4675 54.8991 51.595C54.9607 51.7104 55.0148 51.8078 55.0615 51.8872C55.138 52.0387 55.1999 52.1893 55.2474 52.3387C55.4278 52.9825 55.5601 53.6462 55.6442 54.3297C55.6499 54.4118 55.6555 54.494 55.6612 54.5761C55.6668 54.6583 55.6749 54.7465 55.6855 54.8407C55.7018 55.017 55.6986 55.1803 55.6759 55.3304C55.5894 55.6335 55.5398 55.8722 55.527 56.0464C55.4979 56.2837 55.4716 56.4423 55.4483 56.5223C55.3632 56.7263 55.2793 56.9157 55.1963 57.0906C55.1255 57.2606 55.0557 57.416 54.987 57.557C54.9034 57.6618 54.8222 57.7726 54.7436 57.8894C54.66 57.9942 54.5789 58.105 54.5002 58.2219C54.3501 58.4386 54.1489 58.634 53.8967 58.8082L53.6533 59.1406C53.5747 59.2575 53.4716 59.3492 53.3441 59.4157C53.1918 59.6614 53.003 59.887 52.7777 60.0923C52.6771 60.19 52.5705 60.2902 52.4579 60.3929C52.3573 60.4906 52.2532 60.5968 52.1455 60.7115C51.9946 60.8581 51.8728 61.0068 51.7799 61.1576C51.6871 61.3085 51.5582 61.4742 51.3931 61.6547C51.2996 61.7354 51.1424 61.8494 50.9214 61.9967C50.7074 62.127 50.5622 62.236 50.4857 62.3238C50.7052 62.5151 50.8773 62.7963 51.0018 63.1674C51.1285 63.5096 51.3126 63.7858 51.5541 63.9962C51.8969 63.9396 52.2623 63.8526 52.6505 63.7351C53.0386 63.6176 53.3914 63.4654 53.7087 63.2785C53.764 63.2417 53.8167 63.1989 53.867 63.15C53.9294 63.0962 53.9917 63.0424 54.054 62.9886C54.1164 62.9348 54.1787 62.881 54.241 62.8272C54.3034 62.7733 54.3682 62.7256 54.4355 62.6838C54.6806 62.5266 54.9147 62.3599 55.1378 62.1836C55.361 62.0073 55.5441 61.8193 55.6872 61.6196C56.2865 61.0914 56.827 60.4888 57.3088 59.8118C57.7905 59.1348 58.1731 58.4564 58.4566 57.7766C58.6663 57.465 58.8764 57.0688 59.0868 56.588C59.2973 56.1071 59.4394 55.6825 59.5131 55.3143C59.7158 54.7803 59.911 54.348 60.0988 54.0173C60.2865 53.6866 60.5058 53.4837 60.7565 53.4087C60.9492 53.3294 61.1829 53.367 61.4576 53.5215C61.7324 53.6759 61.8159 53.9302 61.7082 54.2843C61.5389 54.5229 61.3752 54.8437 61.2172 55.2467C61.0712 55.6447 60.8785 55.9633 60.639 56.2027C60.4888 56.4194 60.3269 56.7957 60.1533 57.3318C59.9818 57.8389 59.8297 58.2394 59.6972 58.5333C59.6689 58.6013 59.637 58.6777 59.6016 58.7627C59.5661 58.8477 59.5187 58.9376 59.4592 59.0325C59.3522 59.2174 59.2778 59.3958 59.2359 59.5679C58.9915 60.0346 58.7393 60.4481 58.4793 60.8086C58.327 60.8149 58.2285 60.8836 58.1839 61.0146C58.13 61.1917 58.0733 61.3276 58.0138 61.4225C57.9876 61.4615 57.9614 61.5004 57.9352 61.5394C57.909 61.5783 57.8767 61.6197 57.8385 61.6636C57.8002 61.7075 57.768 61.749 57.7418 61.7879C57.7155 61.8268 57.6893 61.8658 57.6631 61.9047C57.5398 62.1526 57.3985 62.4079 57.2391 62.6706C57.0797 62.9333 56.9043 63.1744 56.713 63.394C56.5317 63.6375 56.3453 63.8691 56.1541 64.0886C55.9678 64.3202 55.774 64.5337 55.5728 64.7291C55.3716 64.9245 55.1779 65.138 54.9916 65.3696C54.8173 65.5962 54.648 65.8348 54.4836 66.0855L54.1085 66.3032C54.0533 66.34 53.9955 66.3708 53.9353 66.3956C53.8801 66.4324 53.8248 66.4692 53.7696 66.506C53.657 66.6087 53.5404 66.6848 53.42 66.7343C53.2996 66.7839 53.1392 66.8217 52.9387 66.8479C52.0548 66.9582 51.2461 66.8404 50.5124 66.4946C50.4104 66.4521 50.3049 66.4181 50.1958 66.3926C50.0939 66.3501 49.9883 66.316 49.8793 66.2905C49.6272 66.2253 49.4402 66.1474 49.3184 66.0567C49.1357 65.9207 48.9109 65.6823 48.644 65.3416C48.365 65.0058 48.1016 64.6566 47.8538 64.2939C47.6011 63.9192 47.4301 63.6234 47.3409 63.4067C47.3537 63.2325 47.3304 62.9534 47.271 62.5696C47.2066 62.1736 47.1327 61.7887 47.0492 61.4147C46.9607 61.0287 46.8868 60.7635 46.8273 60.619C46.8557 60.551 46.8876 60.3548 46.9231 60.0304C46.9416 59.699 46.954 59.37 46.9605 59.0435C46.974 58.7 46.9659 58.4921 46.9362 58.4199ZM51.8007 53.7147C51.7214 54.0009 51.637 54.2749 51.5477 54.537C51.4584 54.799 51.3401 55.0589 51.1927 55.3166C51.1572 55.641 51.0878 55.9512 50.9843 56.2472C50.8808 56.5432 50.7724 56.8272 50.659 57.0992C50.642 57.3315 50.5955 57.5266 50.5197 57.6845C50.4439 57.8424 50.3585 58.0113 50.2636 58.1912C50.216 58.5205 50.1274 58.8526 49.9977 59.1876C49.8681 59.5226 49.9339 59.8193 50.1951 60.0779C50.4799 60.0171 50.7299 59.8719 50.9453 59.6425C51.1606 59.4131 51.3448 59.2106 51.4978 59.035C51.5694 58.9351 51.6434 58.8413 51.7199 58.7535C51.8085 58.6607 51.891 58.5705 51.9675 58.4827C52.044 58.3948 52.1205 58.307 52.1971 58.2192C52.2736 58.1314 52.3416 58.0401 52.4011 57.9452L52.9538 56.6195C53.0438 56.4276 53.1239 56.2116 53.1941 55.9715C53.2196 55.8624 53.2451 55.7534 53.2706 55.6443C53.3032 55.5183 53.3358 55.3922 53.3684 55.2661C53.3196 54.9765 53.3144 54.69 53.3527 54.4067C53.3981 54.1064 53.3567 53.8348 53.2286 53.5918C53.172 53.4884 53.0778 53.3793 52.9461 53.2646C52.8144 53.1498 52.7252 53.0527 52.6784 52.9734C52.4256 53.0775 52.2563 53.1964 52.1705 53.3303C52.1302 53.4032 52.0752 53.4751 52.0058 53.5459C51.9435 53.5997 51.8751 53.656 51.8007 53.7147ZM63.2422 54.6246L63.5332 54.716C63.6331 54.7876 63.6695 54.9275 63.6426 55.1357C63.6291 55.2398 63.6191 55.3354 63.6127 55.4225C63.6184 55.5047 63.6216 55.5808 63.6223 55.6509C63.6541 55.6941 63.686 55.7373 63.7178 55.7805C63.7447 55.8117 63.7692 55.8369 63.7911 55.856C63.8449 55.9183 63.8651 56.0016 63.8516 56.1057C64.0747 56.1687 64.2401 56.2626 64.3477 56.3873C64.4872 56.5552 64.6383 56.6831 64.8012 56.7709C65.0101 56.868 65.1861 56.9364 65.3292 56.9761C65.4963 57.0059 65.6673 57.0622 65.8422 57.1451C65.945 57.0183 66.0264 56.9426 66.0866 56.9178C66.1709 56.8831 66.2573 56.8194 66.3459 56.7266C66.4416 56.3775 66.4714 55.971 66.4354 55.5071C66.4199 55.4008 66.3993 55.2826 66.3739 55.1522C66.3484 55.0219 66.3159 54.9086 66.2762 54.8123C66.1353 54.5041 65.9052 54.2187 65.5859 53.9558C65.2616 53.681 64.9953 53.4104 64.7872 53.144C64.6066 52.979 64.4873 52.7746 64.4293 52.5309C64.3614 52.2632 64.2661 52.049 64.1437 51.8882C64.0821 51.7727 64.0063 51.6912 63.9164 51.6438C63.8774 51.6175 63.8385 51.5913 63.7995 51.5651C63.7556 51.5269 63.7117 51.4886 63.6678 51.4504C63.5354 51.2655 63.4282 51.0562 63.3461 50.8224C63.2711 50.5717 63.1326 50.3893 62.9308 50.2752C62.8458 50.4792 62.731 50.8503 62.5864 51.3885C62.4368 51.9147 62.2872 52.4409 62.1377 52.9671C62.0002 53.4883 61.8924 53.8424 61.8145 54.0293C61.789 54.1384 61.7574 54.25 61.7199 54.364C61.6894 54.461 61.6504 54.5545 61.6029 54.6444C61.5555 54.7343 61.5129 54.8363 61.4754 54.9503C61.4449 55.0474 61.4169 55.1504 61.3914 55.2595C61.2043 55.8997 61.0614 56.3738 60.9629 56.6819C60.8765 56.985 60.7925 57.2941 60.7109 57.6092C60.6294 57.9244 60.499 58.4286 60.3197 59.122C60.2665 59.3691 60.1725 59.7739 60.0378 60.3362C59.8911 60.9034 59.7575 61.4512 59.637 61.9796C59.4995 62.5008 59.4278 62.84 59.4221 62.9972C59.3767 63.2975 59.2768 63.5851 59.1224 63.8598C58.9679 64.1346 58.7341 64.3364 58.4211 64.4652C58.4161 64.4532 58.3524 64.3667 58.2299 64.2059C58.1124 64.0572 57.9959 63.8939 57.8805 63.7161C57.758 63.5553 57.6883 63.4714 57.6713 63.4643C57.6841 63.2901 57.6788 63.1233 57.6554 62.9639C57.6371 62.8166 57.6849 62.642 57.799 62.4402C57.7827 62.2638 57.8147 61.948 57.8948 61.4926C57.97 61.0252 58.0714 60.5188 58.199 59.9735C58.3216 59.4161 58.4411 58.9023 58.5574 58.4321C58.6616 57.9668 58.7286 57.6506 58.7584 57.4834C58.8505 57.2625 58.9678 56.8974 59.1102 56.3882C59.2407 55.884 59.3711 55.3798 59.5015 54.8755C59.639 54.3543 59.7393 53.9821 59.8024 53.7591C59.777 53.3893 59.8338 52.8943 59.9727 52.2739C60.1188 51.6365 60.2804 50.9857 60.4576 50.3214C60.6419 49.6401 60.7837 49.0608 60.883 48.5835C60.9241 48.3413 60.9571 48.1306 60.9819 47.9514C61.0067 47.7722 61.0326 47.5785 61.0596 47.3703C61.1163 47.2343 61.156 47.0913 61.1787 46.9411C61.1525 46.7407 61.0714 46.6121 60.9355 46.5554C60.8116 46.4938 60.7234 46.3822 60.671 46.2207C60.7193 45.7222 60.8235 45.3766 60.9836 45.1839C61.1508 44.9743 61.2798 44.689 61.3705 44.3278C61.4753 44.172 61.56 44.0527 61.6245 43.9698C61.7201 43.8601 61.7998 43.7287 61.8636 43.5757C61.9628 43.3378 62.1923 43.1941 62.5521 43.1446C62.919 43.0781 63.1598 43.0987 63.2745 43.2064C63.3163 43.2736 63.3559 43.37 63.3934 43.4953C63.4061 43.5605 63.4189 43.6257 63.4316 43.6908C63.4443 43.756 63.4571 43.8211 63.4698 43.8863C63.4903 44.0046 63.5084 44.1168 63.5239 44.2231C63.5395 44.3293 63.555 44.4356 63.5706 44.5418C63.5812 44.636 63.5967 44.7422 63.6173 44.8605C63.6328 44.9668 63.6509 45.079 63.6714 45.1973C63.7322 45.482 63.7941 45.7522 63.8571 46.0079C63.9201 46.2636 64.0925 46.4602 64.3743 46.5977C64.3998 46.728 64.4653 46.87 64.5708 47.0237C64.6763 47.1774 64.7828 47.3166 64.8904 47.4413C65.2557 48.1921 65.7088 48.8997 66.2498 49.5642C66.7907 50.2286 67.3225 50.8194 67.845 51.3366C67.8946 51.457 67.9622 51.57 68.0479 51.6755C68.1336 51.7811 68.2252 51.8841 68.323 51.9847C68.7123 52.7256 68.9547 53.52 69.0501 54.3678C69.0954 54.7856 69.1406 55.2035 69.1858 55.6214C69.2431 56.0343 69.2979 56.4412 69.3502 56.8421C69.3048 57.1423 69.2984 57.4688 69.3309 57.8215C69.3606 58.1332 69.3343 58.4115 69.2521 58.6565C69.2109 58.8988 69.1918 59.1601 69.1945 59.4406C69.1973 59.721 69.0839 59.993 68.8544 60.2564C68.7177 60.3689 68.5551 60.4358 68.3667 60.457C68.1904 60.4733 68.0399 60.5352 67.9152 60.6429C67.8118 60.6995 67.7158 60.7742 67.6272 60.8669C67.5578 60.9378 67.4689 60.9955 67.3605 61.0401C67.0722 61.2291 66.801 61.3055 66.5467 61.2693C66.3265 61.2473 66.0474 61.2706 65.7096 61.3393C65.6798 61.267 65.6214 61.2277 65.5343 61.2213C65.4472 61.2149 65.3696 61.1975 65.3017 61.1692C65.0687 60.8426 64.8584 60.6053 64.6708 60.4573C64.5171 60.3234 64.3705 60.1725 64.2311 60.0046C64.0448 59.7574 63.9022 59.5134 63.8031 59.2725C63.6941 59.0076 63.5273 58.7735 63.3029 58.5702C63.1174 58.3931 63.0207 58.278 63.0129 58.2249C63.0052 58.1718 62.9814 58.097 62.9418 58.0007C62.813 57.6876 62.6537 57.3519 62.464 56.9935C62.2693 56.623 62.2935 56.254 62.5365 55.8865C62.6293 55.7357 62.6676 55.5721 62.6513 55.3957C62.645 55.2435 62.6903 55.0629 62.7874 54.854C62.8158 54.786 62.8841 54.7297 62.9925 54.6851C63.0768 54.6504 63.16 54.6302 63.2422 54.6246ZM73.6958 35.581L74.1017 35.5407C74.1746 35.5811 74.2284 35.6434 74.2631 35.7277C74.2879 35.7879 74.3488 35.8333 74.4458 35.8637C74.4868 36.1003 74.5364 36.3404 74.5944 36.584C74.6524 36.8277 74.726 37.0579 74.8152 37.2746C74.8499 37.3589 74.9147 37.4308 75.0096 37.4903C75.1044 37.5498 75.1643 37.6097 75.1891 37.6699C75.1826 37.9964 75.1617 38.2021 75.1262 38.2871C75.0908 38.3721 75.0855 38.4447 75.1102 38.5049C75.0097 38.6026 74.9491 38.712 74.9285 38.8331C74.9079 38.9542 74.8254 39.0445 74.6809 39.104C74.6625 39.196 74.6306 39.2725 74.5853 39.3334C74.5328 39.4113 74.5179 39.4949 74.5406 39.5841C74.2126 39.9162 73.7741 40.0826 73.2253 40.0831C72.9987 39.9089 72.7657 39.8217 72.5263 39.8216C72.0249 39.4929 71.7899 38.956 71.8212 38.2109C71.8199 38.0707 71.822 37.922 71.8277 37.7648C71.8334 37.6075 71.8504 37.4949 71.8788 37.4269C72.0573 37.1423 72.2004 36.9426 72.3081 36.8279C72.3464 36.784 72.3846 36.7401 72.4229 36.6962C72.4682 36.6353 72.5075 36.5768 72.5408 36.5209C72.6004 36.426 72.702 36.3138 72.8458 36.1842C72.9082 36.1304 72.9694 36.0911 73.0296 36.0663C73.126 36.0267 73.2064 35.9654 73.2708 35.8826C73.314 35.8507 73.3512 35.8213 73.3824 35.7944C73.4256 35.7626 73.4628 35.7332 73.494 35.7063C73.5804 35.6426 73.6477 35.6008 73.6958 35.581ZM74.8624 53.8135L75.0728 53.8114C75.2499 53.6259 75.4999 53.4807 75.8229 53.376C76.1579 53.2663 76.391 53.1141 76.522 52.9193C76.6028 52.7734 76.6574 52.6665 76.6857 52.5985C76.7282 52.4966 76.8026 52.4378 76.9089 52.4222C77.2347 52.1192 77.5004 51.8409 77.7058 51.5874C77.9233 51.3289 78.1677 51.1016 78.439 50.9055C78.6019 50.754 78.7259 50.5763 78.8109 50.3723C79.2402 50.0126 79.564 49.6189 79.7822 49.1912C80.0125 48.7585 80.2654 48.2954 80.5411 47.8018C80.7989 47.4704 81.0125 47.1854 81.1818 46.9467C81.3512 46.7081 81.5237 46.4259 81.6994 46.1001C81.7051 45.9429 81.7342 45.8254 81.7866 45.7475C81.8319 45.6866 81.866 45.581 81.8887 45.4309C82.3221 45.2525 82.6323 45.322 82.8192 45.6393C82.8078 45.9538 82.7345 46.2374 82.5991 46.4902C82.4567 46.76 82.3494 47.0295 82.2771 47.2986C82.134 47.4983 82.022 47.6711 81.9412 47.817C81.8605 47.9629 81.7995 48.1569 81.7584 48.3991C81.7463 48.4041 81.6964 48.488 81.6085 48.6509C81.5327 48.8088 81.4828 48.8927 81.4587 48.9026C81.3602 49.2107 81.2727 49.4086 81.1961 49.4964C81.1196 49.5842 81.0031 49.78 80.8465 50.0838C80.799 50.4131 80.6714 50.7191 80.4638 51.0016C80.1492 51.7083 79.7723 52.3492 79.333 52.9242C79.1014 53.2167 78.8903 53.5077 78.6997 53.7973C78.5041 54.0749 78.3207 54.3475 78.1492 54.6152C78.0585 54.737 78.0015 54.8379 77.9781 54.918C77.9547 54.998 77.9026 55.1109 77.8218 55.2568C77.7411 55.4027 77.5941 55.5758 77.3808 55.7762C77.1676 55.9766 76.9795 56.1525 76.8166 56.3041C76.6997 56.4648 76.597 56.5916 76.5084 56.6843C75.9765 56.9314 75.5324 57.0156 75.1762 56.9369C74.7937 56.8971 74.4984 56.8638 74.2902 56.8368C74.082 56.8098 73.8731 56.7128 73.6635 56.5456C73.332 56.5271 73.0778 56.3712 72.9008 56.078C72.8074 55.9193 72.7104 55.7691 72.6098 55.6275C72.5093 55.4858 72.4087 55.3441 72.3082 55.2024C72.2346 55.0919 72.1535 54.9634 72.065 54.8168C71.9765 54.6701 71.9096 54.5076 71.8643 54.3291C71.8106 54.0274 71.7303 53.7295 71.6234 53.4356C71.5264 53.1657 71.4801 52.8821 71.4844 52.5846C71.4937 52.2992 71.4509 52.007 71.3561 51.7081C71.2612 51.4092 71.2184 51.1171 71.2277 50.8317C71.2852 50.5264 71.2969 50.3667 71.2629 50.3525C71.2459 50.3454 71.237 50.3068 71.2363 50.2367L71.3097 49.9531C71.326 49.8901 71.3455 49.7835 71.3682 49.6333L71.362 49.0023C71.3861 48.753 71.4251 48.5398 71.479 48.3628C71.5279 48.1737 71.54 47.9294 71.5153 47.6298C71.5061 47.4364 71.5178 47.2767 71.5504 47.1506C71.5738 47.0706 71.5912 46.9931 71.6026 46.918C71.621 46.8259 71.6394 46.7339 71.6579 46.6418C71.6685 46.4966 71.6668 46.3213 71.6527 46.1159C71.6421 46.0217 71.6339 45.9336 71.6283 45.8514C71.6297 45.7522 71.6312 45.6531 71.6326 45.5539C71.6256 45.3315 71.6366 45.1017 71.6657 44.8645C71.6948 44.6272 71.7299 44.3875 71.771 44.1453C71.7881 43.913 71.8129 43.7338 71.8455 43.6077C71.8781 43.4817 71.9978 43.362 72.2047 43.2487C72.3031 43.1801 72.414 43.1415 72.5372 43.133C72.6845 43.1146 72.8025 43.0591 72.891 42.9663C73.1446 42.693 73.3317 42.5316 73.4521 42.482C73.5725 42.4325 73.6419 42.3616 73.6603 42.2696C73.9182 42.1776 74.1455 42.1826 74.3424 42.2846C74.5343 42.3746 74.7382 42.4596 74.9542 42.5397C75.0971 43.2976 75.1551 43.9003 75.128 44.3479C75.101 44.7955 75.0634 45.2686 75.0151 45.7672C74.974 46.0094 74.9428 46.2757 74.9214 46.566C74.9001 46.8564 74.881 47.1178 74.8639 47.3501C74.8525 47.6645 74.8227 47.9513 74.7745 48.2105C74.717 48.5158 74.6993 48.7977 74.7212 49.0562L74.6998 49.4662C74.687 49.6405 74.6799 49.7772 74.6785 49.8763C74.6891 49.9705 74.6937 50.0672 74.6922 50.1663C74.6979 50.2485 74.689 50.3296 74.6656 50.4096C74.6422 50.4896 74.6273 50.5732 74.6209 50.6603C74.6096 50.7354 74.5982 50.8105 74.5869 50.8855C74.5741 51.0598 74.5613 51.234 74.5485 51.4082C74.5357 51.5824 74.5399 51.7637 74.5611 51.9521C74.5497 52.2666 74.5493 52.4709 74.5599 52.5651C74.5578 52.5942 74.5582 52.6292 74.561 52.6703C74.5589 52.6993 74.5567 52.7284 74.5546 52.7574C74.6154 53.0421 74.6324 53.2886 74.6054 53.4968C74.5785 53.705 74.6641 53.8106 74.8624 53.8135ZM89.6006 39.6385C89.6636 39.6548 89.7125 39.5854 89.7472 39.4303C89.7706 39.3503 89.7844 39.2813 89.7887 39.2232C89.8001 39.1481 89.8103 39.0876 89.8196 39.0415C89.8231 38.9134 89.8157 38.7756 89.7973 38.6283C89.779 38.481 89.7716 38.3432 89.7751 38.215C89.8057 37.8786 89.8783 37.5249 89.9932 37.1538C90.1009 36.7997 90.1615 36.4509 90.1751 36.1074C90.1963 36.0564 90.2332 35.992 90.2856 35.9141C90.3309 35.8532 90.3628 35.7767 90.3812 35.6846C90.564 35.5813 90.6865 35.5027 90.7489 35.4489C90.8112 35.395 90.8686 35.3292 90.921 35.2513C91.2157 35.2145 91.4685 35.3499 91.6795 35.6573C91.7417 35.8429 91.7254 36.0256 91.6305 36.2055C91.5546 36.3634 91.5213 36.539 91.5305 36.7324C91.5099 36.8535 91.5315 36.9572 91.5952 37.0436C91.6589 37.1301 91.6805 37.2338 91.66 37.3549C91.7031 37.8018 91.6991 38.2541 91.648 38.7116C91.5947 39.1981 91.5787 39.6553 91.5998 40.0831C91.5785 40.3734 91.5632 40.6613 91.554 40.9467C91.5447 41.2322 91.5584 41.5222 91.5952 41.8168C91.5285 42.4075 91.4837 43.0173 91.4609 43.6462C91.4452 44.2581 91.4153 44.904 91.3713 45.5839C91.5753 45.4296 91.7308 45.26 91.8377 45.0751C91.9518 44.8733 92.0804 44.6726 92.2235 44.4729L92.4966 44.2127C92.5349 44.1688 92.5756 44.1309 92.6188 44.099C92.6691 44.0502 92.7194 44.0013 92.7697 43.9524L93.1023 43.4776C93.1406 43.4337 93.1728 43.3923 93.199 43.3534C93.2373 43.3095 93.2755 43.2656 93.3138 43.2217L93.4636 42.9699C93.4969 42.914 93.5589 42.8251 93.6496 42.7033C93.685 42.6183 93.7364 42.5549 93.8037 42.5132C93.871 42.4714 93.9223 42.408 93.9578 42.323C94.0775 42.2034 94.1611 42.0986 94.2086 42.0086C94.2752 41.8968 94.3538 41.7799 94.4445 41.6581C94.5592 41.5264 94.656 41.4021 94.7346 41.2853C94.7941 41.1904 94.9078 41.0732 95.0757 40.9337C95.1954 40.8141 95.3102 40.6824 95.42 40.5386C95.4823 40.4848 95.5397 40.4189 95.5921 40.3411C95.6396 40.2511 95.6849 40.1902 95.7282 40.1584C95.8599 40.0337 95.9293 39.9629 95.9364 39.9459C95.9577 39.8949 95.9839 39.856 96.0151 39.8291C96.2021 39.6677 96.3207 39.5625 96.371 39.5137C96.3902 39.4917 96.4174 39.4382 96.4529 39.3533C96.6505 39.0466 96.8202 38.8431 96.9619 38.7425C97.1106 38.625 97.2923 38.4164 97.507 38.1169C97.6975 38.0667 97.8325 38.0182 97.9118 37.9715C98.0273 37.9099 98.153 37.9074 98.2889 37.9641C98.3809 38.4613 98.3327 38.8402 98.1442 39.1008C97.9558 39.3614 97.7418 39.6113 97.5024 39.8507C97.2416 40.3804 97.0089 40.807 96.8041 41.1307C96.5994 41.4543 96.3277 41.8547 95.989 42.332C95.7304 42.5933 95.5321 42.8298 95.3939 43.0415C95.1772 43.1307 95.0295 43.2337 94.9508 43.3506C94.846 43.5064 94.7613 43.6257 94.6969 43.7085C94.6324 43.7914 94.5449 43.8696 94.4344 43.9433C94.3239 44.0169 94.2364 44.0951 94.1719 44.178C93.9906 44.4216 93.8748 44.5678 93.8245 44.6167C93.7812 44.6485 93.7419 44.7069 93.7065 44.7919C93.5995 45.2161 93.4549 45.515 93.2729 45.6884C93.0837 45.8789 92.9505 46.1027 92.8733 46.3598C92.5134 46.6486 92.2555 46.98 92.0996 47.354C91.9366 47.7449 91.7128 48.0904 91.428 48.3907C91.4611 49.0529 91.5265 49.6737 91.6241 50.253C91.7316 50.8565 91.792 51.4652 91.8053 52.0793L91.8931 53.9862C91.9107 54.3028 91.9284 54.6194 91.946 54.936C91.9806 55.2597 92.0213 55.5809 92.0679 55.8996C91.9814 56.4421 91.9678 57.025 92.0272 57.6482C92.0519 57.9478 92.0646 58.2524 92.0652 58.5619C92.0779 58.8664 92.0785 59.1759 92.0671 59.4904C91.941 59.6971 91.8868 59.9588 91.9044 60.2754C91.922 60.592 91.8607 60.8707 91.7204 61.1114C91.709 61.4259 91.6321 61.718 91.4897 61.9878C91.3473 62.2576 91.2194 62.5285 91.106 62.8005C91.0422 62.9534 90.9955 63.1135 90.9657 63.2806C90.8027 63.6715 90.611 64.0954 90.3906 64.5521C90.1774 64.9919 90.0076 65.4349 89.8815 65.881C89.6859 66.1586 89.5194 66.4383 89.382 66.7202C89.2445 67.002 89.112 67.2959 88.9845 67.6018L88.7294 67.8546C88.66 67.9254 88.5623 67.9445 88.4362 67.9119C88.2251 68.0833 87.9772 68.1994 87.6925 68.2602C87.4077 68.3211 87.235 68.2091 87.1741 67.9244C86.9631 67.8563 86.8367 67.7887 86.7949 67.7214C86.7432 67.63 86.6699 67.5546 86.575 67.4951C86.5801 67.2677 86.5082 67.0931 86.3595 66.9713C86.1938 66.8423 86.0887 66.7237 86.0441 66.6153C85.9152 66.3022 85.8275 65.9863 85.7808 65.6676C85.7072 65.3177 85.674 65.0146 85.6812 64.7582L85.7196 63.8765C85.7254 63.4799 85.7205 63.1087 85.705 62.7631C85.6895 62.4175 85.6726 62.0513 85.6542 61.6646C85.711 61.2893 85.7089 60.9592 85.6481 60.6745C85.5724 60.3536 85.5413 60.0215 85.5548 59.678C85.5633 59.5618 85.5719 59.4457 85.5804 59.3295C85.601 59.2084 85.618 59.0958 85.6315 58.9917C85.6726 58.7495 85.662 58.5356 85.5997 58.35C85.6217 58.1298 85.6462 57.9155 85.6732 57.7073C85.7171 57.5062 85.7696 57.3086 85.8306 57.1146C85.9525 56.7265 86.0174 56.3196 86.0252 55.894C86.2847 54.7453 86.6876 53.6713 87.2339 52.6721C87.7802 51.6729 88.3459 50.6868 88.9311 49.7138C89.0084 49.4567 89.0566 49.3172 89.0757 49.2953C89.0948 49.2733 89.114 49.2514 89.1331 49.2294C89.1643 49.2025 89.2295 49.0701 89.3287 48.8321C89.3598 48.8052 89.3701 48.7447 89.3595 48.6505C89.3489 48.5563 89.3613 48.4667 89.3968 48.3817C89.3841 48.0772 89.3725 47.7581 89.3619 47.4245C89.3584 47.0739 89.3536 46.7028 89.3473 46.3112C89.341 45.9195 89.3315 45.5714 89.3188 45.2669C89.3012 44.9503 89.2779 44.6712 89.2489 44.4297C89.1412 44.5444 89.0856 44.6659 89.082 44.7941C89.0785 44.9222 89.0519 45.0458 89.0023 45.1648C88.9838 45.2569 88.9484 45.3418 88.896 45.4197C88.8294 45.5316 88.789 45.6046 88.7748 45.6386C88.7323 45.7405 88.6944 45.8195 88.6611 45.8754C88.6278 45.9314 88.5949 46.0224 88.5622 46.1484C88.4127 46.4352 88.2721 46.7607 88.1403 47.1247C88.0155 47.4717 87.8749 47.7971 87.7183 48.1009C87.6346 48.4451 87.5375 48.7737 87.427 49.0867C87.3164 49.3997 87.1584 49.683 86.953 49.9365C86.7007 50.35 86.4167 50.7204 86.1007 51.0475C85.7848 51.3746 85.483 51.6678 85.1954 51.9269L84.7746 52.2902C84.6188 52.4247 84.4927 52.5118 84.3963 52.5514C84.334 52.6052 84.2763 52.636 84.2232 52.6438C84.17 52.6516 84.0953 52.6753 83.999 52.7149C83.6377 52.8636 83.2928 52.9492 82.9642 52.9718C82.8721 52.9533 82.7946 52.936 82.7315 52.9197C82.6685 52.9034 82.5931 52.857 82.5053 52.7804C82.4373 52.7521 82.3498 52.7107 82.2429 52.6561C82.136 52.6015 82.0436 52.548 81.9657 52.4956C81.8729 52.4071 81.7968 52.2905 81.7373 52.146C81.6779 52.0016 81.6018 51.885 81.509 51.7965C81.4354 51.686 81.3642 51.5815 81.2956 51.483C81.2099 51.3775 81.1292 51.284 81.0534 51.2025C80.892 51.0155 80.7932 50.8097 80.7571 50.5852C80.7543 50.5441 80.7515 50.5031 80.7487 50.462C80.7458 50.4209 80.7455 50.3858 80.7476 50.3568C80.7469 50.2867 80.7197 50.2205 80.6659 50.1581C80.634 50.1149 80.5742 50.0551 80.4864 49.9785C80.3986 49.902 80.3387 49.8422 80.3069 49.799C80.1072 49.6559 79.9826 49.5241 79.933 49.4037C79.8665 49.2762 79.8325 49.1423 79.8311 49.0021C79.8319 48.8328 79.7908 48.716 79.708 48.6515C79.7179 48.4362 79.7148 48.2404 79.6985 48.064C79.6894 47.8706 79.7153 47.6769 79.7762 47.4829C79.8478 47.1437 79.8805 46.8979 79.8741 46.7456C79.8635 46.6514 79.8699 46.5643 79.8933 46.4843C79.8997 46.3972 79.9146 46.3136 79.938 46.2336C79.9834 45.9333 80.0305 45.6886 80.0794 45.4995C80.1425 45.2765 80.1946 45.0438 80.2358 44.8016C80.3663 43.8186 80.5747 42.888 80.8611 42.0099C80.9255 41.927 80.995 41.8562 81.0693 41.7974C81.1317 41.7436 81.1551 41.6636 81.1395 41.5574C81.5844 41.0645 81.9953 40.5575 82.3722 40.0363C82.6194 39.8501 82.8022 39.6271 82.9205 39.3672C83.0459 39.0903 83.2238 38.8552 83.454 38.6619C83.624 38.4934 83.8032 38.2788 83.9917 38.0182C84.1681 37.7626 84.3863 37.5743 84.6462 37.4532C84.8871 37.3541 85.0528 37.2437 85.1435 37.1219C85.2342 37.0001 85.3249 36.8783 85.4155 36.7565C85.6734 36.4251 86.024 36.1822 86.4674 36.0279C86.7514 36.1364 87.0096 36.1991 87.2419 36.2161C87.4692 36.2212 87.6962 36.3108 87.9228 36.4851C87.9837 36.5304 88.0633 36.6384 88.1617 36.8091L88.4092 37.2565C88.5069 37.357 88.601 37.4661 88.6917 37.5837C88.7823 37.7013 88.8644 37.8154 88.9381 37.9259C89.0959 38.2411 89.2088 38.5325 89.2768 38.8003C89.3447 39.068 89.4526 39.3474 89.6006 39.6385ZM87.0978 38.8943L87.0617 38.9092C87.0071 39.0161 86.9197 39.0944 86.7992 39.1439C86.6788 39.1935 86.5864 39.2597 86.5219 39.3425C86.5007 39.3935 86.4638 39.4579 86.4114 39.5358C86.359 39.6137 86.3221 39.6782 86.3009 39.7292C86.2173 39.834 86.1252 39.9352 86.0246 40.0329C85.936 40.1257 85.8354 40.2234 85.7228 40.3261C85.4855 40.5364 85.3049 40.7304 85.1809 40.9081C85.1022 41.025 85.048 41.167 85.0182 41.3341C84.9906 41.4722 84.9314 41.6021 84.8407 41.7239C84.7883 41.8018 84.7359 41.8797 84.6835 41.9576C84.6261 42.0235 84.5627 42.0918 84.4932 42.1626C84.3664 42.2993 84.2676 42.4526 84.1967 42.6225C84.1542 42.7245 84.1298 42.8191 84.1234 42.9062C84.117 42.9933 84.0536 43.0616 83.9332 43.1112C83.8714 43.7139 83.7346 44.3052 83.5227 44.8852C83.3087 45.4943 83.1888 46.0927 83.1632 46.6805C83.0626 46.7782 83.019 46.8947 83.0325 47.03C83.048 47.1363 83.0434 47.279 83.0186 47.4581C82.9469 48.0368 82.9957 48.4461 83.1649 48.6863C83.2385 48.7968 83.3146 48.9133 83.3932 49.0358C83.4668 49.1463 83.5345 49.2593 83.596 49.3748C83.8198 49.508 84.0408 49.4804 84.259 49.2921C84.4772 49.1037 84.6578 48.9097 84.8009 48.71C84.9724 48.4423 85.1304 48.1591 85.2749 47.8602C85.4195 47.5614 85.5676 47.254 85.7192 46.9382C85.8807 46.6464 86.0168 46.3441 86.1273 46.031C86.2379 45.718 86.3449 45.4135 86.4484 45.1175C86.4739 45.0084 86.5306 44.8724 86.6184 44.7096C86.7063 44.5467 86.763 44.4107 86.7885 44.3017C86.8806 44.0807 86.9419 43.9217 86.9724 43.8247C87.0242 43.6767 87.0954 43.5418 87.186 43.42C87.2279 43.2479 87.2661 43.0843 87.3009 42.9292C87.3307 42.7621 87.3629 42.601 87.3977 42.4459C87.4324 42.2908 87.4696 42.1417 87.5093 41.9986C87.5441 41.8435 87.5873 41.692 87.639 41.544C87.6427 41.1764 87.6502 40.8354 87.6616 40.5209C87.6673 40.3637 87.673 40.2065 87.6787 40.0492C87.6794 39.88 87.6742 39.7132 87.6629 39.5489C87.5701 39.4603 87.489 39.3317 87.4197 39.1632C87.3552 39.0066 87.248 38.917 87.0978 38.8943ZM89.5168 53.19C89.4615 53.2268 89.4126 53.2962 89.3701 53.3982C89.3489 53.4492 89.2978 53.5476 89.2171 53.6935C89.0753 54.0334 88.9421 54.3769 88.8174 54.7239C88.6927 55.0709 88.5984 55.4406 88.5346 55.8329C88.4417 56.2231 88.3187 56.6257 88.1656 57.0407C88.0005 57.4607 87.9477 57.8626 88.0071 58.2465C87.9106 58.7649 87.8493 59.2829 87.8229 59.8007C87.7966 60.3184 87.8323 60.8669 87.9299 61.4463C87.9652 61.6007 87.9932 61.737 88.0137 61.8553C88.0392 61.9856 88.0572 62.0979 88.0678 62.1921C88.084 62.3684 88.1173 62.5519 88.1675 62.7424C88.2526 62.5385 88.3411 62.326 88.4333 62.1051C88.5254 61.8841 88.6019 61.6766 88.6629 61.4826C88.6912 61.4146 88.7086 61.337 88.715 61.2499C88.7214 61.1628 88.7388 61.0853 88.7671 61.0173C88.8274 60.7531 88.8876 60.489 88.9479 60.2248C89.0251 59.9677 89.1024 59.7107 89.1796 59.4536C89.3342 58.9394 89.4596 58.4232 89.5561 57.9047C89.617 57.7107 89.6684 57.5276 89.7102 57.3555C89.7521 57.1834 89.7914 57.0053 89.8283 56.8212C90.0261 56.0358 90.0981 55.2529 90.0445 54.4724C90.0029 53.6869 89.9659 52.8785 89.9335 52.047C89.891 52.149 89.846 52.2449 89.7985 52.3348C89.751 52.4248 89.7096 52.5122 89.6741 52.5972C89.5721 52.7941 89.5196 52.9917 89.5168 53.19ZM99.2911 41.0154C99.4342 40.8157 99.5263 40.5948 99.5675 40.3526C99.588 40.2315 99.6146 40.1079 99.6472 39.9818C99.6798 39.8558 99.7185 39.7272 99.7631 39.5962C99.9275 39.1062 100.141 38.6664 100.403 38.2769C100.467 37.9547 100.601 37.6813 100.805 37.4569C101.003 37.2204 101.12 36.9399 101.155 36.6156C101.172 36.5525 101.184 36.4629 101.193 36.3468C101.201 36.2306 101.214 36.141 101.23 36.078C101.425 35.2515 101.701 34.5186 102.057 33.8791C102.104 33.7892 102.152 33.6992 102.199 33.6093C102.247 33.5194 102.288 33.4319 102.324 33.3469C102.38 33.211 102.493 33.0237 102.663 32.785C102.746 32.6802 102.828 32.5694 102.906 32.4526C102.98 32.3237 103.045 32.1913 103.102 32.0553C103.215 31.7833 103.378 31.5472 103.592 31.3468C103.718 31.2101 103.853 31.0915 103.994 30.991C104.057 30.9372 104.121 30.8894 104.189 30.8476C104.263 30.7889 104.338 30.7301 104.412 30.6713C104.561 30.5538 104.694 30.4497 104.811 30.3591C104.929 30.2685 105.082 30.2125 105.27 30.1913C105.72 30.1893 106.143 30.3955 106.539 30.8099C106.685 30.9608 106.799 31.3574 106.881 31.9998C106.974 32.6373 107.047 33.3112 107.1 34.0216C107.148 34.7199 107.199 35.255 107.254 35.6268C107.28 35.8273 107.31 35.9346 107.344 35.9487C107.378 35.9629 107.402 35.9881 107.417 36.0242C107.419 36.1644 107.427 36.2876 107.443 36.3939C107.458 36.5001 107.479 36.6184 107.504 36.7487C107.535 36.9612 107.606 37.235 107.715 37.57C107.825 37.905 107.944 38.1589 108.071 38.3318C108.307 38.2206 108.436 38.1396 108.457 38.0886C108.471 38.0546 108.496 38.0302 108.532 38.0153C108.619 37.9516 108.694 37.9133 108.76 37.9006C108.825 37.8879 108.901 37.8496 108.987 37.7859C109.426 37.4503 109.763 37.0021 109.996 36.4412C110.174 36.2557 110.339 36.0751 110.492 35.8995C110.657 35.719 110.81 35.5433 110.951 35.3727C111.189 34.9931 111.388 34.707 111.548 34.5144C111.708 34.3218 111.953 34.045 112.283 33.6838C112.366 33.4388 112.514 33.2016 112.73 32.9722C112.926 32.7647 113.099 32.5176 113.248 32.2307C113.291 32.1288 113.324 32.0378 113.347 31.9577C113.38 31.8317 113.445 31.7839 113.542 31.8144C113.712 31.8852 113.842 31.9795 113.932 32.097C114.023 32.2146 114.066 32.3025 114.062 32.3605C113.956 32.6155 113.913 32.8021 113.933 32.9204C113.954 33.0387 113.953 33.1233 113.932 33.1743C113.861 33.3442 113.725 33.5269 113.524 33.7224C113.354 33.8909 113.26 34.0212 113.241 34.1132C113.223 34.2053 113.203 34.2768 113.182 34.3278C113.139 34.4298 113.095 34.5112 113.05 34.5721C113.005 34.633 112.961 34.7145 112.918 34.8165C112.9 34.9085 112.851 34.9779 112.772 35.0246L112.559 35.1755C112.464 35.3553 112.388 35.5132 112.332 35.6492C112.275 35.7852 112.211 35.9381 112.14 36.1081C112.034 36.3631 111.971 36.5511 111.95 36.6722C111.937 36.7763 111.851 36.9452 111.694 37.1789L111.15 37.9096C110.882 38.217 110.629 38.5604 110.391 38.94C110.153 39.3195 109.915 39.6991 109.677 40.0787C109.515 40.3003 109.32 40.5283 109.093 40.7627C108.884 40.9751 108.701 41.1982 108.544 41.4318C108.436 41.4764 108.367 41.4977 108.338 41.4955C108.292 41.4863 108.233 41.5316 108.162 41.6315C108.016 41.6208 107.894 41.6644 107.793 41.7621C107.685 41.8768 107.567 41.9323 107.439 41.9288C107.279 41.882 107.145 41.8458 107.036 41.8203C106.939 41.7899 106.861 41.7725 106.803 41.7682C106.711 41.7498 106.62 41.7168 106.53 41.6694C106.432 41.5688 106.36 41.4437 106.312 41.2943C106.265 41.1448 106.185 41.0368 106.073 40.9702C105.855 40.4404 105.665 39.9272 105.503 39.4307C105.341 38.9342 105.211 38.3963 105.114 37.8169C105.068 37.6384 105.01 37.3247 104.937 36.8756C104.86 36.4145 104.773 35.979 104.674 35.5689C104.576 35.1588 104.466 34.9434 104.345 34.9229C104.14 35.1764 103.958 35.5046 103.8 35.9076C103.727 36.1066 103.649 36.2935 103.566 36.4684C103.483 36.6433 103.401 36.8037 103.321 36.9496L102.924 37.5774C102.865 37.6723 102.802 37.7757 102.735 37.8876C102.663 37.9874 102.594 38.0933 102.528 38.2052C102.409 38.3949 102.314 38.5748 102.243 38.7448C102.172 38.9147 102.099 39.1137 102.024 39.3418C101.974 39.4607 101.925 39.5797 101.875 39.6987C101.833 39.8007 101.793 39.9087 101.755 40.0227C101.675 40.2387 101.568 40.4586 101.435 40.6823C101.364 40.8523 101.306 40.9677 101.261 41.0286C101.215 41.0895 101.164 41.188 101.108 41.3239L100.906 41.8083C100.842 41.9613 100.741 42.1086 100.602 42.2502C100.43 42.9265 100.202 43.6046 99.9182 44.2845C99.6468 44.9593 99.4742 45.6006 99.4004 46.2083C99.2105 46.568 98.9902 46.9051 98.7394 47.2195C98.4886 47.5339 98.1047 47.713 97.5877 47.7568C97.2874 47.7114 97.0813 47.6554 96.9694 47.5888C96.8625 47.5342 96.7485 47.4967 96.6274 47.4761C96.5425 47.2013 96.4625 46.9385 96.3875 46.6878C96.3124 46.437 96.2806 46.1544 96.292 45.84L96.3601 45.3896C96.3963 45.1353 96.3755 44.8623 96.2976 44.5705C96.2148 44.2666 96.1891 43.9815 96.2203 43.7153C96.2657 43.415 96.2742 43.1791 96.2459 43.0077C96.2226 42.8484 96.2198 42.6876 96.2376 42.5254C96.2383 42.3561 96.2575 42.2145 96.295 42.1005C96.3326 41.9865 96.3517 41.8448 96.3525 41.6756C96.3582 41.5183 96.3855 41.3452 96.4344 41.1561C96.4833 40.967 96.5106 40.7938 96.5163 40.6366C96.4477 40.0594 96.4224 39.4503 96.4402 38.8093C96.419 38.6209 96.4003 38.4386 96.3841 38.2622C96.3678 38.0858 96.3661 37.9105 96.3789 37.7363C96.3846 37.5791 96.3903 37.4219 96.396 37.2646C96.4017 37.1074 96.4099 36.9562 96.4205 36.811C96.4262 36.6538 96.4344 36.5026 96.445 36.3574C96.4507 36.2002 96.4564 36.0429 96.4622 35.8857C96.4749 35.7115 96.4891 35.5578 96.5048 35.4247C96.5204 35.2915 96.5516 35.1449 96.5983 34.9849C96.6097 34.9098 96.621 34.8347 96.6324 34.7597C96.6437 34.6846 96.6491 34.612 96.6484 34.5419C96.6477 34.4718 96.653 34.3992 96.6644 34.3241C96.6757 34.249 96.6871 34.1739 96.6984 34.0989C96.7097 34.0238 96.7211 33.9487 96.7324 33.8737C96.7388 33.7866 96.7367 33.6959 96.7261 33.6017C96.7099 33.4253 96.7383 33.2377 96.8113 33.0387C96.8559 32.9077 96.891 32.7876 96.9165 32.6786C96.9491 32.5525 96.9722 32.4374 96.9856 32.3333C97.0055 32.1421 97.1175 31.9693 97.3215 31.8149C97.5658 31.827 97.7617 31.7042 97.909 31.4464C98.0635 31.1717 98.2551 31.1069 98.4838 31.2522C98.9102 31.3302 99.2083 31.4046 99.3783 31.4755C99.5773 31.5484 99.7281 31.6413 99.8308 31.7539C100.04 31.9211 100.144 32.1389 100.142 32.4073C100.14 32.6757 100.053 32.9438 99.8814 33.2115C99.9507 33.6194 99.9407 34.0741 99.8514 34.5755C99.8053 34.8057 99.7652 35.0334 99.7312 35.2586C99.6922 35.4718 99.6592 35.6825 99.6322 35.8907L99.6405 36.7321C99.6348 37.1287 99.623 37.5278 99.6052 37.9293C99.5874 38.3309 99.5466 38.7279 99.4828 39.1202C99.46 39.5097 99.4263 39.77 99.3817 39.901C99.3491 40.0271 99.3225 40.1507 99.3019 40.2718C99.2884 40.3759 99.2848 40.6238 99.2911 41.0154ZM111.019 32.0496C111.141 31.9009 111.26 31.641 111.374 31.27C111.484 30.8868 111.593 30.5182 111.701 30.1641C111.804 29.798 111.902 29.5745 111.995 29.4938C112.018 29.3437 112.042 29.2141 112.068 29.105C112.093 28.996 112.151 28.8805 112.242 28.7587C112.291 28.3303 112.422 27.9312 112.636 27.5615C112.857 27.1749 113.047 26.7801 113.205 26.3771C113.394 26.1867 113.578 25.9841 113.758 25.7696C113.949 25.5501 114.127 25.315 114.291 25.0643C114.632 24.558 115.089 24.1799 115.662 23.93C115.976 23.9414 116.25 23.871 116.483 23.7188C116.704 23.5715 116.964 23.5351 117.262 23.6095C117.488 23.7838 117.654 23.8777 117.758 23.8912C117.862 23.9047 117.961 23.9412 118.056 24.0007C118.276 24.2621 118.43 24.431 118.518 24.5075C118.618 24.5791 118.696 24.6666 118.753 24.77C118.839 24.9456 118.916 25.0972 118.982 25.2247C119.044 25.3402 119.098 25.4376 119.145 25.5169C119.221 25.6685 119.283 25.819 119.331 25.9685C119.511 26.6123 119.643 27.2759 119.728 27.9594C119.733 28.0416 119.739 28.1237 119.744 28.2059C119.75 28.288 119.758 28.3762 119.769 28.4704C119.785 28.6468 119.782 28.81 119.759 28.9602C119.673 29.2633 119.623 29.5019 119.61 29.6762C119.581 29.9134 119.555 30.072 119.532 30.1521C119.447 30.356 119.363 30.5455 119.28 30.7204C119.209 30.8903 119.139 31.0458 119.07 31.1867C118.987 31.2915 118.906 31.4023 118.827 31.5192C118.743 31.624 118.662 31.7348 118.584 31.8516C118.433 32.0683 118.232 32.2637 117.98 32.4379L117.737 32.7704C117.658 32.8872 117.555 32.9789 117.427 33.0455C117.275 33.2912 117.086 33.5167 116.861 33.7221C116.76 33.8198 116.654 33.92 116.541 34.0226C116.441 34.1203 116.336 34.2266 116.229 34.3413C116.078 34.4878 115.956 34.6365 115.863 34.7874C115.77 34.9382 115.641 35.1039 115.476 35.2845C115.383 35.3652 115.226 35.4792 115.005 35.6264C114.791 35.7567 114.646 35.8658 114.569 35.9536C114.789 36.1448 114.961 36.426 115.085 36.7972C115.212 37.1393 115.396 37.4156 115.637 37.626C115.98 37.5694 116.346 37.4823 116.734 37.3649C117.122 37.2474 117.475 37.0952 117.792 36.9083C117.847 36.8715 117.9 36.8286 117.95 36.7798C118.013 36.726 118.075 36.6722 118.137 36.6183C118.2 36.5645 118.262 36.5107 118.324 36.4569C118.387 36.4031 118.451 36.3553 118.519 36.3135C118.764 36.1564 118.998 35.9896 119.221 35.8133C119.444 35.637 119.627 35.449 119.77 35.2493C120.37 34.7211 120.91 34.1185 121.392 33.4416C121.874 32.7646 122.256 32.0862 122.54 31.4063C122.75 31.0948 122.96 30.6985 123.17 30.2177C123.381 29.7369 123.523 29.3123 123.596 28.944C123.799 28.4101 123.994 27.9777 124.182 27.647C124.37 27.3163 124.589 27.1135 124.84 27.0384C125.032 26.9592 125.266 26.9967 125.541 27.1512C125.816 27.3057 125.899 27.5599 125.791 27.914C125.622 28.1527 125.458 28.4735 125.3 28.8764C125.154 29.2744 124.962 29.5931 124.722 29.8324C124.572 30.0491 124.41 30.4255 124.237 30.9616C124.065 31.4687 123.913 31.8691 123.781 32.163C123.752 32.231 123.72 32.3075 123.685 32.3925C123.649 32.4774 123.602 32.5674 123.542 32.6623C123.435 32.8471 123.361 33.0256 123.319 33.1977C123.075 33.6643 122.823 34.0779 122.563 34.4383C122.41 34.4447 122.312 34.5133 122.267 34.6443C122.213 34.8214 122.157 34.9574 122.097 35.0523C122.071 35.0912 122.045 35.1302 122.018 35.1691C121.992 35.208 121.96 35.2495 121.922 35.2934C121.883 35.3373 121.851 35.3787 121.825 35.4176C121.799 35.4566 121.773 35.4955 121.746 35.5345C121.623 35.7823 121.482 36.0376 121.322 36.3004C121.163 36.5631 120.988 36.8042 120.796 37.0237C120.615 37.2673 120.429 37.4988 120.237 37.7184C120.051 37.9499 119.857 38.1634 119.656 38.3588C119.455 38.5543 119.261 38.7677 119.075 38.9993C118.901 39.2259 118.731 39.4645 118.567 39.7152L118.192 39.9329C118.137 39.9697 118.079 40.0005 118.019 40.0253C117.963 40.0621 117.908 40.0989 117.853 40.1357C117.74 40.2384 117.624 40.3145 117.503 40.3641C117.383 40.4136 117.222 40.4515 117.022 40.4776C116.138 40.5879 115.329 40.4702 114.596 40.1244C114.494 40.0819 114.388 40.0479 114.279 40.0223C114.177 39.9798 114.072 39.9458 113.963 39.9203C113.71 39.8551 113.523 39.7771 113.402 39.6864C113.219 39.5504 112.994 39.312 112.727 38.9713C112.448 38.6355 112.185 38.2863 111.937 37.9236C111.684 37.5489 111.513 37.2532 111.424 37.0365C111.437 36.8622 111.414 36.5832 111.354 36.1993C111.29 35.8034 111.216 35.4184 111.132 35.0445C111.044 34.6584 110.97 34.3932 110.911 34.2487C110.939 34.1807 110.971 33.9845 111.006 33.6602C111.025 33.3287 111.037 32.9998 111.044 32.6733C111.057 32.3298 111.049 32.1219 111.019 32.0496ZM115.884 27.3445C115.805 27.6306 115.72 27.9047 115.631 28.1667C115.542 28.4287 115.423 28.6886 115.276 28.9464C115.241 29.2708 115.171 29.5809 115.068 29.877C114.964 30.173 114.856 30.457 114.742 30.7289C114.725 30.9612 114.679 31.1563 114.603 31.3142C114.527 31.4722 114.442 31.6411 114.347 31.8209C114.299 32.1502 114.211 32.4824 114.081 32.8174C113.951 33.1523 114.017 33.4491 114.278 33.7077C114.563 33.6468 114.813 33.5017 115.029 33.2723C115.244 33.0428 115.428 32.8403 115.581 32.6647C115.653 32.5649 115.727 32.471 115.803 32.3832C115.892 32.2905 115.974 32.2002 116.051 32.1124C116.127 32.0246 116.204 31.9368 116.28 31.849C116.357 31.7612 116.425 31.6698 116.484 31.5749L117.037 30.2492C117.127 30.0573 117.207 29.8413 117.277 29.6013C117.303 29.4922 117.328 29.3831 117.354 29.2741C117.387 29.148 117.419 29.0219 117.452 28.8959C117.403 28.6062 117.398 28.3197 117.436 28.0364C117.481 27.7362 117.44 27.4645 117.312 27.2216C117.255 27.1182 117.161 27.0091 117.029 26.8943C116.898 26.7795 116.808 26.6825 116.762 26.6032C116.509 26.7072 116.34 26.8262 116.254 26.96C116.213 27.0329 116.159 27.1048 116.089 27.1756C116.027 27.2294 115.958 27.2857 115.884 27.3445ZM135.31 28.0522C135.352 27.8801 135.387 27.76 135.415 27.6921C135.451 27.6071 135.501 27.5232 135.565 27.4403C135.604 26.6783 135.787 26.0115 136.115 25.44C136.455 24.8636 136.805 24.2266 137.166 23.5291C137.286 23.4795 137.372 23.3953 137.421 23.2763C137.471 23.1573 137.546 23.049 137.646 22.9512C137.736 22.7593 137.83 22.594 137.928 22.4552C138.007 22.3383 138.057 22.2049 138.08 22.0547C138.302 21.8083 138.487 21.5211 138.634 21.1933C138.792 20.8604 138.955 20.5542 139.122 20.2744C139.294 20.147 139.509 20.0868 139.765 20.094C139.941 20.247 140.061 20.4368 140.126 20.6635C140.192 20.8901 140.121 21.0601 139.914 21.1734C139.871 21.2753 139.823 21.3798 139.768 21.4867C139.714 21.5937 139.631 21.6839 139.521 21.7576C139.3 21.9048 139.183 22.0656 139.17 22.2398C139.252 22.4736 139.279 22.6244 139.251 22.6924C139.222 22.7604 139.21 22.8149 139.212 22.856C139.131 23.4105 138.994 23.9172 138.803 24.3761C138.607 24.823 138.458 25.3347 138.358 25.9111C138.26 26.0499 138.206 26.227 138.196 26.4423C137.862 26.8615 137.619 27.1794 137.469 27.3961C137.319 27.6128 137.199 27.8522 137.11 28.1142C137 28.2579 136.957 28.3599 136.982 28.4201C137.002 28.4683 136.998 28.5264 136.969 28.5944C136.813 28.8982 136.736 29.1056 136.74 29.2168C136.743 29.328 136.721 29.4286 136.674 29.5185C136.588 29.6524 136.515 29.7813 136.453 29.9052C136.398 30.0121 136.353 30.1081 136.318 30.1931C136.233 30.397 136.118 30.5638 135.975 30.6934C135.839 30.9462 135.62 31.2687 135.317 31.661C135.019 32.0653 134.683 32.4144 134.312 32.7083C133.945 33.0141 133.598 33.1639 133.271 33.1574L132.937 33.0628C132.874 33.0465 132.767 33.027 132.617 33.0043C132.381 32.876 132.14 32.7853 131.893 32.7322C131.674 32.6811 131.44 32.5734 131.189 32.409C130.905 32.2305 130.684 32.0187 130.527 31.7736C130.364 31.5165 130.163 31.2827 129.921 31.0723C129.603 30.4709 129.438 29.9333 129.427 29.4595C129.39 28.9956 129.379 28.5569 129.392 28.1433C129.4 27.7176 129.438 27.3146 129.507 26.9343C129.642 26.2027 129.619 25.4099 129.436 24.5557C129.062 24.3998 128.81 24.2149 128.68 24.001C128.618 23.8855 128.537 23.7569 128.437 23.6153C128.336 23.4736 128.22 23.3103 128.087 23.1254C127.63 23.7925 127.265 24.5481 126.993 25.3923C126.72 26.2364 126.513 27.0679 126.372 27.8865L126.265 28.8596C126.239 29.138 126.183 29.4142 126.099 29.6882C126.028 29.8582 126 29.9612 126.015 29.9974C126.03 30.0335 126.023 30.0856 125.995 30.1535C125.948 30.3136 125.912 30.4481 125.886 30.5572C125.861 30.6663 125.846 30.7498 125.842 30.8079C125.838 30.866 125.833 30.9241 125.829 30.9821C125.82 31.0282 125.811 31.0742 125.801 31.1202C125.769 31.2463 125.738 31.3433 125.71 31.4113C125.682 31.4793 125.651 31.5763 125.619 31.7024C125.48 32.3228 125.358 32.9007 125.255 33.4361L124.934 35.0678C124.885 35.327 124.861 35.5763 124.861 35.8157C124.866 36.0671 124.825 36.3093 124.738 36.5423C124.507 36.6655 124.354 36.6863 124.278 36.6049C124.202 36.5234 124.173 36.4366 124.192 36.3446C123.823 36.2708 123.507 35.9644 123.243 35.4254C122.979 34.8864 122.85 34.4186 122.856 34.0219C122.694 33.8349 122.621 33.7244 122.635 33.6904C122.649 33.6564 122.646 33.6154 122.626 33.5672C122.761 33.0049 122.902 32.4401 123.049 31.8728C123.195 31.3056 123.37 30.7549 123.573 30.221C123.598 30.1119 123.624 30.0029 123.649 29.8938C123.675 29.7847 123.694 29.6781 123.708 29.574C123.754 29.3439 123.816 29.1353 123.894 28.9483C123.955 28.5149 124.053 28.0521 124.188 27.5599C124.329 27.0798 124.41 26.6099 124.432 26.1502C124.51 25.9633 124.546 25.7936 124.539 25.6414C124.54 25.4721 124.593 25.3096 124.698 25.1538C124.723 24.9746 124.738 24.8064 124.744 24.6492C124.756 24.4749 124.76 24.3117 124.753 24.1594C124.731 23.9009 124.77 23.6176 124.868 23.3096C124.847 23.1212 124.853 22.9639 124.885 22.8379C124.918 22.7118 124.97 22.5638 125.041 22.3938C125.008 22.2805 125.032 22.1509 125.113 22.005C125.194 21.8592 125.242 21.7196 125.257 21.5865C125.248 21.3931 125.264 21.26 125.304 21.1871C125.352 21.0971 125.353 20.998 125.309 20.8896C125.379 20.7196 125.448 20.5437 125.514 20.3617C125.58 20.1797 125.621 19.9725 125.638 19.7402C125.896 19.4088 126.091 19.2159 126.224 19.1613C126.356 19.1068 126.434 19.0045 126.456 18.8544C126.553 18.8147 126.655 18.7726 126.763 18.728C126.884 18.6785 127.008 18.6204 127.135 18.5539C127.402 18.4158 127.584 18.4467 127.68 18.6464C127.712 18.6896 127.737 18.7498 127.755 18.8271C127.757 18.8681 127.76 18.9092 127.763 18.9503C127.766 18.9914 127.769 19.0324 127.772 19.0735C127.873 19.2853 127.92 19.3997 127.913 19.4167C127.899 19.4507 127.894 19.4737 127.899 19.4857C127.915 19.592 127.943 19.6788 127.985 19.746C128.022 19.8013 128.072 19.9072 128.137 20.0637C128.164 20.165 128.187 20.2543 128.205 20.3315C128.222 20.4087 128.238 20.4798 128.25 20.545C128.276 20.6753 128.381 20.794 128.566 20.901C128.661 20.9605 128.76 20.997 128.864 21.0105C128.968 21.0239 129.085 21.0675 129.214 21.1412C129.299 21.1766 129.371 21.2315 129.429 21.3059C129.488 21.3803 129.56 21.4352 129.645 21.4706C129.718 21.511 129.815 21.5415 129.936 21.5621C130.057 21.5826 130.164 21.6372 130.257 21.7257C130.429 21.7676 130.496 21.8104 130.458 21.8543C130.431 21.8933 130.505 21.9191 130.68 21.9319C131.1 22.1672 131.459 22.4562 131.755 22.7991C132.035 23.0357 132.267 23.222 132.449 23.358C132.649 23.5011 132.728 23.6938 132.687 23.936C132.645 24.038 132.62 24.2172 132.613 24.4735C132.549 24.6265 132.502 24.7866 132.472 24.9537C132.459 25.0578 132.46 25.163 132.475 25.2692C132.498 25.3585 132.494 25.4516 132.464 25.5486C132.391 25.987 132.297 26.3917 132.182 26.7628C132.067 27.1339 131.992 27.5167 131.957 27.9112C132.252 28.5926 132.592 29.0438 132.979 29.2649C133.407 29.4831 133.657 29.5773 133.729 29.5476C133.895 29.5073 134.044 29.3898 134.175 29.195L134.526 28.7128C134.564 28.6689 134.596 28.6275 134.623 28.5885C134.661 28.5446 134.693 28.5032 134.719 28.4642C134.772 28.3863 134.841 28.3155 134.928 28.2518C135.146 28.0635 135.254 27.9838 135.252 28.0129C135.255 28.0539 135.274 28.067 135.31 28.0522Z" fill="white"/>
<path d="M64.5351 87.0489C64.4735 86.5001 63.9787 86.1051 63.4299 86.1666L54.4859 87.1699C53.9371 87.2314 53.5421 87.7262 53.6036 88.2751C53.6652 88.8239 54.16 89.219 54.7089 89.1574L62.659 88.2656L63.5508 96.2158C63.6123 96.7646 64.1072 97.1596 64.656 97.0981C65.2049 97.0365 65.5999 96.5417 65.5383 95.9928L64.5351 87.0489ZM62.7598 86.5365C47.7724 105.311 42.1243 121.133 42.2345 134.347C42.3448 147.576 48.2254 158.023 55.9458 166.036C63.6549 174.037 73.2289 179.646 80.8437 183.251C84.6565 185.056 87.9911 186.364 90.375 187.222C91.5673 187.651 92.5225 187.968 93.1819 188.178C93.5117 188.283 93.7675 188.361 93.942 188.414C94.0292 188.44 94.0962 188.46 94.1419 188.473C94.1648 188.48 94.1823 188.485 94.1945 188.488C94.2005 188.49 94.2052 188.491 94.2086 188.492C94.2103 188.493 94.2117 188.493 94.2126 188.493C94.2137 188.494 94.2145 188.494 94.4877 187.532C94.7609 186.57 94.761 186.57 94.7608 186.57C94.7602 186.57 94.7596 186.57 94.7586 186.569C94.7564 186.569 94.7529 186.568 94.748 186.566C94.7383 186.563 94.7231 186.559 94.7027 186.553C94.6618 186.541 94.5998 186.523 94.5176 186.498C94.3531 186.449 94.1078 186.374 93.7889 186.272C93.1511 186.069 92.2193 185.76 91.0522 185.34C88.7174 184.5 85.4438 183.216 81.6995 181.443C74.1999 177.893 64.863 172.408 57.386 164.648C49.9203 156.9 44.3394 146.919 44.2345 134.33C44.1294 121.725 49.5121 106.337 64.3228 87.7843L62.7598 86.5365Z" fill="white"/>
</g>
<defs>
<clipPath id="clip0_186_42">
<rect width="163" height="248" fill="white"/>
</clipPath>
</defs>
</svg>
