<svg width="163" height="248" viewBox="0 0 163 248" fill="none" xmlns="http://www.w3.org/2000/svg">
<g clip-path="url(#clip0_186_43)">
<path d="M30.9952 96.2227C30.2554 96.2671 29.5482 96.3405 28.8737 96.4428C28.1993 96.5452 27.5381 96.6983 26.8904 96.9022C26.6613 97.0025 26.4716 97.1067 26.3213 97.2148C26.1711 97.3228 25.9814 97.427 25.7523 97.5273C25.1481 97.7699 24.5693 97.817 24.0159 97.6687C23.8232 97.4823 23.7186 97.3194 23.702 97.1802C24.038 96.731 24.3962 96.3754 24.7764 96.1133C25.1567 95.8512 25.5449 95.5846 25.9412 95.3133C26.5159 95.1303 27.0916 94.8936 27.6681 94.6033L28.5091 94.1815C28.6492 94.1112 28.786 94.0535 28.9194 94.0084C29.0688 93.9541 29.2148 93.9123 29.3574 93.8831C29.7567 93.8014 30.1355 93.7209 30.4938 93.6417C30.852 93.5624 31.209 93.4626 31.5648 93.3423C32.1119 93.1114 32.7056 92.9335 33.3457 92.8084C33.9858 92.6834 34.6037 92.5659 35.1993 92.4559C35.5097 92.4042 35.8104 92.3635 36.1015 92.3336C36.3926 92.3038 36.6832 92.3008 36.9734 92.3246C37.1219 92.324 37.2686 92.3296 37.4137 92.3415C37.5748 92.3442 37.7341 92.3532 37.8918 92.3685C38.1945 92.3957 38.504 92.3977 38.8203 92.3746C39.0282 92.4034 39.2316 92.4242 39.4304 92.437C39.6451 92.4406 39.8489 92.4346 40.0418 92.4189C40.4026 92.3807 40.8122 92.4366 41.2708 92.5864C41.3463 92.6066 41.4184 92.6394 41.4871 92.6848C41.5089 92.7041 41.537 92.7251 41.5713 92.7478C41.6057 92.7705 41.6463 92.7949 41.6933 92.8209C42.0203 92.9086 42.2462 92.9961 42.3711 93.0834C42.496 93.1708 42.6145 93.2565 42.7268 93.3405C42.9078 93.4699 43.1056 93.6375 43.3201 93.8432L43.8654 94.3735C43.9618 94.4668 44.0422 94.5692 44.1066 94.6808C44.1435 94.7446 44.2113 94.8436 44.3101 94.978C44.4902 95.161 44.597 95.2907 44.6305 95.3671L44.7824 95.6302C44.8836 95.8057 44.9779 95.932 45.065 96.0093C45.1647 96.0899 45.1767 96.2212 45.101 96.4031C45.1142 96.5549 45.1275 96.7068 45.1407 96.8586C45.1573 96.9978 45.1723 97.1434 45.1855 97.2952C45.212 97.5989 45.1864 97.8953 45.1089 98.1846C45.0752 98.3104 45.0227 98.4311 44.9512 98.5468C44.8798 98.6624 44.8021 98.7764 44.7181 98.8887C44.6693 98.97 44.6269 99.053 44.5907 99.1376C44.5579 99.2097 44.5251 99.2818 44.4923 99.3539C44.4267 99.4981 44.3456 99.6247 44.249 99.7336L43.8012 100.726C43.6599 101.052 43.5073 101.395 43.3433 101.756C43.271 101.925 43.2213 102.06 43.1944 102.16C43.1674 102.261 43.1177 102.396 43.0454 102.565C42.9764 102.722 42.8949 102.876 42.8008 103.026C42.7226 103.166 42.6335 103.298 42.5336 103.419C42.3371 103.649 42.1983 103.916 42.1175 104.217C41.825 104.705 41.5486 105.083 41.2883 105.35C41.0279 105.617 40.7533 105.887 40.4645 106.161C40.0799 106.489 39.76 106.828 39.5046 107.177C39.2265 107.561 38.9216 107.944 38.5898 108.327C38.5386 108.368 38.4836 108.447 38.4247 108.566C38.3659 108.685 38.3108 108.765 38.2596 108.805C37.9431 109.03 37.7668 109.185 37.7306 109.27C37.6945 109.355 37.6264 109.458 37.5265 109.579C37.4038 109.735 37.2698 109.908 37.1245 110.098C36.9792 110.288 36.8418 110.474 36.7124 110.655C36.6259 110.726 36.5134 110.844 36.3748 111.009C36.2589 111.14 36.1241 111.266 35.9705 111.386C35.9 111.448 35.8215 111.515 35.735 111.586C35.6519 111.645 35.5671 111.71 35.4806 111.781C34.3387 112.823 33.155 113.719 31.9295 114.469C31.1003 114.948 30.2849 115.349 29.4836 115.674C28.6343 116.026 27.8006 116.396 26.9823 116.783L26.0609 117.203C25.7965 117.335 25.4642 117.468 25.064 117.604C24.9876 117.637 24.905 117.669 24.816 117.699C24.743 117.72 24.67 117.741 24.597 117.762C24.4225 117.809 24.2635 117.874 24.12 117.957C23.6449 118.221 23.0542 118.413 22.3478 118.534C22.0258 118.528 21.822 118.534 21.7364 118.552C21.6508 118.57 21.5829 118.572 21.5326 118.558C21.3807 118.571 21.2231 118.556 21.0596 118.512C20.9589 118.485 20.8046 118.457 20.5967 118.429C20.5464 118.415 20.4675 118.407 20.3602 118.406C20.2528 118.404 20.1614 118.393 20.0859 118.373C19.9007 118.31 19.7066 118.204 19.5038 118.055C19.4133 117.99 19.3165 117.924 19.2134 117.856C19.1195 117.804 19.0257 117.752 18.9318 117.699C18.8849 117.673 18.8379 117.647 18.791 117.621C18.7566 117.599 18.7223 117.576 18.6879 117.553C18.6535 117.53 18.6129 117.506 18.5659 117.48C18.5316 117.457 18.4909 117.433 18.444 117.407L18.0243 117.011C17.9589 116.953 17.8952 116.889 17.8333 116.819C17.7679 116.761 17.7042 116.696 17.6422 116.626C17.3011 116.44 17.1118 116.241 17.0743 116.029C17.0402 115.804 16.9834 115.614 16.9039 115.458C16.8924 115.198 16.8839 114.953 16.8783 114.723C16.8853 114.495 16.8889 114.281 16.8892 114.079C16.8894 113.876 16.893 113.662 16.9 113.434C16.907 113.207 16.9111 112.966 16.9122 112.71C16.9091 112.52 16.9072 112.351 16.9065 112.203C16.9059 112.054 16.9417 111.895 17.014 111.726C17.0536 111.629 17.1409 111.504 17.2762 111.351L17.6239 110.959C17.9035 110.67 18.1568 110.354 18.3837 110.01C18.6105 109.667 18.8638 109.35 19.1434 109.061C19.2072 109.025 19.2681 108.974 19.326 108.908C19.384 108.843 19.4449 108.792 19.5087 108.755C19.6246 108.624 19.7342 108.492 19.8375 108.358C19.9408 108.224 20.0345 108.1 20.1185 107.988C20.4343 107.614 20.7547 107.249 21.0798 106.891C21.4048 106.533 21.747 106.187 22.1064 105.852C22.5111 105.448 22.85 105.114 23.1229 104.85C23.3958 104.586 23.7077 104.353 24.0585 104.151C24.3206 103.776 24.6121 103.443 24.9328 103.151C25.2536 102.86 25.545 102.527 25.8072 102.152C26.0313 101.97 26.2274 101.766 26.3954 101.542C26.6088 101.248 26.7991 101.016 26.9662 100.845C27.3375 100.365 27.6533 99.9913 27.9136 99.7241C27.9842 99.6621 28.0547 99.6001 28.1252 99.5381C28.1958 99.4762 28.2571 99.3982 28.3092 99.3044C28.5781 98.9046 28.8847 98.5149 29.229 98.1354C29.5801 97.7307 29.8778 97.3993 30.1222 97.1413L30.9952 96.2227ZM40.1251 95.3529C39.7662 95.2837 39.4144 95.2636 39.0697 95.2925C38.7249 95.3215 38.3722 95.355 38.0115 95.3932C37.7648 95.408 37.5274 95.4387 37.2992 95.4854C37.0711 95.5321 36.8429 95.5788 36.6147 95.6255C36.3546 95.6906 36.1134 95.7608 35.891 95.836C35.6686 95.9112 35.4366 95.9973 35.1949 96.0943C35.1621 96.1664 35.1122 96.2272 35.045 96.2766C34.9779 96.326 34.9279 96.3867 34.8951 96.4588C34.5283 96.6706 34.2382 96.9231 34.0248 97.2164C33.9181 97.3631 33.7988 97.5064 33.667 97.6463C33.5477 97.7896 33.4238 97.9249 33.2954 98.0522C33.1509 98.1887 33.0128 98.327 32.8809 98.4669C32.7525 98.5942 32.6223 98.7278 32.4904 98.8678L31.7233 99.6934C31.5233 99.9364 31.3256 100.146 31.1299 100.323C30.915 100.522 30.7331 100.722 30.5844 100.925C30.0806 101.397 29.7556 101.754 29.6094 101.998C29.4901 102.142 29.3503 102.286 29.1899 102.432C29.0329 102.565 28.9023 102.725 28.7981 102.913C28.7367 102.991 28.6754 103.069 28.6141 103.147C28.5561 103.212 28.4902 103.282 28.4163 103.357C28.3424 103.431 28.2748 103.508 28.2135 103.586C28.1681 103.654 28.121 103.729 28.0723 103.811C28.011 103.889 27.9425 104.019 27.8668 104.2C27.7911 104.382 27.7225 104.512 27.6612 104.59C27.5932 104.693 27.5251 104.796 27.457 104.899C27.389 105.003 27.3146 105.104 27.234 105.204C27.1046 105.385 26.9554 105.614 26.7865 105.893C26.6228 106.051 26.4435 106.192 26.2488 106.315C26.0507 106.45 25.8874 106.582 25.7589 106.709C25.5967 106.962 25.4502 107.132 25.3192 107.218C25.2202 107.286 25.119 107.387 25.0157 107.521C24.82 107.698 24.6495 107.881 24.5042 108.071C24.3555 108.274 24.1817 108.47 23.9826 108.66L23.7522 108.84C23.701 108.881 23.6208 108.954 23.5116 109.059C23.415 109.168 23.31 109.308 23.1966 109.48L22.8613 109.977C22.8 110.055 22.7387 110.133 22.6774 110.211C22.6194 110.276 22.5552 110.34 22.4847 110.402C22.4141 110.464 22.3499 110.527 22.2919 110.593C22.2466 110.661 22.2012 110.73 22.1558 110.799C21.8762 111.088 21.6342 111.387 21.4301 111.696C21.3687 111.774 21.3074 111.852 21.2461 111.93C21.1973 112.011 21.1486 112.093 21.0999 112.174C21.0511 112.255 20.9961 112.335 20.9348 112.413C20.886 112.494 20.831 112.574 20.7697 112.652C20.5572 112.891 20.3942 113.097 20.2808 113.269C20.232 113.35 20.185 113.425 20.1396 113.494C20.0942 113.562 20.0488 113.631 20.0035 113.7L19.7073 114.126C19.5939 114.298 19.5203 114.447 19.4866 114.572C19.2415 114.682 19.1247 114.866 19.1362 115.126C19.151 115.372 19.0467 115.56 18.8235 115.689C19.2554 115.737 19.6031 115.722 19.8665 115.645C20.1459 115.558 20.4685 115.536 20.8341 115.581C21.1512 115.504 21.4135 115.405 21.6208 115.286C21.8759 115.138 22.175 115.104 22.5179 115.182C22.7529 115.111 22.9769 115.029 23.1901 114.938C23.4032 114.847 23.6101 114.754 23.8106 114.659C24.2311 114.448 24.6896 114.322 25.1862 114.28C25.4187 114.167 25.6495 114.06 25.8786 113.96C26.1236 113.85 26.3653 113.753 26.6036 113.669C27.0836 113.487 27.5318 113.223 27.9482 112.877C28.0749 112.857 28.2813 112.791 28.5675 112.678C28.7656 112.543 28.9574 112.406 29.1429 112.266C29.3284 112.127 29.511 111.974 29.6907 111.807C30.0315 111.642 30.3059 111.473 30.5142 111.299C30.7736 111.086 31.0573 110.933 31.3652 110.84C31.5139 110.637 31.7078 110.467 31.9471 110.329C32.0587 110.264 32.164 110.198 32.2631 110.13C32.3747 110.066 32.4817 109.993 32.5842 109.913C32.7185 109.814 32.8465 109.714 32.9682 109.611C33.0934 109.497 33.2185 109.382 33.3436 109.267C33.6131 109.016 33.8629 108.813 34.0929 108.659C34.3566 108.379 34.6186 108.106 34.8789 107.838C35.1518 107.575 35.4294 107.319 35.7115 107.071C36.2404 106.606 36.7523 106.029 37.2472 105.339C37.5864 105.079 37.8991 104.792 38.1855 104.478C38.4719 104.164 38.7252 103.848 38.9453 103.529C39.1845 103.391 39.3663 103.191 39.4908 102.927C39.6152 102.664 39.818 102.536 40.0989 102.544C40.3617 102.318 40.563 101.995 40.7027 101.574C40.7692 101.376 40.834 101.184 40.8972 100.999C40.9637 100.801 41.0348 100.611 41.1105 100.429C41.1727 100.298 41.203 100.185 41.2015 100.09C41.21 99.9572 41.2244 99.8533 41.2446 99.7778C41.2841 99.6805 41.3237 99.5833 41.3632 99.4861C41.4187 99.3796 41.4662 99.2777 41.5058 99.1805C41.6041 98.9642 41.6467 98.7802 41.6335 98.6283C41.5767 98.4379 41.5429 98.2873 41.5321 98.1766L41.521 97.9916C41.5078 97.8398 41.5197 97.6947 41.5568 97.5563C41.5586 97.449 41.5616 97.3622 41.5659 97.2959C41.5735 97.2171 41.5778 97.1508 41.5787 97.0971C41.5897 97.0057 41.5743 96.887 41.5326 96.741C41.4506 96.5438 41.4001 96.3551 41.381 96.1747C41.3678 96.0229 41.3105 95.8593 41.2092 95.6838C41.112 95.6443 41.0194 95.6127 40.9313 95.5891C40.8466 95.553 40.7603 95.5231 40.6722 95.4995L40.1251 95.3529ZM38.5692 112.932C38.7563 112.888 39.0081 112.753 39.3246 112.528C39.6444 112.29 39.9546 112.063 40.2551 111.847C40.559 111.618 40.7726 111.5 40.8959 111.493C41.0051 111.387 41.1029 111.299 41.1894 111.228C41.2759 111.157 41.3921 111.1 41.5381 111.058C41.837 110.748 42.1837 110.51 42.5781 110.346C42.9885 110.173 43.3788 109.974 43.7489 109.75C44.0148 109.714 44.2841 109.664 44.5568 109.603C44.842 109.544 45.126 109.465 45.4088 109.366C45.987 109.17 46.5796 109.147 47.1866 109.296C47.4296 109.496 47.6899 109.606 47.9675 109.627C48.2326 109.644 48.461 109.773 48.6527 110.013C48.7271 110.289 48.8015 110.464 48.8761 110.538C48.9506 110.611 49.0075 110.701 49.0468 110.806C49.0632 111.147 49.0831 111.375 49.1064 111.489C49.1423 111.606 49.1514 111.723 49.1337 111.84C49.0957 112.032 49.0645 112.199 49.04 112.341C49.0188 112.47 49.0028 112.58 48.9918 112.671C48.9605 112.838 48.9184 112.996 48.8654 113.143C48.6181 113.764 48.3204 114.372 47.9725 114.966C47.9271 115.035 47.8817 115.104 47.8363 115.172C47.791 115.241 47.7439 115.316 47.6952 115.398C47.601 115.548 47.4994 115.675 47.3902 115.781C47.1375 115.969 46.9533 116.129 46.8373 116.26C46.6702 116.43 46.5531 116.541 46.4859 116.59C46.2946 116.701 46.1129 116.8 45.9408 116.889C45.7813 116.981 45.6315 117.062 45.4914 117.132C45.3613 117.165 45.2296 117.204 45.0962 117.249C44.9661 117.281 44.8344 117.32 44.701 117.365C44.4501 117.446 44.1716 117.48 43.8655 117.465L43.4703 117.582C43.3369 117.627 43.1993 117.637 43.0576 117.613C42.7874 117.715 42.5005 117.78 42.1968 117.807C42.0576 117.823 41.912 117.838 41.7602 117.851C41.6209 117.868 41.4737 117.889 41.3185 117.915C41.1096 117.94 40.9225 117.984 40.7572 118.048C40.5919 118.111 40.3889 118.165 40.1481 118.208C40.0248 118.215 39.8306 118.21 39.5656 118.193C39.3165 118.167 39.135 118.166 39.0209 118.189C39.0792 118.474 39.0453 118.802 38.919 119.173C38.8121 119.521 38.7907 119.853 38.8549 120.167C39.1617 120.33 39.505 120.482 39.8848 120.624C40.2646 120.767 40.6373 120.86 41.0029 120.904C41.0692 120.908 41.1371 120.906 41.2067 120.898C41.2889 120.893 41.3711 120.888 41.4534 120.883C41.5356 120.878 41.6178 120.873 41.7 120.868C41.7822 120.863 41.8627 120.865 41.9415 120.872C42.2317 120.896 42.519 120.906 42.8033 120.901C43.0876 120.896 43.3473 120.858 43.5822 120.786C44.3791 120.73 45.1744 120.579 45.9681 120.334C46.7619 120.088 47.4777 119.781 48.1156 119.413C48.4714 119.292 48.8788 119.105 49.3379 118.851C49.797 118.596 50.1676 118.345 50.4497 118.097C50.9349 117.796 51.3524 117.57 51.7024 117.422C52.0523 117.273 52.3497 117.245 52.5945 117.337C52.7957 117.391 52.9586 117.563 53.0833 117.852C53.2079 118.142 53.1199 118.395 52.8194 118.611C52.54 118.697 52.2152 118.853 51.8451 119.077C51.4875 119.305 51.1409 119.441 50.8054 119.486C50.5545 119.567 50.1974 119.768 49.734 120.089C49.2899 120.388 48.9261 120.614 48.6424 120.767C48.5786 120.804 48.5068 120.845 48.4271 120.891C48.3474 120.937 48.255 120.98 48.1502 121.019C47.953 121.101 47.7855 121.198 47.6478 121.309C47.1703 121.532 46.7189 121.707 46.2935 121.836C46.1686 121.749 46.0487 121.744 45.9337 121.821C45.7834 121.929 45.6558 122.002 45.5509 122.042C45.5064 122.057 45.462 122.072 45.4175 122.087C45.373 122.102 45.3223 122.115 45.2652 122.127C45.2082 122.138 45.1574 122.152 45.1129 122.167C45.0685 122.182 45.024 122.197 44.9795 122.212C44.7311 122.334 44.4638 122.451 44.1777 122.563C43.8915 122.675 43.6058 122.761 43.3206 122.819C43.0286 122.902 42.74 122.973 42.4548 123.032C42.1661 123.103 41.8826 123.155 41.6041 123.188C41.3256 123.221 41.042 123.273 40.7534 123.344C40.4774 123.419 40.198 123.506 39.9152 123.605L39.485 123.55C39.4187 123.546 39.3542 123.536 39.2913 123.519C39.225 123.514 39.1588 123.51 39.0925 123.506C38.9407 123.519 38.8019 123.509 38.6761 123.475C38.5503 123.441 38.3999 123.374 38.2247 123.273C37.4552 122.825 36.8839 122.24 36.5107 121.52C36.4555 121.424 36.3922 121.333 36.321 121.247C36.2658 121.151 36.2026 121.06 36.1314 120.973C35.9706 120.769 35.8693 120.593 35.8276 120.447C35.7649 120.228 35.7309 119.902 35.7256 119.47C35.7076 119.033 35.7103 118.596 35.7334 118.157C35.76 117.706 35.8036 117.367 35.8642 117.141C35.9801 117.01 36.131 116.774 36.3167 116.433C36.5059 116.079 36.6808 115.729 36.8414 115.381C37.0054 115.02 37.1076 114.765 37.148 114.614C37.2118 114.577 37.3562 114.44 37.5813 114.204C37.7972 113.952 38.0067 113.698 38.21 113.442C38.4293 113.178 38.549 113.007 38.5692 112.932ZM45.291 112.145C45.0543 112.324 44.8209 112.491 44.5909 112.645C44.3609 112.799 44.1091 112.934 43.8355 113.049C43.6105 113.285 43.367 113.49 43.1051 113.662C42.8432 113.835 42.5847 113.994 42.3295 114.142C42.175 114.316 42.0197 114.443 41.8636 114.522C41.7075 114.602 41.5371 114.684 41.3525 114.77C41.1148 115.003 40.8428 115.213 40.5365 115.4C40.2301 115.588 40.1023 115.864 40.153 116.228C40.4162 116.352 40.703 116.389 41.0134 116.337C41.3238 116.285 41.5931 116.236 41.8213 116.189C41.9388 116.153 42.0546 116.124 42.1687 116.1C42.2953 116.081 42.4157 116.059 42.5298 116.035C42.6439 116.012 42.758 115.989 42.8721 115.965C42.9862 115.942 43.0957 115.911 43.2006 115.871L44.4445 115.153C44.6325 115.055 44.8272 114.932 45.0287 114.784C45.1152 114.713 45.2016 114.642 45.2881 114.571C45.3905 114.49 45.493 114.41 45.5954 114.329C45.7324 114.07 45.9021 113.839 46.1045 113.637C46.3228 113.426 46.4548 113.185 46.5004 112.914C46.5182 112.797 46.5095 112.653 46.4745 112.482C46.4395 112.311 46.4275 112.18 46.4385 112.088C46.1744 112.018 45.9676 112.009 45.8183 112.064C45.7419 112.097 45.6546 112.121 45.5565 112.135C45.4743 112.14 45.3858 112.143 45.291 112.145ZM57.4158 112.927C57.6305 112.93 57.7454 112.955 57.7605 112.999C57.7755 113.043 57.8208 113.076 57.8962 113.096C57.9598 113.261 57.9184 113.466 57.7722 113.71C57.5763 114.089 57.2974 114.425 56.9356 114.719C56.5737 115.013 56.2765 115.318 56.0438 115.633C55.9085 115.785 55.7847 115.921 55.6721 116.039C55.5755 116.148 55.4886 116.246 55.4113 116.333C55.3374 116.407 55.2619 116.488 55.1846 116.575C55.1199 116.666 55.0552 116.756 54.9905 116.847C54.7906 117.09 54.5823 117.364 54.3655 117.67C54.1487 117.976 53.9303 118.288 53.7102 118.607L53.3523 119.036C53.1524 119.279 52.9861 119.498 52.8533 119.691C52.7206 119.885 52.5978 120.142 52.485 120.462L52.2121 121.481C52.19 121.664 52.16 121.851 52.1221 122.043C52.0841 122.235 52.0444 122.434 52.0031 122.638C51.917 123.06 51.9078 123.421 51.9754 123.723C52.3302 123.656 52.7389 123.489 53.2014 123.222C53.4246 123.093 53.6303 122.98 53.8183 122.882C54.0222 122.775 54.2068 122.689 54.3722 122.626C54.6156 122.421 54.8729 122.241 55.144 122.085C55.4311 121.919 55.6792 121.722 55.8883 121.495C56.2575 121.325 56.5464 121.052 56.7548 120.676C56.9177 120.571 57.0793 120.446 57.2397 120.301C57.3261 120.229 57.4047 120.163 57.4752 120.101C57.5617 120.03 57.6481 119.958 57.7346 119.887C57.994 119.674 58.2418 119.403 58.4779 119.075C58.6106 118.882 58.696 118.689 58.734 118.497C58.7483 118.393 58.769 118.291 58.796 118.19C58.8229 118.089 58.8499 117.989 58.8769 117.888C58.9467 117.678 59.0417 117.474 59.1619 117.277C59.2594 117.114 59.3259 116.917 59.3614 116.683C59.416 116.631 59.4887 116.536 59.5794 116.398C59.6702 116.261 59.7462 116.153 59.8075 116.075C59.8915 115.963 60.0229 115.85 60.2017 115.736C60.3805 115.622 60.5496 115.519 60.7091 115.427C60.8275 115.337 60.9396 115.246 61.0454 115.153C61.1637 115.063 61.2758 114.972 61.3816 114.879C61.5772 114.702 61.8131 114.577 62.0891 114.503L62.5924 114.435C62.8047 114.398 62.9691 114.388 63.0857 114.406C63.2811 114.431 63.5478 114.442 63.8858 114.438C64.2398 114.425 64.4964 114.474 64.6556 114.584C64.7528 114.623 64.832 114.705 64.8931 114.829C64.9609 114.928 65.0695 114.951 65.2188 114.896C65.3628 115.164 65.4129 115.38 65.369 115.543C65.3286 115.694 65.2345 115.844 65.0867 115.993C64.8592 116.188 64.7324 116.309 64.7063 116.356C64.687 116.378 64.666 116.406 64.6433 116.441C64.624 116.462 64.6047 116.484 64.5853 116.506C64.2579 116.823 63.9203 117.177 63.5725 117.569C63.2248 117.961 62.9216 118.338 62.6628 118.7C62.8807 118.894 63.1988 119.039 63.6172 119.138C64.0356 119.237 64.4185 119.292 64.7657 119.304C64.8194 119.305 64.8667 119.304 64.9078 119.302C64.9615 119.303 65.0152 119.304 65.0689 119.305C65.1226 119.306 65.17 119.305 65.2111 119.302C65.2647 119.303 65.3184 119.304 65.3721 119.305C65.5491 119.299 65.8061 119.32 66.1432 119.37C66.4175 119.403 66.6813 119.4 66.9346 119.36C67.2643 119.286 67.4606 119.258 67.5235 119.275C67.6115 119.298 67.7063 119.297 67.8078 119.27C68.0637 119.271 68.3006 119.267 68.5187 119.258C68.7368 119.249 68.936 119.235 69.1164 119.216C69.2111 119.215 69.3059 119.213 69.4007 119.212C69.4988 119.198 69.5987 119.177 69.7002 119.15C69.9032 119.097 70.0718 119.122 70.2059 119.225C70.2427 119.289 70.238 119.382 70.1917 119.505C70.1488 119.614 70.1465 119.749 70.1849 119.907C69.9399 120.017 69.7687 120.052 69.6715 120.012C69.4433 120.059 69.2105 120.098 68.9731 120.128C68.7357 120.159 68.4857 120.186 68.2232 120.21L66.7573 120.323C66.4184 120.381 66.202 120.383 66.1081 120.331C66.0268 120.283 65.9086 120.271 65.7534 120.297C65.2878 120.374 64.8923 120.417 64.5668 120.424C64.295 120.432 64.0514 120.461 63.8357 120.511C63.7149 120.559 63.6306 120.598 63.5827 120.625C63.503 120.671 63.4094 120.693 63.3021 120.691C62.8542 120.652 62.4811 120.586 62.1826 120.493C61.8715 120.396 61.5226 120.39 61.1359 120.475C61.02 120.606 60.8738 120.749 60.6975 120.904C60.5212 121.058 60.3407 121.179 60.1561 121.264C59.9629 121.482 59.7736 121.66 59.588 121.799C59.4025 121.938 59.1948 122.085 58.9648 122.239C58.6844 122.379 58.4008 122.533 58.1137 122.698C57.8267 122.864 57.5556 123.021 57.3004 123.168C56.7932 123.652 56.2412 124.077 55.6445 124.443C55.0477 124.809 54.4337 125.163 53.8025 125.506C53.6734 125.485 53.5388 125.51 53.3986 125.58C53.2903 125.632 53.1523 125.669 52.9846 125.691C52.8076 125.698 52.6654 125.7 52.558 125.699C52.4599 125.713 52.3966 125.723 52.368 125.728C52.3143 125.728 52.2288 125.745 52.1113 125.781C51.915 125.809 51.7644 125.843 51.6595 125.882C51.5706 125.912 51.5022 125.941 51.4543 125.969C51.378 126.002 51.2958 126.007 51.2077 125.984C51.1449 125.967 51.0685 126 50.9786 126.084C50.6811 125.937 50.4823 125.924 50.3823 126.046C50.2817 126.019 50.1777 126.004 50.0704 126.003C49.9882 126.007 49.9001 125.984 49.8063 125.932C49.7476 125.849 49.7062 125.777 49.682 125.716C49.6519 125.628 49.623 125.559 49.5954 125.511C49.2585 125.259 49.0759 125.035 49.0477 124.839C49.0102 124.627 48.934 124.458 48.8193 124.333C48.7769 124.038 48.7886 123.718 48.8544 123.372C48.8823 123.217 48.9101 123.063 48.938 122.909C48.9692 122.742 48.9942 122.573 49.0128 122.403C49.0137 122.349 49.013 122.302 49.0105 122.261C49.0114 122.207 49.0123 122.154 49.0132 122.1C49.0141 122.046 49.0133 121.999 49.0108 121.958C49.0117 121.904 49.0127 121.85 49.0136 121.797C49.0172 121.582 49.0522 121.376 49.1187 121.178C49.1818 120.992 49.2043 120.783 49.1862 120.549C49.4198 120.18 49.5368 119.793 49.5373 119.389C49.6348 119.227 49.76 119.011 49.913 118.742C50.066 118.473 50.182 118.241 50.2611 118.046C50.4655 117.535 50.6778 117.12 50.8979 116.802C51.1306 116.487 51.4561 116.102 51.8743 115.648C52.0356 115.448 52.2095 115.252 52.3959 115.06C52.4891 114.963 52.5823 114.867 52.6755 114.771C52.7721 114.662 52.8687 114.553 52.9653 114.444C53.0619 114.335 53.1392 114.248 53.1971 114.182C53.271 114.108 53.3193 114.053 53.342 114.019C53.4159 113.945 53.5347 113.828 53.6985 113.67L53.9781 113.381C54.0873 113.275 54.2056 113.186 54.3332 113.112C54.5884 112.965 54.8192 112.858 55.0256 112.792C55.232 112.726 55.4778 112.664 55.763 112.605C55.9885 112.72 56.3085 112.758 56.7229 112.721C57.1372 112.684 57.3682 112.752 57.4158 112.927ZM65.8491 120.242C66.0361 120.197 66.2879 120.063 66.6044 119.837C66.9243 119.6 67.2344 119.373 67.535 119.157C67.8389 118.928 68.0525 118.81 68.1758 118.803C68.2849 118.697 68.3828 118.609 68.4692 118.537C68.5557 118.466 68.6719 118.41 68.8179 118.368C69.1169 118.057 69.4636 117.82 69.858 117.656C70.2684 117.483 70.6586 117.284 71.0288 117.06C71.2947 117.023 71.564 116.974 71.8367 116.912C72.1219 116.854 72.4059 116.775 72.6887 116.675C73.2668 116.48 73.8594 116.457 74.4665 116.606C74.7095 116.806 74.9698 116.916 75.2474 116.936C75.5124 116.954 75.7408 117.082 75.9326 117.322C76.0069 117.598 76.0814 117.773 76.1559 117.847C76.2305 117.921 76.2874 118.01 76.3267 118.115C76.3431 118.457 76.3629 118.684 76.3863 118.799C76.4222 118.916 76.4313 119.033 76.4135 119.15C76.3756 119.342 76.3443 119.509 76.3198 119.65C76.2987 119.779 76.2826 119.89 76.2716 119.981C76.2404 120.148 76.1983 120.305 76.1452 120.453C75.8979 121.074 75.6003 121.682 75.2523 122.276C75.2069 122.345 75.1616 122.413 75.1162 122.482C75.0708 122.551 75.0238 122.626 74.975 122.707C74.8809 122.857 74.7793 122.985 74.6701 123.09C74.4174 123.279 74.2331 123.438 74.1172 123.569C73.9501 123.74 73.833 123.85 73.7658 123.9C73.5744 124.01 73.3927 124.11 73.2207 124.198C73.0612 124.29 72.9114 124.372 72.7712 124.442C72.6412 124.475 72.5095 124.513 72.376 124.558C72.246 124.591 72.1143 124.63 71.9809 124.675C71.73 124.756 71.4515 124.789 71.1453 124.775L70.7502 124.891C70.6167 124.936 70.4792 124.947 70.3375 124.922C70.0673 125.025 69.7803 125.09 69.4767 125.116C69.3374 125.133 69.1919 125.148 69.04 125.161C68.9008 125.178 68.7536 125.199 68.5984 125.225C68.3895 125.249 68.2024 125.294 68.0371 125.357C67.8718 125.421 67.6687 125.474 67.428 125.518C67.3047 125.525 67.1105 125.52 66.8455 125.503C66.5964 125.477 66.4148 125.475 66.3007 125.499C66.3591 125.784 66.3251 126.112 66.1989 126.482C66.092 126.831 66.0706 127.162 66.1348 127.476C66.4416 127.639 66.7849 127.792 67.1646 127.934C67.5444 128.076 67.9171 128.169 68.2828 128.213C68.349 128.218 68.417 128.216 68.4866 128.207C68.5688 128.202 68.651 128.198 68.7332 128.193C68.8154 128.188 68.8976 128.183 68.9798 128.178C69.062 128.173 69.1425 128.174 69.2214 128.182C69.5116 128.206 69.7988 128.215 70.0832 128.211C70.3675 128.206 70.6271 128.168 70.8621 128.096C71.6589 128.04 72.4543 127.889 73.248 127.643C74.0417 127.398 74.7576 127.091 75.3955 126.722C75.7512 126.602 76.1587 126.415 76.6178 126.16C77.0769 125.906 77.4475 125.655 77.7296 125.407C78.2147 125.105 78.6323 124.88 78.9822 124.731C79.3322 124.582 79.6295 124.554 79.8743 124.647C80.0756 124.701 80.2385 124.872 80.3631 125.162C80.4877 125.451 80.3998 125.704 80.0993 125.92C79.8199 126.007 79.4951 126.163 79.1249 126.387C78.7673 126.615 78.4208 126.751 78.0852 126.796C77.8343 126.877 77.4772 127.078 77.0138 127.399C76.5698 127.697 76.2059 127.924 75.9222 128.077C75.8585 128.113 75.7867 128.155 75.707 128.201C75.6272 128.247 75.5349 128.29 75.43 128.329C75.2328 128.411 75.0654 128.508 74.9277 128.619C74.4502 128.842 73.9987 129.017 73.5733 129.146C73.4484 129.058 73.3285 129.053 73.2135 129.13C73.0632 129.238 72.9357 129.312 72.8308 129.351C72.7863 129.366 72.7418 129.381 72.6974 129.396C72.6529 129.411 72.6021 129.425 72.5451 129.436C72.488 129.448 72.4373 129.461 72.3928 129.476C72.3483 129.492 72.3039 129.507 72.2594 129.522C72.011 129.644 71.7437 129.761 71.4575 129.873C71.1714 129.985 70.8857 130.07 70.6005 130.129C70.3085 130.212 70.0199 130.283 69.7346 130.341C69.446 130.412 69.1624 130.464 68.8839 130.498C68.6054 130.531 68.3219 130.583 68.0333 130.654C67.7572 130.728 67.4778 130.815 67.195 130.915L66.7648 130.86C66.6986 130.856 66.634 130.845 66.5711 130.828C66.5049 130.824 66.4386 130.82 66.3724 130.815C66.2205 130.829 66.0817 130.818 65.956 130.785C65.8302 130.751 65.6797 130.684 65.5045 130.583C64.7351 130.134 64.1638 129.55 63.7906 128.83C63.7353 128.734 63.6721 128.643 63.6009 128.556C63.5457 128.461 63.4824 128.37 63.4113 128.283C63.2505 128.078 63.1492 127.903 63.1074 127.757C63.0448 127.538 63.0108 127.212 63.0054 126.779C62.9875 126.343 62.9901 125.906 63.0133 125.467C63.0398 125.016 63.0834 124.677 63.1441 124.451C63.26 124.32 63.4108 124.084 63.5966 123.743C63.7857 123.389 63.9606 123.038 64.1212 122.69C64.2852 122.33 64.3874 122.074 64.4279 121.923C64.4917 121.886 64.6361 121.75 64.8612 121.514C65.077 121.261 65.2866 121.008 65.4899 120.752C65.7091 120.487 65.8288 120.317 65.8491 120.242ZM72.5709 119.455C72.3341 119.634 72.1008 119.8 71.8708 119.954C71.6408 120.108 71.389 120.243 71.1154 120.359C70.8903 120.595 70.6469 120.799 70.385 120.972C70.1231 121.144 69.8645 121.304 69.6094 121.451C69.4548 121.626 69.2995 121.753 69.1434 121.832C68.9873 121.912 68.817 121.994 68.6323 122.079C68.3947 122.312 68.1227 122.522 67.8163 122.71C67.5099 122.897 67.3821 123.173 67.4329 123.537C67.6961 123.662 67.9829 123.698 68.2933 123.646C68.6037 123.595 68.873 123.546 69.1012 123.499C69.2186 123.463 69.3344 123.433 69.4485 123.41C69.5752 123.39 69.6956 123.368 69.8097 123.345C69.9238 123.322 70.0379 123.298 70.152 123.275C70.2661 123.252 70.3756 123.22 70.4804 123.181L71.7243 122.463C71.9123 122.365 72.1071 122.242 72.3085 122.094C72.395 122.023 72.4815 121.951 72.568 121.88C72.6704 121.8 72.7728 121.719 72.8752 121.639C73.0123 121.379 73.182 121.148 73.3843 120.946C73.6027 120.735 73.7346 120.494 73.7803 120.223C73.798 120.107 73.7894 119.963 73.7544 119.792C73.7193 119.621 73.7073 119.489 73.7183 119.398C73.4542 119.327 73.2475 119.319 73.0981 119.373C73.0218 119.407 72.9345 119.431 72.8363 119.445C72.7541 119.45 72.6656 119.453 72.5709 119.455ZM90.3375 126.197C90.5722 126.327 90.731 126.464 90.8138 126.607C90.8783 126.719 90.8954 126.831 90.865 126.945C90.5896 127.167 90.4213 127.318 90.36 127.396C90.2987 127.474 90.1984 127.521 90.0591 127.537C89.8282 127.745 89.5881 127.937 89.3388 128.113C89.1054 128.279 88.8549 128.435 88.5871 128.579C88.0961 128.852 87.5963 129.183 87.0875 129.572C86.8802 129.692 86.7333 129.787 86.6468 129.858C86.5604 129.93 86.4135 130.025 86.2062 130.145C85.847 130.278 85.5365 130.43 85.2746 130.603C85.1277 130.698 84.9762 130.786 84.8201 130.865C84.6799 130.936 84.5335 131.004 84.3808 131.071C84.3044 131.105 84.228 131.138 84.1517 131.171C84.0913 131.196 84.0229 131.225 83.9465 131.258C83.8827 131.295 83.8126 131.33 83.7363 131.363C83.6599 131.397 83.5818 131.437 83.5021 131.483C83.3745 131.556 83.2344 131.627 83.0816 131.694C83.0212 131.718 82.9528 131.747 82.8765 131.78C82.816 131.804 82.7477 131.833 82.6713 131.867C82.4732 132.002 82.2751 132.138 82.077 132.274C81.8789 132.409 81.6774 132.557 81.4725 132.718C81.1747 132.773 80.8827 132.857 80.5966 132.969C80.3264 133.072 80.0218 133.152 79.6829 133.209C79.5369 133.251 79.3854 133.338 79.2284 133.472C79.0874 133.596 78.9141 133.664 78.7086 133.676C78.4871 133.698 78.2682 133.659 78.052 133.561C77.8357 133.462 77.6622 133.355 77.5315 133.239C77.3983 133.082 77.3145 132.993 77.2802 132.97C77.1863 132.918 77.1268 132.888 77.1016 132.882C76.9537 132.478 76.8862 132.076 76.8993 131.675C76.9029 131.46 76.9002 131.244 76.8912 131.026C76.8949 130.811 76.8939 130.588 76.8883 130.358C76.8717 130.218 76.8693 130.076 76.8812 129.931C76.8931 129.786 76.9101 129.622 76.9321 129.439L76.9564 129.122C76.9573 129.068 76.9582 129.015 76.9591 128.961C76.9634 128.895 76.9614 128.827 76.9531 128.757C76.9365 128.618 76.9216 128.472 76.9083 128.321C76.8951 128.169 76.8961 128.014 76.9114 127.856C76.942 127.541 77.0023 127.24 77.0924 126.955C77.1825 126.669 77.2897 126.394 77.4142 126.131C77.7875 125.341 78.2199 124.608 78.7114 123.931C79.2029 123.254 79.6906 122.616 80.1744 122.018C80.3215 121.72 80.4547 121.5 80.574 121.356C80.6933 121.213 80.8357 121.009 81.0012 120.743C81.1515 120.635 81.2935 120.457 81.4271 120.21C81.4826 120.103 81.5381 119.997 81.5936 119.891C81.6616 119.787 81.7297 119.684 81.7978 119.581C81.8625 119.491 81.9334 119.402 82.0107 119.315C82.0913 119.215 82.1737 119.109 82.2577 118.997C82.419 118.797 82.5631 118.587 82.69 118.365C82.8555 118.099 82.9921 117.866 83.0997 117.666C83.1585 117.546 83.222 117.435 83.2901 117.332C83.3707 117.233 83.4497 117.139 83.5269 117.052C83.6983 116.815 83.8617 116.582 84.0172 116.354C84.1852 116.13 84.3452 115.91 84.4973 115.694C84.6494 115.479 84.8014 115.264 84.9535 115.048C85.1182 114.836 85.2828 114.624 85.4475 114.412C85.4928 114.344 85.5382 114.275 85.5836 114.206C85.629 114.137 85.6743 114.069 85.7197 114C85.8071 113.875 85.9196 113.757 86.0573 113.646C86.1674 113.486 86.2656 113.371 86.3521 113.3C86.4932 113.176 86.6007 113.077 86.6746 113.002C86.7116 112.864 86.7809 112.781 86.8824 112.755C86.9554 112.734 87.0465 112.67 87.1557 112.565C87.3513 112.388 87.4996 112.212 87.6004 112.037C87.7013 111.862 87.8495 111.686 88.0452 111.509L88.6496 111.065C88.6882 111.021 88.7269 110.977 88.7655 110.934C88.8041 110.89 88.8428 110.847 88.8814 110.803C88.9713 110.719 89.0703 110.652 89.1786 110.6C89.5892 110.224 90.0123 109.852 90.4481 109.484L91.851 108.323C92.1718 108.032 92.5126 107.766 92.8736 107.525C93.2345 107.285 93.6064 107.055 93.9891 106.834C94.1234 106.735 94.28 106.628 94.4588 106.515C94.6376 106.401 94.8058 106.351 94.9634 106.367C95.2092 106.406 95.454 106.498 95.6979 106.644C95.7396 106.79 95.7734 106.941 95.7992 107.096C95.825 107.251 95.8395 107.424 95.8426 107.613C95.684 108.407 95.4566 109.154 95.1606 109.857C94.8645 110.559 94.5592 111.246 94.2447 111.917C94.1757 112.073 94.1374 112.191 94.1298 112.27C94.1222 112.349 94.0838 112.467 94.0149 112.623C93.9241 112.761 93.809 112.939 93.6695 113.158C93.53 113.376 93.4082 113.58 93.3039 113.767C93.2129 114.107 93.0532 114.401 92.8248 114.65C92.5997 114.886 92.425 115.136 92.3005 115.399C92.2116 115.429 92.1456 115.499 92.1027 115.609C92.0598 115.719 91.9939 115.789 91.905 115.819C91.7646 116.091 91.6154 116.321 91.4575 116.508C91.2837 116.704 91.1287 116.905 90.9925 117.111C90.7331 117.325 90.4754 117.532 90.2193 117.733C89.9633 117.934 89.7009 118.133 89.4323 118.331C89.167 118.516 88.9047 118.715 88.6452 118.929C88.4017 119.133 88.1566 119.344 87.9097 119.561C87.2909 120.11 86.6634 120.615 86.027 121.079C85.3907 121.542 84.7631 122.047 84.1443 122.596C83.7079 122.816 83.347 123.056 83.0615 123.317C82.7567 123.599 82.3831 123.836 81.9409 124.028C81.8106 124.262 81.677 124.51 81.5399 124.77C81.4155 125.033 81.2831 125.301 81.1427 125.573C81.0148 125.849 80.879 126.129 80.7353 126.414C80.5915 126.699 80.4477 126.984 80.304 127.269C80.2476 127.429 80.1644 127.589 80.0543 127.748C80.0056 127.83 79.9568 127.911 79.9081 127.992C79.8627 128.061 79.8156 128.136 79.7669 128.217C79.6694 128.38 79.5995 128.59 79.5573 128.848C79.5092 129.078 79.4142 129.282 79.2722 129.46C79.283 129.57 79.2757 129.723 79.2503 129.919C79.219 130.086 79.2243 130.242 79.2661 130.388C79.3438 130.652 79.4644 130.805 79.6279 130.849C79.8435 130.799 79.9559 130.782 79.9651 130.798C79.9743 130.814 80.0137 130.818 80.0833 130.809C80.2293 130.767 80.3821 130.701 80.5415 130.608C80.701 130.516 80.8445 130.434 80.9721 130.36C81.1273 130.334 81.2368 130.303 81.3006 130.266C81.3484 130.238 81.4328 130.2 81.5536 130.152C81.6426 130.122 81.7218 130.102 81.7915 130.094C81.8611 130.086 81.9278 130.063 81.9916 130.026C82.4574 129.747 82.8728 129.555 83.2378 129.45C83.6154 129.349 83.9418 129.188 84.2172 128.965L85.0076 128.732C85.1662 128.693 85.3269 128.622 85.4897 128.517C85.64 128.409 85.8133 128.341 86.0096 128.313C86.112 128.232 86.1791 128.183 86.211 128.164C86.2429 128.146 86.3101 128.097 86.4125 128.016C86.5904 127.956 86.7683 127.896 86.9462 127.836C87.1241 127.776 87.2957 127.714 87.461 127.65C87.6263 127.587 87.7979 127.525 87.9758 127.465C88.1662 127.408 88.3567 127.351 88.5471 127.294C88.6312 127.182 88.7399 127.103 88.8733 127.058C89.0067 127.013 89.1212 126.963 89.2169 126.907C89.3126 126.852 89.3974 126.787 89.4713 126.713C89.5612 126.629 89.6644 126.596 89.7809 126.614C89.8238 126.504 89.904 126.431 90.0215 126.395C90.1389 126.359 90.2443 126.293 90.3375 126.197ZM92.0711 111.577L92.0334 111.567C91.7935 111.556 91.6059 111.627 91.4707 111.78C91.3355 111.932 91.1998 112.112 91.0637 112.318C90.9864 112.405 90.9125 112.48 90.842 112.542C90.7841 112.607 90.7358 112.661 90.6971 112.705C90.6232 112.78 90.5639 112.925 90.5192 113.143C89.9574 113.68 89.4095 114.24 88.8753 114.825C88.3446 115.398 87.8213 115.992 87.3056 116.609C86.8024 117.229 86.2913 117.853 85.7722 118.483C85.2565 119.099 84.7391 119.722 84.22 120.352C84.8738 119.974 85.5072 119.497 86.1202 118.92C86.4284 118.625 86.7361 118.357 87.0434 118.116C87.3632 117.878 87.6763 117.665 87.9827 117.478C88.2733 117.097 88.5669 116.731 88.8634 116.379C89.1725 116.031 89.4828 115.703 89.7943 115.395C90.3981 114.802 90.9492 114.053 91.4477 113.149C91.4313 112.807 91.5164 112.54 91.7028 112.348C91.8892 112.155 92.012 111.898 92.0711 111.577ZM107.588 128.676C107.711 128.722 107.779 128.794 107.793 128.892C107.811 128.978 107.87 129.034 107.97 129.061C107.957 129.314 107.861 129.47 107.683 129.53C107.508 129.578 107.419 129.709 107.416 129.924C107.149 130.014 106.847 130.034 106.51 129.984C106.16 129.931 105.873 129.995 105.649 130.178C105.152 130.274 104.657 130.283 104.166 130.205C103.92 130.166 103.658 130.137 103.381 130.116C103.119 130.087 102.849 130.061 102.572 130.041C102.245 130.156 102.048 130.211 101.982 130.206C101.89 130.195 101.786 130.208 101.668 130.244C101.431 130.072 101.181 129.951 100.916 129.881C100.652 129.81 100.386 129.698 100.117 129.545C99.9648 129.558 99.8134 129.545 99.6625 129.504C99.5116 129.464 99.3602 129.45 99.2084 129.463C99.0471 129.663 98.9361 129.876 98.8755 130.102C98.8114 130.341 98.713 130.557 98.5803 130.751L98.2326 131.143L98.0799 131.486C98.0143 131.63 97.9509 131.742 97.8896 131.819C97.819 131.881 97.7388 131.954 97.649 132.038C97.5591 132.122 97.4974 132.227 97.4637 132.352C97.2269 132.532 97.0388 132.731 96.8993 132.949C96.7497 133.206 96.5524 133.389 96.3074 133.498C96.1611 133.742 95.9877 133.912 95.7871 134.006C95.5832 134.113 95.3788 134.247 95.174 134.408C94.7962 134.711 94.4633 134.972 94.1753 135.192C93.8874 135.411 93.5404 135.574 93.1343 135.681C92.9546 135.849 92.7666 135.947 92.5703 135.975C92.4108 136.067 92.2765 136.166 92.1673 136.271L91.2914 136.522C90.939 136.63 90.616 136.678 90.3225 136.667C89.8679 136.653 89.4562 136.529 89.0874 136.295C88.7187 136.062 88.3885 135.785 88.097 135.464C87.8513 135.425 87.6807 135.332 87.5853 135.185C87.4865 135.051 87.3386 134.924 87.1416 134.803C86.9324 134.478 86.6912 134.17 86.4181 133.882C86.1358 133.577 85.971 133.236 85.9236 132.859L85.9762 131.984C85.9933 131.719 86.0041 131.452 86.0086 131.184C86.0156 130.956 86.0734 130.716 86.1819 130.462C86.2803 130.245 86.3539 129.996 86.4029 129.712C86.44 129.574 86.4737 129.448 86.504 129.335C86.5377 129.209 86.5601 129.101 86.5711 129.009C86.6091 128.817 86.728 128.6 86.9279 128.357C87.0472 128.213 87.1505 128.079 87.2379 127.954C87.3253 127.829 87.395 127.72 87.4472 127.626C87.4993 127.532 87.5497 127.445 87.5984 127.363C87.6506 127.27 87.6993 127.188 87.7447 127.12C87.7993 127.067 87.8538 127.014 87.9084 126.961C87.9664 126.896 88.0243 126.831 88.0823 126.765C88.1402 126.7 88.1965 126.641 88.2511 126.588C88.3216 126.526 88.3905 126.47 88.4576 126.421C88.6692 126.235 88.9059 126.056 89.1678 125.883C89.4297 125.711 89.6883 125.551 89.9434 125.404C90.1323 125.252 90.3145 125.126 90.4899 125.024C90.7769 124.859 91.0413 124.727 91.283 124.63C91.5246 124.533 91.805 124.393 92.1239 124.208C92.1944 124.146 92.2742 124.1 92.3631 124.07L92.6299 123.98C92.9219 123.897 93.1883 123.833 93.4291 123.79C93.6698 123.746 93.9454 123.699 94.2558 123.647C94.5251 123.598 94.7386 123.581 94.8963 123.597C95.0036 123.598 95.1093 123.606 95.2133 123.621C95.3332 123.626 95.4594 123.633 95.592 123.641L96.0447 123.763C96.1831 123.8 96.3156 123.808 96.4423 123.788C96.4207 123.567 96.5458 123.452 96.8176 123.444C97.0894 123.436 97.2848 123.461 97.4038 123.52C97.6553 123.588 97.8414 123.698 97.962 123.852C98.0826 124.005 98.1856 124.175 98.2709 124.359C98.4753 124.603 98.6812 124.941 98.8887 125.374C98.9347 125.454 98.9875 125.508 99.047 125.538C99.1065 125.567 99.1593 125.622 99.2053 125.702C99.2655 125.879 99.2976 126.036 99.3016 126.172C99.2989 126.333 99.3436 126.493 99.4357 126.653C99.4977 126.723 99.5563 126.807 99.6115 126.902C99.6668 126.998 99.6901 127.112 99.6816 127.245C99.9187 127.416 100.137 127.555 100.338 127.663C100.438 127.744 100.566 127.792 100.724 127.807C100.869 127.819 101.026 127.861 101.196 127.933C101.305 127.976 101.41 128.038 101.51 128.119C101.6 128.183 101.708 128.233 101.834 128.266C102.026 128.304 102.247 128.309 102.497 128.282C102.731 128.264 102.98 128.317 103.243 128.442C103.597 128.631 104.003 128.699 104.462 128.647C104.924 128.582 105.376 128.582 105.817 128.646C105.943 128.68 106.032 128.697 106.086 128.698C106.14 128.699 106.23 128.716 106.355 128.75C106.508 128.683 106.692 128.651 106.907 128.655C107.121 128.658 107.349 128.665 107.588 128.676ZM96.4939 126.916C96.303 126.622 96.1971 126.439 96.1762 126.366C96.1461 126.277 96.1139 126.221 96.0796 126.199C95.9967 126.055 95.8878 125.958 95.7528 125.909C95.6807 125.876 95.6086 125.843 95.5365 125.81C95.477 125.781 95.4175 125.752 95.358 125.722C94.9757 125.539 94.6306 125.493 94.3227 125.586C94.1733 125.641 94.0194 125.687 93.8608 125.725C93.7148 125.767 93.5688 125.809 93.4228 125.851C92.953 125.994 92.5165 126.214 92.1136 126.511C92.0044 126.616 91.8856 126.733 91.7571 126.86C91.6286 126.987 91.5157 127.132 91.4182 127.295C91.2636 127.469 91.1267 127.628 91.0075 127.771C90.8882 127.915 90.7731 128.093 90.6621 128.306C90.4723 128.511 90.3412 128.698 90.2689 128.868C90.2327 128.952 90.1982 129.031 90.1654 129.103C90.136 129.162 90.1066 129.222 90.0772 129.281C90.0309 129.404 89.9766 129.531 89.9144 129.662C89.8556 129.781 89.795 129.907 89.7328 130.038C89.5856 130.336 89.4902 130.566 89.4464 130.73C89.4513 130.812 89.4621 130.923 89.4787 131.062C89.4953 131.201 89.522 131.303 89.5588 131.367C89.5754 131.506 89.595 131.659 89.6174 131.827C89.6399 131.995 89.6661 132.123 89.6962 132.212C89.7874 132.425 89.9206 132.582 90.0957 132.683C90.1896 132.735 90.2881 132.795 90.3912 132.864C90.4976 132.919 90.6087 132.982 90.7243 133.054C90.9606 133.279 91.1324 133.392 91.2398 133.394C91.3723 133.403 91.4511 133.41 91.4763 133.417C91.8327 133.445 92.159 133.384 92.4553 133.235C92.723 133.091 93.0218 132.982 93.3515 132.909C93.4925 132.785 93.6353 132.654 93.7797 132.518C93.9367 132.385 94.1 132.253 94.2696 132.123C94.4425 131.981 94.6012 131.842 94.7457 131.705C94.906 131.559 95.0601 131.412 95.2079 131.263C95.291 131.204 95.3842 131.108 95.4876 130.974C95.5296 130.917 95.5699 130.868 95.6085 130.824C95.6505 130.768 95.6908 130.718 95.7295 130.674C95.9629 130.508 96.0749 130.417 96.0657 130.401C96.0565 130.385 96.0729 130.349 96.1149 130.292C96.3795 129.959 96.5325 129.69 96.5738 129.485C96.6152 129.281 96.6691 129.079 96.7356 128.882C96.7098 128.726 96.6919 128.567 96.6821 128.402C96.6722 128.238 96.664 128.067 96.6575 127.89C96.6479 127.524 96.5934 127.199 96.4939 126.916ZM111.688 136.77C112.149 136.759 112.607 136.76 113.062 136.774C113.516 136.788 113.977 136.831 114.443 136.902C114.852 136.985 115.287 137.02 115.749 137.009L116.322 136.981C116.417 136.979 116.506 136.976 116.588 136.971C116.686 136.957 116.776 136.947 116.858 136.943C117.048 136.939 117.23 136.941 117.403 136.947C117.577 136.953 117.73 136.96 117.862 136.969C118.023 137.174 118.096 137.281 118.08 137.29C118.064 137.299 118.074 137.336 118.111 137.4L117.668 137.847C117.547 137.895 117.414 137.914 117.269 137.902C117.139 137.881 116.997 137.883 116.842 137.909C116.696 137.951 116.607 137.981 116.575 137.999C116.496 138.045 116.435 138.069 116.394 138.072C116.274 138.067 116.194 138.038 116.154 137.987C116.092 137.917 116.044 137.87 116.009 137.847C115.285 138.085 114.519 138.176 113.712 138.121C112.866 138.057 112.074 138.046 111.334 138.091C111.049 138.149 110.762 138.214 110.473 138.285C110.184 138.356 109.878 138.442 109.554 138.544C109.245 138.893 108.858 139.207 108.392 139.486C107.926 139.766 107.467 139.994 107.016 140.169C106.895 140.218 106.798 140.252 106.725 140.273C106.668 140.285 106.617 140.298 106.573 140.313C106.541 140.332 106.511 140.344 106.482 140.35C106.384 140.364 106.281 140.37 106.174 140.368C106.063 140.379 105.954 140.383 105.847 140.382C105.74 140.38 105.632 140.378 105.525 140.376C105.418 140.374 105.316 140.374 105.222 140.376C105.03 140.486 104.884 140.528 104.784 140.501C104.613 140.483 104.469 140.417 104.351 140.304C104.211 140.173 104.061 140.078 103.901 140.022C103.836 139.762 103.803 139.585 103.801 139.49C103.793 139.42 103.754 139.363 103.686 139.317C103.69 139.049 103.609 138.771 103.444 138.484C103.287 138.213 103.181 137.928 103.126 137.631C103.103 137.517 103.088 137.398 103.08 137.275C103.073 137.151 103.083 137.039 103.11 136.939C103.209 136.669 103.386 136.46 103.641 136.313C103.896 136.165 104.142 136.056 104.376 135.984C104.467 136.251 104.575 136.374 104.702 136.354C104.829 136.334 104.936 136.309 105.025 136.279C105.123 136.265 105.239 136.262 105.371 136.271L105.632 136.28C106.033 136.293 106.455 136.325 106.9 136.377C107.183 136.426 107.395 136.49 107.536 136.568C107.715 136.656 107.918 136.704 108.145 136.711C108.331 136.518 108.546 136.346 108.788 136.196C109.031 136.045 109.264 135.905 109.487 135.776C109.694 135.508 109.945 135.225 110.241 134.927C110.536 134.628 110.828 134.343 111.117 134.07L111.639 133.482C111.703 133.445 111.76 133.406 111.811 133.366C111.863 133.326 111.927 133.262 112.004 133.175C112.108 132.987 112.179 132.797 112.217 132.605C112.255 132.413 112.292 132.201 112.328 131.968C112.126 131.765 111.937 131.513 111.762 131.21C111.595 131.232 111.45 131.193 111.328 131.093C111.207 130.993 111.062 130.955 110.894 130.977C110.816 130.969 110.73 130.987 110.638 131.03C110.593 131.045 110.543 131.058 110.485 131.07C110.441 131.085 110.39 131.098 110.333 131.11C110.073 131.175 109.798 131.222 109.506 131.252C109.219 131.269 108.971 131.365 108.763 131.538C108.587 131.639 108.426 131.738 108.279 131.833C108.136 131.916 108.006 131.996 107.891 132.073C107.776 132.15 107.653 132.232 107.522 132.318C107.407 132.395 107.284 132.477 107.153 132.563C107.001 132.63 106.87 132.689 106.762 132.741C106.67 132.784 106.604 132.827 106.566 132.87C106.511 132.923 106.436 132.977 106.34 133.032C106.244 133.088 106.149 133.143 106.053 133.198C105.961 133.241 105.868 133.283 105.776 133.326C105.592 133.411 105.416 133.513 105.25 133.63C105.147 133.71 105.06 133.761 104.987 133.782C104.914 133.803 104.826 133.853 104.724 133.934C104.529 134.057 104.346 134.21 104.176 134.394C104.025 134.555 103.851 134.724 103.656 134.901L102.577 135.906C102.335 136.259 102.079 136.609 101.811 136.955C101.559 137.292 101.296 137.619 101.023 137.936C100.749 138.254 100.478 138.586 100.21 138.932C99.9544 139.281 99.7036 139.639 99.4574 140.004C99.3364 140.255 99.2599 140.389 99.228 140.408C99.1961 140.426 99.1751 140.454 99.165 140.492C99.1129 140.586 99.0687 140.675 99.0326 140.76C98.9838 140.841 98.9351 140.922 98.8863 141.004C98.8048 141.157 98.7061 141.299 98.5902 141.43C98.4859 141.618 98.3549 141.805 98.1969 141.992C98.039 142.179 97.8828 142.359 97.7283 142.533C97.4569 142.892 97.2032 143.235 96.9671 143.563C96.705 143.937 96.4479 144.293 96.1959 144.63C96.0959 144.752 96.0023 144.875 95.9149 145C95.8275 145.125 95.7401 145.249 95.6528 145.374L95.1473 146.129C95.0474 146.25 94.9629 146.389 94.894 146.546C94.8612 146.618 94.8284 146.69 94.7956 146.762C94.7628 146.834 94.7237 146.905 94.6783 146.973C94.5321 147.217 94.3602 147.481 94.1628 147.765C93.9494 148.059 93.8027 148.329 93.7227 148.578C93.2636 148.832 92.9312 149.067 92.7255 149.281C92.3746 149.484 92.0196 149.651 91.6605 149.784C91.3014 149.917 90.9129 150.009 90.4951 150.058C90.2562 149.994 89.9548 149.887 89.5909 149.735C89.2112 149.593 89.06 149.377 89.1375 149.088C89.173 148.855 89.2568 148.567 89.3889 148.225C89.521 147.883 89.6837 147.603 89.8768 147.385C90.0516 147.136 90.2293 146.9 90.4099 146.679C90.5905 146.458 90.7547 146.273 90.9025 146.123C91.2286 145.51 91.5656 145.007 91.9133 144.615C92.0132 144.493 92.1115 144.378 92.2081 144.269C92.3047 144.16 92.4013 144.051 92.4978 143.943C92.707 143.715 92.8892 143.488 93.0447 143.26C93.1548 143.101 93.243 142.922 93.3095 142.724C93.376 142.527 93.4987 142.371 93.6775 142.257C93.9681 141.876 94.2961 141.533 94.6613 141.226C95.0265 140.92 95.398 140.615 95.7758 140.312C95.9715 140.135 96.1403 139.958 96.2822 139.78C96.4401 139.593 96.6089 139.416 96.7886 139.249C97.1195 138.919 97.416 138.567 97.6781 138.193C97.9436 137.806 98.2619 137.473 98.633 137.195C98.7329 137.074 98.8312 136.958 98.9278 136.849C99.0244 136.74 99.1209 136.632 99.2175 136.523L99.792 135.888C99.8533 135.81 99.9327 135.69 100.03 135.527C100.128 135.365 100.207 135.244 100.268 135.166C100.374 135.073 100.48 134.98 100.586 134.887C100.682 134.779 100.779 134.67 100.876 134.561C101.237 134.118 101.603 133.684 101.973 133.257C102.343 132.831 102.744 132.419 103.173 132.022C103.257 131.761 103.393 131.528 103.583 131.323C103.676 131.227 103.765 131.122 103.849 131.01C103.933 130.898 104.019 130.779 104.106 130.654C104.239 130.461 104.353 130.262 104.448 130.058C104.569 129.808 104.67 129.606 104.752 129.452C104.888 129.246 105.023 129.094 105.157 128.995C105.343 128.856 105.507 128.698 105.649 128.52C105.684 128.489 105.719 128.458 105.754 128.427C105.79 128.396 105.827 128.359 105.865 128.315C105.904 128.271 105.941 128.234 105.976 128.203C106.011 128.172 106.047 128.141 106.082 128.11C106.198 127.98 106.29 127.863 106.358 127.76C106.407 127.678 106.508 127.577 106.661 127.457C107.058 127.185 107.305 127.043 107.403 127.029C107.473 127.02 107.544 127.006 107.617 126.985C107.693 126.951 107.776 126.92 107.865 126.889C108.375 126.999 108.657 127.203 108.712 127.501C108.767 127.799 108.808 128.099 108.834 128.403C108.73 128.591 108.626 128.778 108.522 128.966C108.417 129.154 108.303 129.379 108.179 129.643C108.303 129.582 108.427 129.52 108.551 129.459C108.691 129.389 108.838 129.321 108.99 129.254C109.299 129.107 109.573 128.965 109.813 128.827C110.06 128.758 110.303 128.682 110.541 128.597C110.792 128.516 111.037 128.434 111.275 128.349C111.755 128.168 112.274 128.044 112.831 127.977C112.97 127.961 113.115 127.946 113.267 127.933C113.419 127.919 113.558 127.93 113.684 127.963C113.797 127.994 113.895 128.054 113.979 128.144C114.085 128.253 114.192 128.329 114.302 128.372C114.403 128.547 114.516 128.705 114.64 128.846C114.755 128.972 114.864 129.142 114.968 129.359C115.035 129.512 115.07 129.683 115.073 129.872C115.074 129.967 115.076 130.062 115.077 130.157C115.079 130.251 115.081 130.346 115.082 130.441C115.084 130.536 115.085 130.631 115.087 130.725C115.101 130.823 115.121 130.923 115.148 131.025C115.192 131.212 115.205 131.391 115.186 131.561C115.166 131.636 115.12 131.759 115.048 131.928C114.975 132.097 114.929 132.22 114.909 132.295C114.882 132.396 114.868 132.473 114.867 132.527C114.866 132.58 114.845 132.683 114.805 132.834C114.728 133.069 114.544 133.357 114.25 133.696L113.545 134.518C113.468 134.605 113.39 134.692 113.313 134.779C113.252 134.857 113.19 134.935 113.129 135.013L112.713 135.508C112.513 135.751 112.333 135.973 112.172 136.172C112.01 136.371 111.849 136.571 111.688 136.77ZM117.654 134.123C117.841 134.079 118.093 133.944 118.41 133.719C118.73 133.481 119.04 133.254 119.34 133.038C119.644 132.809 119.858 132.691 119.981 132.684C120.09 132.578 120.188 132.49 120.275 132.419C120.361 132.347 120.477 132.291 120.623 132.249C120.922 131.938 121.269 131.701 121.663 131.537C122.074 131.364 122.464 131.165 122.834 130.941C123.1 130.904 123.369 130.855 123.642 130.793C123.927 130.735 124.211 130.656 124.494 130.557C125.072 130.361 125.665 130.338 126.272 130.487C126.515 130.687 126.775 130.797 127.053 130.818C127.318 130.835 127.546 130.963 127.738 131.203C127.812 131.48 127.887 131.654 127.961 131.728C128.036 131.802 128.093 131.892 128.132 131.997C128.148 132.338 128.168 132.566 128.192 132.68C128.228 132.797 128.237 132.914 128.219 133.031C128.181 133.223 128.15 133.39 128.125 133.531C128.104 133.661 128.088 133.771 128.077 133.862C128.046 134.029 128.004 134.186 127.951 134.334C127.703 134.955 127.406 135.563 127.058 136.157C127.012 136.226 126.967 136.295 126.922 136.363C126.876 136.432 126.829 136.507 126.78 136.588C126.686 136.738 126.585 136.866 126.475 136.972C126.223 137.16 126.038 137.32 125.923 137.45C125.755 137.621 125.638 137.731 125.571 137.781C125.38 137.891 125.198 137.991 125.026 138.08C124.867 138.172 124.717 138.253 124.577 138.323C124.447 138.356 124.315 138.395 124.181 138.44C124.051 138.472 123.92 138.511 123.786 138.556C123.535 138.637 123.257 138.67 122.951 138.656L122.555 138.772C122.422 138.818 122.284 138.828 122.143 138.803C121.873 138.906 121.586 138.971 121.282 138.997C121.143 139.014 120.997 139.029 120.845 139.042C120.706 139.059 120.559 139.08 120.404 139.106C120.195 139.131 120.008 139.175 119.842 139.238C119.677 139.302 119.474 139.355 119.233 139.399C119.11 139.406 118.916 139.401 118.651 139.384C118.402 139.358 118.22 139.356 118.106 139.38C118.164 139.665 118.13 139.993 118.004 140.364C117.897 140.712 117.876 141.044 117.94 141.357C118.247 141.52 118.59 141.673 118.97 141.815C119.35 141.957 119.722 142.051 120.088 142.095C120.154 142.099 120.222 142.097 120.292 142.089C120.374 142.084 120.456 142.079 120.539 142.074C120.621 142.069 120.703 142.064 120.785 142.059C120.867 142.054 120.948 142.055 121.027 142.063C121.317 142.087 121.604 142.096 121.888 142.092C122.173 142.087 122.432 142.049 122.667 141.977C123.464 141.921 124.26 141.77 125.053 141.524C125.847 141.279 126.563 140.972 127.201 140.603C127.557 140.483 127.964 140.296 128.423 140.041C128.882 139.787 129.253 139.536 129.535 139.288C130.02 138.986 130.438 138.761 130.788 138.612C131.137 138.464 131.435 138.435 131.68 138.528C131.881 138.582 132.044 138.754 132.168 139.043C132.293 139.333 132.205 139.585 131.905 139.801C131.625 139.888 131.3 140.044 130.93 140.268C130.573 140.496 130.226 140.632 129.891 140.677C129.64 140.758 129.283 140.959 128.819 141.28C128.375 141.579 128.011 141.805 127.728 141.958C127.664 141.995 127.592 142.036 127.512 142.082C127.433 142.128 127.34 142.171 127.235 142.21C127.038 142.292 126.871 142.389 126.733 142.5C126.255 142.723 125.804 142.898 125.379 143.027C125.254 142.94 125.134 142.934 125.019 143.011C124.869 143.119 124.741 143.193 124.636 143.232C124.592 143.247 124.547 143.262 124.503 143.278C124.458 143.293 124.407 143.306 124.35 143.318C124.293 143.329 124.243 143.343 124.198 143.358C124.154 143.373 124.109 143.388 124.065 143.403C123.816 143.525 123.549 143.642 123.263 143.754C122.977 143.866 122.691 143.951 122.406 144.01C122.114 144.093 121.825 144.164 121.54 144.223C121.251 144.294 120.968 144.346 120.689 144.379C120.411 144.412 120.127 144.464 119.839 144.535C119.563 144.609 119.283 144.696 119 144.796L118.57 144.741C118.504 144.737 118.439 144.726 118.376 144.709C118.31 144.705 118.244 144.701 118.178 144.697C118.026 144.71 117.887 144.7 117.761 144.666C117.636 144.632 117.485 144.565 117.31 144.464C116.54 144.015 115.969 143.431 115.596 142.711C115.541 142.615 115.477 142.524 115.406 142.438C115.351 142.342 115.288 142.251 115.217 142.164C115.056 141.959 114.955 141.784 114.913 141.638C114.85 141.419 114.816 141.093 114.811 140.66C114.793 140.224 114.795 139.787 114.819 139.348C114.845 138.897 114.889 138.558 114.949 138.332C115.065 138.201 115.216 137.965 115.402 137.624C115.591 137.27 115.766 136.919 115.927 136.572C116.091 136.211 116.193 135.955 116.233 135.804C116.297 135.768 116.441 135.631 116.666 135.395C116.882 135.143 117.092 134.889 117.295 134.633C117.514 134.368 117.634 134.198 117.654 134.123ZM124.376 133.336C124.139 133.515 123.906 133.682 123.676 133.836C123.446 133.99 123.194 134.124 122.921 134.24C122.696 134.476 122.452 134.68 122.19 134.853C121.928 135.025 121.67 135.185 121.415 135.333C121.26 135.507 121.105 135.634 120.949 135.713C120.793 135.793 120.622 135.875 120.438 135.96C120.2 136.193 119.928 136.404 119.622 136.591C119.315 136.779 119.187 137.054 119.238 137.418C119.501 137.543 119.788 137.579 120.099 137.528C120.409 137.476 120.678 137.427 120.906 137.38C121.024 137.344 121.14 137.315 121.254 137.291C121.381 137.271 121.501 137.25 121.615 137.226C121.729 137.203 121.843 137.18 121.957 137.156C122.071 137.133 122.181 137.102 122.286 137.062L123.53 136.344C123.718 136.246 123.912 136.123 124.114 135.975C124.2 135.904 124.287 135.833 124.373 135.761C124.476 135.681 124.578 135.601 124.681 135.52C124.818 135.26 124.987 135.029 125.19 134.828C125.408 134.616 125.54 134.375 125.586 134.105C125.603 133.988 125.595 133.844 125.56 133.673C125.525 133.502 125.513 133.371 125.524 133.279C125.26 133.208 125.053 133.2 124.903 133.255C124.827 133.288 124.74 133.312 124.642 133.326C124.559 133.331 124.471 133.334 124.376 133.336ZM139.386 145.688C139.524 145.577 139.624 145.503 139.688 145.466C139.768 145.42 139.858 145.384 139.96 145.357C140.453 144.775 141.003 144.356 141.611 144.101C142.231 143.849 142.896 143.555 143.606 143.22C143.732 143.254 143.851 143.238 143.962 143.174C144.074 143.109 144.199 143.069 144.338 143.052C144.526 142.954 144.701 142.88 144.863 142.829C144.997 142.784 145.118 142.708 145.227 142.603C145.554 142.542 145.875 142.426 146.19 142.254C146.518 142.086 146.833 141.941 147.135 141.82C147.35 141.824 147.557 141.906 147.757 142.067C147.803 142.296 147.784 142.519 147.698 142.739C147.612 142.959 147.453 143.051 147.22 143.015C147.124 143.071 147.022 143.124 146.914 143.176C146.805 143.228 146.685 143.25 146.553 143.241C146.287 143.224 146.097 143.281 145.981 143.411C145.905 143.647 145.834 143.783 145.771 143.82C145.707 143.857 145.664 143.893 145.641 143.927C145.239 144.318 144.823 144.638 144.393 144.887C143.966 145.123 143.537 145.439 143.107 145.836C142.945 145.887 142.795 145.995 142.656 146.16C142.136 146.29 141.751 146.396 141.5 146.477C141.249 146.558 141.008 146.676 140.778 146.83C140.604 146.877 140.508 146.933 140.491 146.996C140.478 147.046 140.439 147.089 140.376 147.126C140.067 147.273 139.88 147.391 139.815 147.482C139.751 147.572 139.672 147.639 139.58 147.681C139.43 147.736 139.294 147.793 139.169 147.855C139.061 147.906 138.967 147.955 138.887 148.001C138.696 148.112 138.504 148.175 138.311 148.191C138.05 148.309 137.68 148.433 137.201 148.56C136.718 148.701 136.24 148.775 135.766 148.783C135.289 148.803 134.923 148.712 134.667 148.508L134.459 148.23C134.418 148.179 134.345 148.099 134.24 147.99C134.13 147.744 133.993 147.526 133.829 147.334C133.687 147.161 133.566 146.933 133.467 146.65C133.349 146.335 133.302 146.033 133.325 145.743C133.353 145.44 133.334 145.132 133.27 144.818C133.382 144.147 133.578 143.62 133.856 143.236C134.109 142.845 134.366 142.49 134.627 142.169C134.891 141.835 135.166 141.538 135.452 141.278C136.004 140.778 136.466 140.134 136.839 139.344C136.637 138.993 136.549 138.694 136.575 138.444C136.596 138.315 136.61 138.164 136.616 137.99C136.622 137.817 136.628 137.616 136.635 137.389C135.867 137.641 135.118 138.02 134.39 138.526C133.661 139.032 132.992 139.567 132.382 140.132L131.707 140.84C131.517 141.046 131.306 141.232 131.072 141.398C130.913 141.49 130.828 141.555 130.818 141.593C130.808 141.631 130.771 141.668 130.707 141.705C130.573 141.804 130.462 141.889 130.376 141.96C130.289 142.031 130.227 142.088 130.188 142.132C130.15 142.175 130.111 142.219 130.072 142.263C130.037 142.294 130.002 142.325 129.967 142.356C129.864 142.436 129.781 142.495 129.717 142.531C129.653 142.568 129.57 142.627 129.468 142.707C128.981 143.116 128.534 143.502 128.127 143.864L126.881 144.966C126.685 145.143 126.515 145.326 126.37 145.517C126.221 145.72 126.041 145.887 125.83 146.019C125.572 145.977 125.438 145.901 125.427 145.79C125.416 145.679 125.446 145.593 125.517 145.531C125.269 145.249 125.203 144.813 125.321 144.225C125.438 143.636 125.619 143.186 125.864 142.874C125.85 142.627 125.858 142.495 125.89 142.477C125.922 142.458 125.945 142.424 125.958 142.373C126.406 142.008 126.861 141.645 127.322 141.283C127.783 140.921 128.256 140.59 128.741 140.288C128.828 140.217 128.914 140.146 129.001 140.075C129.087 140.004 129.167 139.931 129.241 139.856C129.417 139.701 129.593 139.573 129.769 139.472C130.08 139.164 130.439 138.856 130.845 138.547C131.248 138.251 131.598 137.926 131.895 137.575C132.07 137.473 132.201 137.36 132.289 137.235C132.392 137.101 132.533 137.004 132.711 136.944C132.839 136.817 132.953 136.692 133.053 136.571C133.169 136.44 133.271 136.312 133.358 136.187C133.498 135.969 133.7 135.767 133.965 135.582C134.063 135.419 134.163 135.298 134.265 135.217C134.368 135.137 134.499 135.05 134.658 134.958C134.701 134.849 134.799 134.76 134.952 134.693C135.104 134.626 135.227 134.545 135.32 134.448C135.431 134.289 135.524 134.193 135.6 134.159C135.692 134.117 135.754 134.039 135.784 133.926C135.944 133.834 136.105 133.735 136.268 133.631C136.43 133.526 136.589 133.386 136.744 133.212C137.15 133.105 137.422 133.07 137.56 133.107C137.699 133.145 137.822 133.11 137.932 133.005C138.032 133.032 138.139 133.06 138.252 133.091C138.378 133.124 138.512 133.153 138.654 133.178C138.95 133.23 139.075 133.365 139.03 133.582C139.03 133.636 139.013 133.699 138.98 133.771C138.957 133.805 138.935 133.84 138.912 133.874C138.889 133.908 138.866 133.943 138.844 133.977C138.796 134.207 138.764 134.326 138.748 134.336C138.716 134.354 138.698 134.369 138.695 134.382C138.643 134.476 138.613 134.562 138.605 134.641C138.601 134.707 138.577 134.822 138.533 134.986C138.494 135.083 138.457 135.168 138.425 135.24C138.392 135.312 138.361 135.378 138.331 135.437C138.272 135.556 138.284 135.714 138.366 135.911C138.405 136.016 138.462 136.106 138.537 136.18C138.611 136.254 138.677 136.359 138.735 136.496C138.781 136.575 138.805 136.663 138.806 136.757C138.808 136.852 138.832 136.94 138.878 137.019C138.911 137.096 138.97 137.179 139.054 137.269C139.137 137.358 139.189 137.467 139.209 137.593C139.321 137.731 139.348 137.806 139.291 137.817C139.246 137.832 139.29 137.898 139.42 138.014C139.612 138.456 139.721 138.903 139.748 139.355C139.827 139.714 139.898 140.002 139.961 140.221C140.033 140.456 139.979 140.657 139.799 140.825C139.704 140.88 139.575 141.007 139.414 141.207C139.27 141.29 139.136 141.389 139.011 141.503C138.937 141.578 138.874 141.662 138.822 141.756C138.786 141.841 138.726 141.912 138.643 141.971C138.319 142.275 137.999 142.54 137.682 142.765C137.366 142.99 137.074 143.249 136.807 143.541C136.627 144.262 136.624 144.827 136.797 145.237C137.005 145.67 137.146 145.897 137.222 145.917C137.378 145.986 137.568 145.983 137.79 145.908L138.362 145.737C138.419 145.726 138.47 145.712 138.514 145.697C138.571 145.686 138.622 145.672 138.666 145.657C138.755 145.627 138.853 145.613 138.961 145.615C139.248 145.598 139.383 145.6 139.363 145.622C139.341 145.656 139.348 145.678 139.386 145.688Z" fill="white"/>
<path d="M118.612 167.966C118.844 167.466 119.439 167.248 119.94 167.481L128.102 171.274C128.602 171.507 128.82 172.102 128.587 172.602C128.354 173.103 127.759 173.321 127.259 173.088L120.004 169.716L116.632 176.971C116.399 177.472 115.805 177.689 115.304 177.456C114.803 177.224 114.586 176.629 114.818 176.128L118.612 167.966ZM120.458 168.045C125.908 182.96 125.679 194.951 122.166 204.539C118.657 214.112 111.918 221.171 104.556 226.316C97.1965 231.46 89.1725 234.722 83.0057 236.698C79.9188 237.687 77.2884 238.357 75.4266 238.78C74.4956 238.991 73.7562 239.141 73.2474 239.238C72.993 239.287 72.7962 239.323 72.6619 239.346C72.5947 239.358 72.5432 239.367 72.5079 239.373C72.4902 239.376 72.4766 239.378 72.4671 239.379C72.4624 239.38 72.4587 239.381 72.456 239.381C72.4547 239.382 72.4535 239.382 72.4528 239.382C72.4519 239.382 72.4512 239.382 72.2924 238.395C72.1336 237.407 72.1334 237.407 72.1335 237.407C72.1339 237.407 72.1342 237.407 72.135 237.407C72.1365 237.407 72.1391 237.407 72.1427 237.406C72.1498 237.405 72.1611 237.403 72.1764 237.4C72.207 237.395 72.2538 237.387 72.3161 237.376C72.4407 237.354 72.6274 237.321 72.8714 237.274C73.3594 237.181 74.0764 237.035 74.9836 236.829C76.7984 236.417 79.3721 235.762 82.3954 234.793C88.4493 232.853 96.2707 229.667 103.41 224.677C110.547 219.689 116.961 212.93 120.288 203.85C123.61 194.786 123.899 183.289 118.579 168.731L120.458 168.045Z" fill="white"/>
</g>
<defs>
<clipPath id="clip0_186_43">
<rect width="163" height="248" fill="white"/>
</clipPath>
</defs>
</svg>
