<svg width="16" height="16" viewBox="0 0 16 16" fill="none" xmlns="http://www.w3.org/2000/svg">
<path opacity="0.3" d="M7.05629 0.832681C7.5736 0.390347 8.42078 0.390347 8.94558 0.832681L10.1301 1.8523C10.3551 2.04723 10.7749 2.20467 11.0748 2.20467H12.3493C13.144 2.20467 13.7963 2.85692 13.7963 3.65162V4.92615C13.7963 5.21854 13.9537 5.64588 14.1486 5.87079L15.1682 7.05535C15.6106 7.57265 15.6106 8.41984 15.1682 8.94464L14.1486 10.1292C13.9537 10.3541 13.7963 10.774 13.7963 11.0738V12.3484C13.7963 13.1431 13.144 13.7953 12.3493 13.7953H11.0748C10.7824 13.7953 10.3551 13.9528 10.1301 14.1477L8.94558 15.1673C8.42828 15.6096 7.58109 15.6096 7.05629 15.1673L5.87174 14.1477C5.64682 13.9528 5.22698 13.7953 4.92709 13.7953H3.63008C2.83537 13.7953 2.18312 13.1431 2.18312 12.3484V11.0663C2.18312 10.774 2.02568 10.3541 1.83825 10.1292L0.826128 8.93714C0.391291 8.41984 0.391291 7.58015 0.826128 7.06285L1.83825 5.87079C2.02568 5.64588 2.18312 5.22603 2.18312 4.93364V3.64413C2.18312 2.84942 2.83537 2.19717 3.63008 2.19717H4.92709C5.21948 2.19717 5.64682 2.03973 5.87174 1.8448L7.05629 0.832681Z" fill="white"/>
<path d="M5.28604 8L7.09286 9.81432L10.714 6.18568" stroke="white" stroke-width="1.12458" stroke-linecap="round" stroke-linejoin="round"/>
</svg>
