<svg width="906" height="193" viewBox="0 0 906 193" fill="none" xmlns="http://www.w3.org/2000/svg">
<path d="M273.8 51.8839L261.533 17.2173H265.4L275.6 47.4839L273.8 47.3506L284.867 22.4173H286.867L297.933 47.3506L295.8 47.4839L306.333 17.2173H310L297.733 51.8839H296.467L284.667 24.7506H287.067L275.267 51.8839H273.8ZM315.411 51.8839V2.5506H318.744V25.2173L317.944 26.4839C318.433 24.395 319.366 22.6173 320.744 21.1506C322.122 19.6395 323.722 18.4839 325.544 17.6839C327.411 16.8839 329.278 16.4839 331.144 16.4839C333.811 16.4839 336.011 16.995 337.744 18.0173C339.522 19.0395 340.833 20.6173 341.678 22.7506C342.522 24.8839 342.944 27.595 342.944 30.8839V51.8839H339.611V31.0173C339.611 28.4395 339.278 26.3284 338.611 24.6839C337.944 22.995 336.922 21.7506 335.544 20.9506C334.211 20.1062 332.5 19.6839 330.411 19.6839C328.766 19.6839 327.233 19.995 325.811 20.6173C324.389 21.195 323.144 21.995 322.078 23.0173C321.055 24.0395 320.233 25.2173 319.611 26.5506C319.033 27.8395 318.744 29.2173 318.744 30.6839V51.8839H317.078C317.033 51.8839 316.878 51.8839 316.611 51.8839C316.389 51.8839 315.989 51.8839 315.411 51.8839ZM366.385 52.5506C363.23 52.5506 360.408 51.7728 357.919 50.2173C355.43 48.6617 353.452 46.5284 351.985 43.8173C350.563 41.1062 349.852 38.0173 349.852 34.5506C349.852 31.0395 350.585 27.9284 352.052 25.2173C353.563 22.5062 355.563 20.3728 358.052 18.8173C360.541 17.2617 363.319 16.4839 366.385 16.4839C368.163 16.4839 369.852 16.7506 371.452 17.2839C373.052 17.8173 374.497 18.5728 375.785 19.5506C377.074 20.4839 378.185 21.595 379.119 22.8839C380.052 24.1728 380.719 25.5728 381.119 27.0839L379.785 26.2173L380.119 17.2173H383.319V51.8839H379.985V43.2173L381.119 41.9506C380.719 43.4173 380.052 44.7951 379.119 46.0839C378.185 47.3728 377.074 48.5062 375.785 49.4839C374.497 50.4617 373.052 51.2173 371.452 51.7506C369.852 52.2839 368.163 52.5506 366.385 52.5506ZM366.852 49.2173C369.385 49.2173 371.652 48.5951 373.652 47.3506C375.697 46.0617 377.297 44.3284 378.452 42.1506C379.652 39.9284 380.252 37.3728 380.252 34.4839C380.252 31.6395 379.674 29.1284 378.519 26.9506C377.363 24.7284 375.763 22.995 373.719 21.7506C371.719 20.4617 369.43 19.8173 366.852 19.8173C364.23 19.8173 361.897 20.4617 359.852 21.7506C357.852 22.995 356.274 24.7284 355.119 26.9506C353.963 29.1284 353.385 31.6395 353.385 34.4839C353.385 37.2839 353.941 39.7951 355.052 42.0173C356.208 44.2395 357.785 45.9951 359.785 47.2839C361.83 48.5728 364.185 49.2173 366.852 49.2173ZM398.347 51.8839V7.9506H401.68V51.8839H398.347ZM390.014 20.2839V17.2173H411.014V20.2839H390.014ZM448.19 52.5506C445.346 52.5506 442.99 52.0395 441.123 51.0173C439.301 49.9951 437.923 48.4395 436.99 46.3506C436.101 44.2173 435.657 41.5062 435.657 38.2173V17.2173H438.99V38.0839C438.99 40.6617 439.323 42.7951 439.99 44.4839C440.657 46.1284 441.679 47.3506 443.057 48.1506C444.435 48.9506 446.168 49.3506 448.257 49.3506C449.901 49.3506 451.435 49.0617 452.857 48.4839C454.279 47.8617 455.523 47.0617 456.59 46.0839C457.657 45.0617 458.479 43.9062 459.057 42.6173C459.679 41.2839 459.99 39.8839 459.99 38.4173V17.2173H463.323V51.8839H460.123L459.79 44.5506H460.19C459.701 46.0173 458.835 47.3506 457.59 48.5506C456.346 49.7506 454.879 50.7284 453.19 51.4839C451.546 52.1951 449.879 52.5506 448.19 52.5506ZM484.295 52.5506C481.273 52.5506 478.584 51.9728 476.228 50.8173C473.873 49.6173 472.073 48.1728 470.828 46.4839L473.361 44.2839C474.561 45.8839 476.117 47.1284 478.028 48.0173C479.939 48.8617 482.095 49.2839 484.495 49.2839C485.828 49.2839 487.05 49.1506 488.161 48.8839C489.273 48.5728 490.206 48.1506 490.961 47.6173C491.761 47.0839 492.384 46.4395 492.828 45.6839C493.273 44.8839 493.495 43.9951 493.495 43.0173C493.495 41.2839 492.673 39.8173 491.028 38.6173C490.273 38.0839 489.317 37.5951 488.161 37.1506C487.006 36.7062 485.65 36.2617 484.095 35.8173C481.739 35.1062 479.739 34.4395 478.095 33.8173C476.45 33.195 475.139 32.4173 474.161 31.4839C473.45 30.7284 472.917 29.9284 472.561 29.0839C472.206 28.195 472.028 27.2395 472.028 26.2173C472.028 24.795 472.317 23.5062 472.895 22.3506C473.473 21.1506 474.295 20.1062 475.361 19.2173C476.428 18.3284 477.673 17.6617 479.095 17.2173C480.517 16.7284 482.095 16.4839 483.828 16.4839C485.473 16.4839 487.095 16.7284 488.695 17.2173C490.295 17.6617 491.784 18.3062 493.161 19.1506C494.539 19.995 495.739 20.9728 496.761 22.0839L494.495 24.5506C493.606 23.5728 492.628 22.7062 491.561 21.9506C490.539 21.195 489.406 20.6173 488.161 20.2173C486.917 19.7728 485.539 19.5506 484.028 19.5506C482.828 19.5506 481.695 19.7062 480.628 20.0173C479.606 20.3284 478.717 20.795 477.961 21.4173C477.206 21.995 476.606 22.6839 476.161 23.4839C475.761 24.2395 475.561 25.0839 475.561 26.0173C475.561 26.7284 475.695 27.3728 475.961 27.9506C476.228 28.4839 476.65 28.9951 477.228 29.4839C477.984 30.1062 478.984 30.6395 480.228 31.0839C481.517 31.5284 483.095 32.0173 484.961 32.5506C486.65 32.9951 488.139 33.4395 489.428 33.8839C490.717 34.3284 491.828 34.8617 492.761 35.4839C494.184 36.3728 495.228 37.4173 495.895 38.6173C496.606 39.8173 496.961 41.1951 496.961 42.7506C496.961 44.6617 496.428 46.3506 495.361 47.8173C494.295 49.2839 492.806 50.4395 490.895 51.2839C488.984 52.1284 486.784 52.5506 484.295 52.5506ZM519.396 52.5506C516.063 52.5506 513.085 51.7951 510.463 50.2839C507.885 48.7728 505.863 46.6617 504.396 43.9506C502.929 41.2395 502.196 38.0839 502.196 34.4839C502.196 31.8617 502.596 29.4617 503.396 27.2839C504.24 25.1062 505.396 23.2173 506.863 21.6173C508.329 19.9728 510.085 18.7062 512.129 17.8173C514.218 16.9284 516.485 16.4839 518.929 16.4839C521.329 16.4839 523.485 16.8839 525.396 17.6839C527.351 18.4839 528.996 19.6395 530.329 21.1506C531.663 22.6173 532.663 24.3728 533.329 26.4173C533.996 28.4173 534.285 30.6395 534.196 33.0839L534.129 34.8839H504.663V31.8173H532.329L530.863 33.0173V31.4173C530.863 29.6395 530.418 27.8617 529.529 26.0839C528.685 24.3062 527.374 22.8173 525.596 21.6173C523.818 20.4173 521.574 19.8173 518.863 19.8173C516.329 19.8173 514.063 20.3728 512.063 21.4839C510.107 22.595 508.551 24.2173 507.396 26.3506C506.285 28.4839 505.729 31.1284 505.729 34.2839C505.729 37.3062 506.285 39.9506 507.396 42.2173C508.507 44.4395 510.107 46.1728 512.196 47.4173C514.329 48.6173 516.929 49.2173 519.996 49.2173C521.64 49.2173 523.329 48.9506 525.063 48.4173C526.796 47.8839 528.751 46.7284 530.929 44.9506L532.663 47.4173C531.685 48.3506 530.529 49.2173 529.196 50.0173C527.863 50.7728 526.374 51.3951 524.729 51.8839C523.085 52.3284 521.307 52.5506 519.396 52.5506ZM540.932 51.8839V17.2173H544.132L544.465 24.9506H543.998C544.487 23.4839 545.243 22.1062 546.265 20.8173C547.287 19.5284 548.532 18.4839 549.998 17.6839C551.51 16.8839 553.243 16.4839 555.198 16.4839C555.954 16.4839 556.643 16.5506 557.265 16.6839C557.932 16.7728 558.532 16.8839 559.065 17.0173L558.065 20.8839C557.443 20.6173 556.843 20.4395 556.265 20.3506C555.687 20.2617 555.176 20.2173 554.732 20.2173C552.954 20.2173 551.398 20.5284 550.065 21.1506C548.776 21.7728 547.687 22.6395 546.798 23.7506C545.954 24.8173 545.31 26.0395 544.865 27.4173C544.465 28.795 544.265 30.2395 544.265 31.7506V51.8839H540.932ZM575.18 52.5506C572.158 52.5506 569.469 51.9728 567.114 50.8173C564.758 49.6173 562.958 48.1728 561.714 46.4839L564.247 44.2839C565.447 45.8839 567.002 47.1284 568.914 48.0173C570.825 48.8617 572.98 49.2839 575.38 49.2839C576.714 49.2839 577.936 49.1506 579.047 48.8839C580.158 48.5728 581.091 48.1506 581.847 47.6173C582.647 47.0839 583.269 46.4395 583.714 45.6839C584.158 44.8839 584.38 43.9951 584.38 43.0173C584.38 41.2839 583.558 39.8173 581.914 38.6173C581.158 38.0839 580.202 37.5951 579.047 37.1506C577.891 36.7062 576.536 36.2617 574.98 35.8173C572.625 35.1062 570.625 34.4395 568.98 33.8173C567.336 33.195 566.025 32.4173 565.047 31.4839C564.336 30.7284 563.802 29.9284 563.447 29.0839C563.091 28.195 562.914 27.2395 562.914 26.2173C562.914 24.795 563.202 23.5062 563.78 22.3506C564.358 21.1506 565.18 20.1062 566.247 19.2173C567.314 18.3284 568.558 17.6617 569.98 17.2173C571.402 16.7284 572.98 16.4839 574.714 16.4839C576.358 16.4839 577.98 16.7284 579.58 17.2173C581.18 17.6617 582.669 18.3062 584.047 19.1506C585.425 19.995 586.625 20.9728 587.647 22.0839L585.38 24.5506C584.491 23.5728 583.514 22.7062 582.447 21.9506C581.425 21.195 580.291 20.6173 579.047 20.2173C577.802 19.7728 576.425 19.5506 574.914 19.5506C573.714 19.5506 572.58 19.7062 571.514 20.0173C570.491 20.3284 569.602 20.795 568.847 21.4173C568.091 21.995 567.491 22.6839 567.047 23.4839C566.647 24.2395 566.447 25.0839 566.447 26.0173C566.447 26.7284 566.58 27.3728 566.847 27.9506C567.114 28.4839 567.536 28.9951 568.114 29.4839C568.869 30.1062 569.869 30.6395 571.114 31.0839C572.402 31.5284 573.98 32.0173 575.847 32.5506C577.536 32.9951 579.025 33.4395 580.314 33.8839C581.602 34.3284 582.714 34.8617 583.647 35.4839C585.069 36.3728 586.114 37.4173 586.78 38.6173C587.491 39.8173 587.847 41.1951 587.847 42.7506C587.847 44.6617 587.314 46.3506 586.247 47.8173C585.18 49.2839 583.691 50.4395 581.78 51.2839C579.869 52.1284 577.669 52.5506 575.18 52.5506ZM625.766 52.5506C622.744 52.5506 620.055 51.9728 617.7 50.8173C615.344 49.6173 613.544 48.1728 612.3 46.4839L614.833 44.2839C616.033 45.8839 617.588 47.1284 619.5 48.0173C621.411 48.8617 623.566 49.2839 625.966 49.2839C627.3 49.2839 628.522 49.1506 629.633 48.8839C630.744 48.5728 631.677 48.1506 632.433 47.6173C633.233 47.0839 633.855 46.4395 634.3 45.6839C634.744 44.8839 634.966 43.9951 634.966 43.0173C634.966 41.2839 634.144 39.8173 632.5 38.6173C631.744 38.0839 630.788 37.5951 629.633 37.1506C628.477 36.7062 627.122 36.2617 625.566 35.8173C623.211 35.1062 621.211 34.4395 619.566 33.8173C617.922 33.195 616.611 32.4173 615.633 31.4839C614.922 30.7284 614.388 29.9284 614.033 29.0839C613.677 28.195 613.5 27.2395 613.5 26.2173C613.5 24.795 613.788 23.5062 614.366 22.3506C614.944 21.1506 615.766 20.1062 616.833 19.2173C617.9 18.3284 619.144 17.6617 620.566 17.2173C621.988 16.7284 623.566 16.4839 625.3 16.4839C626.944 16.4839 628.566 16.7284 630.166 17.2173C631.766 17.6617 633.255 18.3062 634.633 19.1506C636.011 19.995 637.211 20.9728 638.233 22.0839L635.966 24.5506C635.077 23.5728 634.1 22.7062 633.033 21.9506C632.011 21.195 630.877 20.6173 629.633 20.2173C628.388 19.7728 627.011 19.5506 625.5 19.5506C624.3 19.5506 623.166 19.7062 622.1 20.0173C621.077 20.3284 620.188 20.795 619.433 21.4173C618.677 21.995 618.077 22.6839 617.633 23.4839C617.233 24.2395 617.033 25.0839 617.033 26.0173C617.033 26.7284 617.166 27.3728 617.433 27.9506C617.7 28.4839 618.122 28.9951 618.7 29.4839C619.455 30.1062 620.455 30.6395 621.7 31.0839C622.988 31.5284 624.566 32.0173 626.433 32.5506C628.122 32.9951 629.611 33.4395 630.9 33.8839C632.188 34.3284 633.3 34.8617 634.233 35.4839C635.655 36.3728 636.7 37.4173 637.366 38.6173C638.077 39.8173 638.433 41.1951 638.433 42.7506C638.433 44.6617 637.9 46.3506 636.833 47.8173C635.766 49.2839 634.277 50.4395 632.366 51.2839C630.455 52.1284 628.255 52.5506 625.766 52.5506ZM660.867 52.5506C657.534 52.5506 654.556 51.7951 651.934 50.2839C649.356 48.7728 647.334 46.6617 645.867 43.9506C644.401 41.2395 643.667 38.0839 643.667 34.4839C643.667 31.8617 644.067 29.4617 644.867 27.2839C645.712 25.1062 646.867 23.2173 648.334 21.6173C649.801 19.9728 651.556 18.7062 653.601 17.8173C655.689 16.9284 657.956 16.4839 660.401 16.4839C662.801 16.4839 664.956 16.8839 666.867 17.6839C668.823 18.4839 670.467 19.6395 671.801 21.1506C673.134 22.6173 674.134 24.3728 674.801 26.4173C675.467 28.4173 675.756 30.6395 675.667 33.0839L675.601 34.8839H646.134V31.8173H673.801L672.334 33.0173V31.4173C672.334 29.6395 671.889 27.8617 671.001 26.0839C670.156 24.3062 668.845 22.8173 667.067 21.6173C665.289 20.4173 663.045 19.8173 660.334 19.8173C657.801 19.8173 655.534 20.3728 653.534 21.4839C651.578 22.595 650.023 24.2173 648.867 26.3506C647.756 28.4839 647.201 31.1284 647.201 34.2839C647.201 37.3062 647.756 39.9506 648.867 42.2173C649.978 44.4395 651.578 46.1728 653.667 47.4173C655.801 48.6173 658.401 49.2173 661.467 49.2173C663.112 49.2173 664.801 48.9506 666.534 48.4173C668.267 47.8839 670.223 46.7284 672.401 44.9506L674.134 47.4173C673.156 48.3506 672.001 49.2173 670.667 50.0173C669.334 50.7728 667.845 51.3951 666.201 51.8839C664.556 52.3284 662.778 52.5506 660.867 52.5506ZM696.87 52.5506C693.537 52.5506 690.559 51.7951 687.937 50.2839C685.359 48.7728 683.336 46.6617 681.87 43.9506C680.403 41.2395 679.67 38.0839 679.67 34.4839C679.67 31.8617 680.07 29.4617 680.87 27.2839C681.714 25.1062 682.87 23.2173 684.336 21.6173C685.803 19.9728 687.559 18.7062 689.603 17.8173C691.692 16.9284 693.959 16.4839 696.403 16.4839C698.803 16.4839 700.959 16.8839 702.87 17.6839C704.825 18.4839 706.47 19.6395 707.803 21.1506C709.137 22.6173 710.137 24.3728 710.803 26.4173C711.47 28.4173 711.759 30.6395 711.67 33.0839L711.603 34.8839H682.136V31.8173H709.803L708.337 33.0173V31.4173C708.337 29.6395 707.892 27.8617 707.003 26.0839C706.159 24.3062 704.848 22.8173 703.07 21.6173C701.292 20.4173 699.048 19.8173 696.337 19.8173C693.803 19.8173 691.537 20.3728 689.537 21.4839C687.581 22.595 686.025 24.2173 684.87 26.3506C683.759 28.4839 683.203 31.1284 683.203 34.2839C683.203 37.3062 683.759 39.9506 684.87 42.2173C685.981 44.4395 687.581 46.1728 689.67 47.4173C691.803 48.6173 694.403 49.2173 697.47 49.2173C699.114 49.2173 700.803 48.9506 702.537 48.4173C704.27 47.8839 706.225 46.7284 708.403 44.9506L710.137 47.4173C709.159 48.3506 708.003 49.2173 706.67 50.0173C705.337 50.7728 703.848 51.3951 702.203 51.8839C700.559 52.3284 698.781 52.5506 696.87 52.5506Z" fill="white"/>
<path d="M4.86659 54.5506V51.2173H12.3999V11.2173H4.86659V7.88396H23.2666V11.2173H15.7333V51.2173H23.2666V54.5506H4.86659Z" fill="white"/>
<path d="M76.4667 48.2173C76.0667 49.3284 75.9778 50.1284 76.2 50.6173C76.4222 51.0617 76.8 51.2839 77.3333 51.2839C77.8222 51.2839 78.3778 50.9951 79 50.4173C79.6667 49.8395 80.3778 48.5506 81.1333 46.5506L82.4 43.0839H83.6667L82.0667 47.9506C81.4444 49.8173 80.6222 51.2395 79.6 52.2173C78.5778 53.1951 77.4889 53.8617 76.3333 54.2173C75.1778 54.6173 74.0222 54.8173 72.8667 54.8173C70.0667 54.8173 68.1778 53.8839 67.2 52.0173C66.7111 51.1284 66.4667 49.9951 66.4667 48.6173C66.5111 47.2395 66.8 45.6173 67.3333 43.7506L76.4667 9.41727C76.9111 7.90616 76.8667 6.79505 76.3333 6.08394C75.8 5.37282 74.4444 5.01727 72.2667 5.01727L72.7333 3.61727C76.1111 3.57282 79.1333 3.32838 81.8 2.88393C84.5111 2.39505 87.0889 1.72838 89.5333 0.883936L76.4667 48.2173ZM60.1333 51.0839C60.8 51.0839 61.5778 50.6617 62.4667 49.8173C63.3556 48.9284 64.3111 47.5728 65.3333 45.7506C66.4 43.9284 67.4444 41.6173 68.4667 38.8173C69.4889 36.0173 70.4444 32.6839 71.3333 28.8173L70.3333 36.0173C68.9556 40.1951 67.5778 43.6839 66.2 46.4839C64.8667 49.2839 63.3333 51.3728 61.6 52.7506C59.9111 54.1284 57.8444 54.8173 55.4 54.8173C53.8889 54.8173 52.5111 54.4839 51.2667 53.8173C50.0222 53.1506 49.0222 52.1284 48.2667 50.7506C47.5111 49.3284 47.1333 47.5062 47.1333 45.2839C47.1333 43.2839 47.4444 41.0839 48.0667 38.6839C48.6889 36.2839 49.6222 33.9062 50.8667 31.5506C52.1111 29.1951 53.6444 27.0173 55.4667 25.0173C57.2889 23.0173 59.3556 21.4173 61.6667 20.2173C64.0222 19.0173 66.6222 18.4173 69.4667 18.4173C71.0667 18.4173 72.1778 18.7284 72.8 19.3506C73.4222 19.9284 73.8 20.7284 73.9333 21.7506L73.4 23.0839C73.2222 22.0617 72.9556 21.2839 72.6 20.7506C72.2444 20.2173 71.6222 19.9506 70.7333 19.9506C69.7556 19.9506 68.6889 20.4617 67.5333 21.4839C66.4222 22.4617 65.3111 23.8395 64.2 25.6173C63.1333 27.3506 62.1333 29.3728 61.2 31.6839C60.3111 33.9506 59.6 36.3951 59.0667 39.0173C58.5333 41.5951 58.2667 44.2173 58.2667 46.8839C58.2667 48.2617 58.4 49.3062 58.6667 50.0173C58.9333 50.7284 59.4222 51.0839 60.1333 51.0839ZM96.1214 39.6839C97.7658 38.9728 99.3436 38.1728 100.855 37.2839C102.366 36.3506 103.699 35.3506 104.855 34.2839C106.588 32.6395 108.01 30.7506 109.121 28.6173C110.232 26.4395 110.788 24.1062 110.788 21.6173C110.788 20.8617 110.699 20.3506 110.521 20.0839C110.344 19.8173 110.077 19.6839 109.721 19.6839C108.788 19.6839 107.766 20.195 106.655 21.2173C105.544 22.195 104.455 23.5284 103.388 25.2173C102.321 26.8617 101.344 28.7506 100.455 30.8839C99.6102 32.9728 98.9214 35.1506 98.388 37.4173C97.8547 39.6395 97.588 41.8173 97.588 43.9506C97.588 46.4839 98.0769 48.1951 99.0547 49.0839C100.077 49.9728 101.388 50.4173 102.988 50.4173C104.01 50.4173 105.41 50.0617 107.188 49.3506C108.966 48.5951 110.721 47.2617 112.455 45.3506L113.521 45.8839C112.588 47.3506 111.344 48.7728 109.788 50.1506C108.232 51.5284 106.41 52.6617 104.321 53.5506C102.232 54.3951 99.9214 54.8173 97.388 54.8173C95.3436 54.8173 93.4769 54.4617 91.788 53.7506C90.1436 53.0395 88.8325 51.9951 87.8547 50.6173C86.8769 49.1951 86.388 47.4617 86.388 45.4173C86.388 42.9284 86.788 40.4173 87.588 37.8839C88.388 35.3506 89.5214 32.9284 90.988 30.6173C92.4547 28.2617 94.2102 26.1728 96.2547 24.3506C98.3436 22.5284 100.632 21.0839 103.121 20.0173C105.61 18.9506 108.299 18.4173 111.188 18.4173C113.321 18.4173 115.121 18.8839 116.588 19.8173C118.055 20.7062 118.788 22.1062 118.788 24.0173C118.788 25.7062 118.321 27.3062 117.388 28.8173C116.455 30.2839 115.188 31.6395 113.588 32.8839C112.032 34.1284 110.255 35.2395 108.255 36.2173C106.299 37.1951 104.277 38.0395 102.188 38.7506C100.099 39.4617 98.0547 40.0173 96.0547 40.4173L96.1214 39.6839ZM123.881 52.9506C124.237 53.1284 124.592 53.2617 124.948 53.3506C125.348 53.3951 125.815 53.4173 126.348 53.4173C127.859 53.4173 129.103 52.9506 130.081 52.0173C131.059 51.0395 131.548 49.7062 131.548 48.0173C131.548 46.5062 131.215 44.9728 130.548 43.4173C129.881 41.8173 128.948 40.1062 127.748 38.2839C126.681 36.6395 125.726 35.0617 124.881 33.5506C124.081 31.9951 123.681 30.2617 123.681 28.3506C123.681 26.4395 124.17 24.7506 125.148 23.2839C126.126 21.7728 127.548 20.595 129.415 19.7506C131.281 18.8617 133.592 18.4173 136.348 18.4173C138.126 18.4173 139.837 18.6395 141.481 19.0839C143.126 19.4839 144.481 20.195 145.548 21.2173C146.615 22.2395 147.148 23.7284 147.148 25.6839C147.148 26.4839 146.992 27.3284 146.681 28.2173C146.37 29.0617 145.881 29.7728 145.215 30.3506C144.592 30.8839 143.77 31.1506 142.748 31.1506C141.548 31.1506 140.592 30.6839 139.881 29.7506C139.17 28.8173 138.815 27.595 138.815 26.0839C138.815 24.795 139.037 23.6395 139.481 22.6173C139.926 21.595 140.392 20.795 140.881 20.2173C140.437 19.9506 139.77 19.8173 138.881 19.8173C137.326 19.8173 136.126 20.2839 135.281 21.2173C134.437 22.1506 133.992 23.5062 133.948 25.2839C133.948 26.2617 134.126 27.2395 134.481 28.2173C134.881 29.1506 135.37 30.1062 135.948 31.0839C136.57 32.0173 137.215 33.0395 137.881 34.1506C139.303 36.5062 140.326 38.4839 140.948 40.0839C141.57 41.6395 141.881 43.1951 141.881 44.7506C141.881 46.6173 141.37 48.3062 140.348 49.8173C139.37 51.3284 137.903 52.5506 135.948 53.4839C134.037 54.3728 131.703 54.8173 128.948 54.8173C126.948 54.8173 125.059 54.5728 123.281 54.0839C121.503 53.5951 120.059 52.7506 118.948 51.5506C117.837 50.3506 117.281 48.7284 117.281 46.6839C117.281 45.2173 117.659 43.9728 118.415 42.9506C119.126 41.8839 120.126 41.3506 121.415 41.3506C122.659 41.3506 123.637 41.8617 124.348 42.8839C125.103 43.9062 125.481 45.2395 125.481 46.8839C125.481 48.1284 125.281 49.3062 124.881 50.4173C124.481 51.4839 124.148 52.3284 123.881 52.9506ZM158.989 8.5506C159.034 6.41727 159.767 4.79505 161.189 3.68394C162.656 2.57282 164.411 2.01727 166.456 2.01727C168.278 2.01727 169.634 2.41727 170.522 3.21727C171.456 3.97282 171.9 5.08394 171.856 6.5506C171.811 8.41727 171.056 9.9506 169.589 11.1506C168.167 12.3506 166.411 12.9506 164.322 12.9506C162.589 12.9506 161.256 12.5728 160.322 11.8173C159.389 11.0173 158.945 9.92838 158.989 8.5506ZM156.322 25.0173C157.034 22.9728 156.811 21.9506 155.656 21.9506C154.945 21.9506 154.278 22.3062 153.656 23.0173C153.034 23.7284 152.367 24.9506 151.656 26.6839L150.256 30.4173H148.989L150.856 25.2839C151.478 23.5506 152.256 22.195 153.189 21.2173C154.167 20.195 155.278 19.4839 156.522 19.0839C157.767 18.6395 159.078 18.4173 160.456 18.4173C162.1 18.4173 163.389 18.7062 164.322 19.2839C165.256 19.8617 165.922 20.6173 166.322 21.5506C166.722 22.4395 166.9 23.4395 166.856 24.5506C166.811 25.6173 166.611 26.6839 166.256 27.7506L159.256 48.2173C158.9 49.3728 158.811 50.1728 158.989 50.6173C159.211 51.0617 159.589 51.2839 160.122 51.2839C160.611 51.2839 161.189 50.9951 161.856 50.4173C162.522 49.8395 163.234 48.5506 163.989 46.5506L165.256 43.0839H166.522L164.856 47.9506C164.189 49.7728 163.367 51.1951 162.389 52.2173C161.411 53.1951 160.322 53.8617 159.122 54.2173C157.922 54.6173 156.745 54.8173 155.589 54.8173C153.634 54.8173 152.1 54.3951 150.989 53.5506C149.878 52.7062 149.234 51.4617 149.056 49.8173C148.878 48.1728 149.189 46.1506 149.989 43.7506L156.322 25.0173ZM184.463 38.7506L187.996 38.3506C186.174 39.0617 184.64 39.7284 183.396 40.3506C182.151 40.9284 181.196 41.4617 180.529 41.9506C179.863 42.3951 179.529 42.8617 179.529 43.3506C179.529 43.7062 179.751 44.0395 180.196 44.3506C180.64 44.6173 181.307 44.8839 182.196 45.1506L187.996 47.2173C189.24 47.6617 190.44 48.1951 191.596 48.8173C192.751 49.4395 193.707 50.2395 194.463 51.2173C195.218 52.1951 195.596 53.4173 195.596 54.8839C195.596 56.7062 194.996 58.3284 193.796 59.7506C192.64 61.2173 191.063 62.4395 189.063 63.4173C187.063 64.4395 184.84 65.1951 182.396 65.6839C179.996 66.2173 177.529 66.4839 174.996 66.4839C172.774 66.4839 170.707 66.2617 168.796 65.8173C166.885 65.4173 165.351 64.8395 164.196 64.0839C162.996 63.3284 162.396 62.4395 162.396 61.4173C162.396 60.5284 162.84 59.7506 163.729 59.0839C164.574 58.4173 165.685 57.8617 167.063 57.4173C168.396 56.9728 169.796 56.6395 171.263 56.4173C172.774 56.1951 174.196 56.0617 175.529 56.0173L175.663 57.0173C174.196 57.8173 173.151 58.6395 172.529 59.4839C171.951 60.3284 171.663 61.1506 171.663 61.9506C171.663 63.0617 172.085 63.9062 172.929 64.4839C173.774 65.0617 174.951 65.3506 176.463 65.3506C177.618 65.3506 178.818 65.1951 180.063 64.8839C181.351 64.5728 182.529 64.1062 183.596 63.4839C184.707 62.9062 185.596 62.2173 186.263 61.4173C186.974 60.6173 187.329 59.7506 187.329 58.8173C187.329 57.9284 186.996 57.3062 186.329 56.9506C185.663 56.6395 184.774 56.3284 183.663 56.0173L174.396 53.2173C173.285 52.8617 172.307 52.3284 171.463 51.6173C170.663 50.8617 170.263 49.9062 170.263 48.7506C170.263 47.4173 170.84 46.2395 171.996 45.2173C173.196 44.1506 174.863 43.1062 176.996 42.0839C179.174 41.0173 181.663 39.9062 184.463 38.7506ZM187.129 19.6839C186.507 19.6839 185.907 19.9728 185.329 20.5506C184.751 21.1284 184.218 21.9284 183.729 22.9506C183.285 23.9284 182.907 25.0395 182.596 26.2839C182.285 27.5284 182.04 28.8617 181.863 30.2839C181.685 31.6617 181.596 33.0395 181.596 34.4173C181.596 35.8839 181.729 36.9062 181.996 37.4839C182.307 38.0173 182.751 38.2839 183.329 38.2839C184.218 38.2839 184.996 37.8617 185.663 37.0173C186.374 36.1284 186.974 34.9728 187.463 33.5506C187.951 32.1284 188.307 30.5506 188.529 28.8173C188.751 27.0839 188.863 25.3506 188.863 23.6173C188.863 22.595 188.751 21.6839 188.529 20.8839C188.351 20.0839 187.885 19.6839 187.129 19.6839ZM188.596 18.4839C191.618 18.4839 194.107 19.0839 196.063 20.2839C198.063 21.4395 199.063 23.3506 199.063 26.0173C199.063 28.1506 198.374 30.2617 196.996 32.3506C195.618 34.4395 193.64 36.1506 191.063 37.4839C188.529 38.8173 185.529 39.4839 182.063 39.4839C179.085 39.4839 176.574 38.8839 174.529 37.6839C172.529 36.4839 171.529 34.5728 171.529 31.9506C171.529 30.4395 171.907 28.9062 172.663 27.3506C173.418 25.7506 174.507 24.2839 175.929 22.9506C177.396 21.5728 179.174 20.4839 181.263 19.6839C183.396 18.8839 185.84 18.4839 188.596 18.4839ZM193.996 22.0173L192.663 21.5506C193.329 19.7284 194.418 18.2617 195.929 17.1506C197.44 15.995 199.063 15.4173 200.796 15.4173C202.263 15.4173 203.374 15.8173 204.129 16.6173C204.885 17.4173 205.263 18.4617 205.263 19.7506C205.263 21.0395 204.929 22.0173 204.263 22.6839C203.596 23.3506 202.863 23.6839 202.063 23.6839C201.351 23.6839 200.663 23.4173 199.996 22.8839C199.374 22.3062 198.974 21.4617 198.796 20.3506C198.618 19.2395 198.885 17.795 199.596 16.0173L199.996 16.4839C198.396 17.0617 197.151 17.7728 196.263 18.6173C195.374 19.4617 194.618 20.595 193.996 22.0173ZM212.497 53.8839H201.897L210.03 25.0173C210.252 24.3506 210.386 23.795 210.43 23.3506C210.475 22.9062 210.408 22.5728 210.23 22.3506C210.097 22.0839 209.808 21.9506 209.364 21.9506C208.608 21.9506 207.919 22.2839 207.297 22.9506C206.719 23.6173 206.075 24.8617 205.364 26.6839L203.964 30.4173H202.697L204.564 25.2839C205.408 22.8395 206.564 21.0839 208.03 20.0173C209.497 18.9506 211.297 18.4173 213.43 18.4173C215.075 18.4173 216.364 18.7062 217.297 19.2839C218.275 19.8173 218.941 20.5506 219.297 21.4839C219.652 22.4173 219.808 23.4395 219.764 24.5506C219.719 25.6173 219.564 26.6839 219.297 27.7506L212.497 53.8839ZM214.364 43.4839C216.141 38.3284 217.786 34.1284 219.297 30.8839C220.808 27.6395 222.275 25.1062 223.697 23.2839C225.164 21.4173 226.652 20.1506 228.164 19.4839C229.719 18.7728 231.364 18.4173 233.097 18.4173C235.275 18.4173 236.852 18.8839 237.83 19.8173C238.808 20.7062 239.319 21.9284 239.364 23.4839C239.408 24.995 239.119 26.6617 238.497 28.4839L231.897 48.2173C231.497 49.4617 231.43 50.2839 231.697 50.6839C231.964 51.0839 232.319 51.2839 232.764 51.2839C233.252 51.2839 233.83 51.0173 234.497 50.4839C235.164 49.9062 235.875 48.5951 236.63 46.5506L237.897 43.0839H239.164L237.497 47.9506C236.875 49.8173 236.052 51.2395 235.03 52.2173C234.052 53.1951 232.964 53.8617 231.764 54.2173C230.608 54.6173 229.452 54.8173 228.297 54.8173C226.964 54.8173 225.808 54.6173 224.83 54.2173C223.897 53.8173 223.164 53.2395 222.63 52.4839C222.008 51.5951 221.675 50.4617 221.63 49.0839C221.63 47.7062 221.986 45.9284 222.697 43.7506L228.564 26.1506C228.83 25.395 229.008 24.7284 229.097 24.1506C229.186 23.5284 229.164 23.0395 229.03 22.6839C228.897 22.3284 228.608 22.1506 228.164 22.1506C227.364 22.1506 226.452 22.7284 225.43 23.8839C224.408 25.0395 223.341 26.6173 222.23 28.6173C221.119 30.6173 219.986 32.9284 218.83 35.5506C217.675 38.1728 216.564 40.9728 215.497 43.9506C214.475 46.8839 213.586 49.8395 212.83 52.8173L214.364 43.4839Z" fill="white"/>
<path d="M309.133 125.217L296.867 90.5506H300.733L310.933 120.817L309.133 120.684L320.2 95.7506H322.2L333.267 120.684L331.133 120.817L341.667 90.5506H345.333L333.067 125.217H331.8L320 98.0839H322.4L310.6 125.217H309.133ZM350.744 125.217V75.8839H354.078V98.5506L353.278 99.8173C353.767 97.7284 354.7 95.9506 356.078 94.4839C357.455 92.9728 359.055 91.8173 360.878 91.0173C362.744 90.2173 364.611 89.8173 366.478 89.8173C369.144 89.8173 371.344 90.3284 373.078 91.3506C374.855 92.3728 376.167 93.9506 377.011 96.0839C377.855 98.2173 378.278 100.928 378.278 104.217V125.217H374.944V104.351C374.944 101.773 374.611 99.6617 373.944 98.0173C373.278 96.3284 372.255 95.0839 370.878 94.2839C369.544 93.4395 367.833 93.0173 365.744 93.0173C364.1 93.0173 362.567 93.3284 361.144 93.9506C359.722 94.5284 358.478 95.3284 357.411 96.3506C356.389 97.3728 355.567 98.5506 354.944 99.8839C354.367 101.173 354.078 102.551 354.078 104.017V125.217H352.411C352.367 125.217 352.211 125.217 351.944 125.217C351.722 125.217 351.322 125.217 350.744 125.217ZM401.719 125.884C398.563 125.884 395.741 125.106 393.252 123.551C390.763 121.995 388.785 119.862 387.319 117.151C385.897 114.44 385.185 111.351 385.185 107.884C385.185 104.373 385.919 101.262 387.385 98.5506C388.897 95.8395 390.897 93.7062 393.385 92.1506C395.874 90.5951 398.652 89.8173 401.719 89.8173C403.497 89.8173 405.185 90.0839 406.785 90.6173C408.385 91.1506 409.83 91.9062 411.119 92.8839C412.408 93.8173 413.519 94.9284 414.452 96.2173C415.385 97.5062 416.052 98.9062 416.452 100.417L415.119 99.5506L415.452 90.5506H418.652V125.217H415.319V116.551L416.452 115.284C416.052 116.751 415.385 118.128 414.452 119.417C413.519 120.706 412.408 121.84 411.119 122.817C409.83 123.795 408.385 124.551 406.785 125.084C405.185 125.617 403.497 125.884 401.719 125.884ZM402.185 122.551C404.719 122.551 406.985 121.928 408.985 120.684C411.03 119.395 412.63 117.662 413.785 115.484C414.985 113.262 415.585 110.706 415.585 107.817C415.585 104.973 415.008 102.462 413.852 100.284C412.697 98.0617 411.097 96.3284 409.052 95.0839C407.052 93.7951 404.763 93.1506 402.185 93.1506C399.563 93.1506 397.23 93.7951 395.185 95.0839C393.185 96.3284 391.608 98.0617 390.452 100.284C389.297 102.462 388.719 104.973 388.719 107.817C388.719 110.617 389.274 113.128 390.385 115.351C391.541 117.573 393.119 119.328 395.119 120.617C397.163 121.906 399.519 122.551 402.185 122.551ZM433.68 125.217V81.2839H437.014V125.217H433.68ZM425.347 93.6173V90.5506H446.347V93.6173H425.347ZM471.057 125.217V90.5506H474.257L474.59 98.9506L473.79 98.8173C474.19 97.3951 474.812 96.1284 475.657 95.0173C476.546 93.9062 477.568 92.9728 478.723 92.2173C479.923 91.4173 481.235 90.8173 482.657 90.4173C484.079 90.0173 485.59 89.8173 487.19 89.8173C488.879 89.8173 490.412 90.1062 491.79 90.6839C493.212 91.2617 494.435 92.3062 495.457 93.8173C496.479 95.3284 497.279 97.4617 497.857 100.217L496.523 99.2839L496.99 98.1506C497.435 97.0839 498.079 96.0617 498.923 95.0839C499.768 94.0617 500.768 93.1728 501.923 92.4173C503.079 91.6173 504.368 90.9951 505.79 90.5506C507.257 90.0617 508.812 89.8173 510.457 89.8173C512.768 89.8173 514.746 90.3284 516.39 91.3506C518.035 92.3728 519.279 93.9506 520.123 96.0839C521.012 98.2173 521.457 100.928 521.457 104.217V125.217H518.123V104.351C518.123 101.773 517.79 99.6617 517.123 98.0173C516.501 96.3284 515.546 95.0839 514.257 94.2839C513.012 93.4395 511.457 93.0173 509.59 93.0173C507.857 93.0173 506.279 93.3284 504.857 93.9506C503.435 94.5284 502.212 95.3284 501.19 96.3506C500.168 97.3728 499.368 98.5506 498.79 99.8839C498.212 101.173 497.923 102.551 497.923 104.017V125.217H494.59V104.351C494.59 101.773 494.257 99.6617 493.59 98.0173C492.968 96.3284 492.012 95.0839 490.723 94.2839C489.435 93.4395 487.857 93.0173 485.99 93.0173C484.301 93.0173 482.746 93.3284 481.323 93.9506C479.901 94.5284 478.679 95.3284 477.657 96.3506C476.635 97.3728 475.835 98.5506 475.257 99.8839C474.679 101.173 474.39 102.551 474.39 104.017V125.217H471.057ZM544.948 125.884C541.792 125.884 538.97 125.106 536.481 123.551C533.992 121.995 532.015 119.862 530.548 117.151C529.126 114.44 528.415 111.351 528.415 107.884C528.415 104.373 529.148 101.262 530.615 98.5506C532.126 95.8395 534.126 93.7062 536.615 92.1506C539.104 90.5951 541.881 89.8173 544.948 89.8173C546.726 89.8173 548.415 90.0839 550.015 90.6173C551.615 91.1506 553.059 91.9062 554.348 92.8839C555.637 93.8173 556.748 94.9284 557.681 96.2173C558.615 97.5062 559.281 98.9062 559.681 100.417L558.348 99.5506L558.681 90.5506H561.881V125.217H558.548V116.551L559.681 115.284C559.281 116.751 558.615 118.128 557.681 119.417C556.748 120.706 555.637 121.84 554.348 122.817C553.059 123.795 551.615 124.551 550.015 125.084C548.415 125.617 546.726 125.884 544.948 125.884ZM545.415 122.551C547.948 122.551 550.215 121.928 552.215 120.684C554.259 119.395 555.859 117.662 557.015 115.484C558.215 113.262 558.815 110.706 558.815 107.817C558.815 104.973 558.237 102.462 557.081 100.284C555.926 98.0617 554.326 96.3284 552.281 95.0839C550.281 93.7951 547.992 93.1506 545.415 93.1506C542.792 93.1506 540.459 93.7951 538.415 95.0839C536.415 96.3284 534.837 98.0617 533.681 100.284C532.526 102.462 531.948 104.973 531.948 107.817C531.948 110.617 532.504 113.128 533.615 115.351C534.77 117.573 536.348 119.328 538.348 120.617C540.392 121.906 542.748 122.551 545.415 122.551ZM574.443 113.751V109.551L593.976 90.5506H598.376L574.443 113.751ZM571.643 125.217V75.8839H574.976V125.217H571.643ZM595.843 125.217L579.843 106.684L582.109 104.217L600.243 125.217H595.843ZM618.596 125.884C615.263 125.884 612.285 125.128 609.663 123.617C607.085 122.106 605.063 119.995 603.596 117.284C602.13 114.573 601.396 111.417 601.396 107.817C601.396 105.195 601.796 102.795 602.596 100.617C603.441 98.4395 604.596 96.5506 606.063 94.9506C607.53 93.3062 609.285 92.0395 611.33 91.1506C613.419 90.2617 615.685 89.8173 618.13 89.8173C620.53 89.8173 622.685 90.2173 624.596 91.0173C626.552 91.8173 628.196 92.9728 629.53 94.4839C630.863 95.9506 631.863 97.7062 632.53 99.7506C633.196 101.751 633.485 103.973 633.396 106.417L633.33 108.217H603.863V105.151H631.53L630.063 106.351V104.751C630.063 102.973 629.619 101.195 628.73 99.4173C627.885 97.6395 626.574 96.1506 624.796 94.9506C623.019 93.7506 620.774 93.1506 618.063 93.1506C615.53 93.1506 613.263 93.7062 611.263 94.8173C609.308 95.9284 607.752 97.5506 606.596 99.6839C605.485 101.817 604.93 104.462 604.93 107.617C604.93 110.64 605.485 113.284 606.596 115.551C607.708 117.773 609.308 119.506 611.396 120.751C613.53 121.951 616.13 122.551 619.196 122.551C620.841 122.551 622.53 122.284 624.263 121.751C625.996 121.217 627.952 120.062 630.13 118.284L631.863 120.751C630.885 121.684 629.73 122.551 628.396 123.351C627.063 124.106 625.574 124.728 623.93 125.217C622.285 125.662 620.508 125.884 618.596 125.884ZM651.399 125.884C648.377 125.884 645.688 125.306 643.332 124.151C640.977 122.951 639.177 121.506 637.932 119.817L640.466 117.617C641.666 119.217 643.221 120.462 645.132 121.351C647.043 122.195 649.199 122.617 651.599 122.617C652.932 122.617 654.155 122.484 655.266 122.217C656.377 121.906 657.31 121.484 658.066 120.951C658.866 120.417 659.488 119.773 659.932 119.017C660.377 118.217 660.599 117.328 660.599 116.351C660.599 114.617 659.777 113.151 658.132 111.951C657.377 111.417 656.421 110.928 655.266 110.484C654.11 110.04 652.755 109.595 651.199 109.151C648.843 108.44 646.843 107.773 645.199 107.151C643.555 106.528 642.243 105.751 641.266 104.817C640.555 104.062 640.021 103.262 639.666 102.417C639.31 101.528 639.132 100.573 639.132 99.5506C639.132 98.1284 639.421 96.8395 639.999 95.6839C640.577 94.4839 641.399 93.4395 642.466 92.5506C643.532 91.6617 644.777 90.9951 646.199 90.5506C647.621 90.0617 649.199 89.8173 650.932 89.8173C652.577 89.8173 654.199 90.0617 655.799 90.5506C657.399 90.9951 658.888 91.6395 660.266 92.4839C661.643 93.3284 662.843 94.3062 663.866 95.4173L661.599 97.8839C660.71 96.9062 659.732 96.0395 658.666 95.2839C657.643 94.5284 656.51 93.9506 655.266 93.5506C654.021 93.1062 652.643 92.8839 651.132 92.8839C649.932 92.8839 648.799 93.0395 647.732 93.3506C646.71 93.6617 645.821 94.1284 645.066 94.7506C644.31 95.3284 643.71 96.0173 643.266 96.8173C642.866 97.5728 642.666 98.4173 642.666 99.3506C642.666 100.062 642.799 100.706 643.066 101.284C643.332 101.817 643.755 102.328 644.332 102.817C645.088 103.44 646.088 103.973 647.332 104.417C648.621 104.862 650.199 105.351 652.066 105.884C653.755 106.328 655.243 106.773 656.532 107.217C657.821 107.662 658.932 108.195 659.866 108.817C661.288 109.706 662.332 110.751 662.999 111.951C663.71 113.151 664.066 114.528 664.066 116.084C664.066 117.995 663.532 119.684 662.466 121.151C661.399 122.617 659.91 123.773 657.999 124.617C656.088 125.462 653.888 125.884 651.399 125.884ZM692.252 125.217V90.5506H695.585V125.217H692.252ZM693.918 83.2839C692.941 83.2839 692.185 83.0173 691.652 82.4839C691.118 81.9506 690.852 81.2173 690.852 80.2839C690.852 79.3951 691.118 78.6839 691.652 78.1506C692.185 77.5728 692.941 77.2839 693.918 77.2839C694.896 77.2839 695.652 77.5506 696.185 78.0839C696.718 78.6173 696.985 79.3506 696.985 80.2839C696.985 81.1728 696.718 81.9062 696.185 82.4839C695.652 83.0173 694.896 83.2839 693.918 83.2839ZM712.131 125.217V81.2839H715.464V125.217H712.131ZM703.797 93.6173V90.5506H724.797V93.6173H703.797ZM757.441 125.217L745.174 90.5506H749.041L759.241 120.817L757.441 120.684L768.507 95.7506H770.507L781.574 120.684L779.441 120.817L789.974 90.5506H793.641L781.374 125.217H780.107L768.307 98.0839H770.707L758.907 125.217H757.441ZM813.208 125.884C809.742 125.884 806.653 125.106 803.942 123.551C801.275 121.995 799.164 119.84 797.608 117.084C796.097 114.328 795.342 111.195 795.342 107.684C795.342 104.217 796.097 101.151 797.608 98.4839C799.164 95.7728 801.275 93.6617 803.942 92.1506C806.653 90.5951 809.742 89.8173 813.208 89.8173C816.675 89.8173 819.742 90.5951 822.408 92.1506C825.12 93.6617 827.231 95.7728 828.742 98.4839C830.253 101.151 831.008 104.217 831.008 107.684C831.008 111.195 830.253 114.328 828.742 117.084C827.231 119.84 825.12 121.995 822.408 123.551C819.742 125.106 816.675 125.884 813.208 125.884ZM813.208 122.551C815.964 122.551 818.408 121.906 820.542 120.617C822.72 119.328 824.408 117.573 825.608 115.351C826.853 113.128 827.475 110.573 827.475 107.684C827.475 104.884 826.853 102.395 825.608 100.217C824.408 97.9951 822.72 96.2617 820.542 95.0173C818.408 93.7728 815.964 93.1506 813.208 93.1506C810.408 93.1506 807.92 93.7728 805.742 95.0173C803.608 96.2617 801.92 97.9951 800.675 100.217C799.475 102.395 798.875 104.884 798.875 107.684C798.875 110.573 799.475 113.128 800.675 115.351C801.92 117.573 803.608 119.328 805.742 120.617C807.92 121.906 810.408 122.551 813.208 122.551ZM837.984 125.217V90.5506H841.184L841.517 98.2839H841.051C841.539 96.8173 842.295 95.4395 843.317 94.1506C844.339 92.8617 845.584 91.8173 847.051 91.0173C848.562 90.2173 850.295 89.8173 852.251 89.8173C853.006 89.8173 853.695 89.8839 854.317 90.0173C854.984 90.1062 855.584 90.2173 856.117 90.3506L855.117 94.2173C854.495 93.9506 853.895 93.7728 853.317 93.6839C852.739 93.5951 852.228 93.5506 851.784 93.5506C850.006 93.5506 848.451 93.8617 847.117 94.4839C845.828 95.1062 844.739 95.9728 843.851 97.0839C843.006 98.1506 842.362 99.3728 841.917 100.751C841.517 102.128 841.317 103.573 841.317 105.084V125.217H837.984ZM863.766 113.751V109.551L883.299 90.5506H887.699L863.766 113.751ZM860.966 125.217V75.8839H864.299V125.217H860.966ZM885.166 125.217L869.166 106.684L871.432 104.217L889.566 125.217H885.166ZM897.683 125.884C896.75 125.884 896.017 125.595 895.483 125.017C894.995 124.44 894.75 123.617 894.75 122.551C894.75 121.573 895.017 120.773 895.55 120.151C896.083 119.528 896.795 119.217 897.683 119.217C898.617 119.217 899.328 119.506 899.817 120.084C900.35 120.662 900.617 121.484 900.617 122.551C900.617 123.528 900.35 124.328 899.817 124.951C899.283 125.573 898.572 125.884 897.683 125.884Z" fill="white"/>
<path d="M18.9999 125.884C15.8444 125.884 13.0221 125.106 10.5333 123.551C8.04436 121.995 6.06659 119.862 4.59992 117.151C3.1777 114.44 2.46659 111.351 2.46659 107.884C2.46659 104.373 3.19992 101.262 4.66659 98.5506C6.1777 95.8395 8.1777 93.7062 10.6666 92.1506C13.1555 90.5951 15.9333 89.8173 18.9999 89.8173C20.7777 89.8173 22.4666 90.0839 24.0666 90.6173C25.6666 91.1506 27.111 91.9062 28.3999 92.8839C29.6888 93.8173 30.7999 94.9284 31.7333 96.2173C32.6666 97.5062 33.3333 98.9062 33.7333 100.417L32.3999 99.5506L32.7333 90.5506H35.9333V125.217H32.5999V116.551L33.7333 115.284C33.3333 116.751 32.6666 118.128 31.7333 119.417C30.7999 120.706 29.6888 121.84 28.3999 122.817C27.111 123.795 25.6666 124.551 24.0666 125.084C22.4666 125.617 20.7777 125.884 18.9999 125.884ZM19.4666 122.551C21.9999 122.551 24.2666 121.928 26.2666 120.684C28.311 119.395 29.911 117.662 31.0666 115.484C32.2666 113.262 32.8666 110.706 32.8666 107.817C32.8666 104.973 32.2888 102.462 31.1333 100.284C29.9777 98.0617 28.3777 96.3284 26.3333 95.0839C24.3333 93.7951 22.0444 93.1506 19.4666 93.1506C16.8444 93.1506 14.511 93.7951 12.4666 95.0839C10.4666 96.3284 8.88881 98.0617 7.73325 100.284C6.5777 102.462 5.99992 104.973 5.99992 107.817C5.99992 110.617 6.55547 113.128 7.66659 115.351C8.82214 117.573 10.3999 119.328 12.3999 120.617C14.4444 121.906 16.7999 122.551 19.4666 122.551ZM45.6947 125.217V90.5506H48.8947L49.228 97.8839H48.828C49.3169 96.4173 50.2058 95.0839 51.4947 93.8839C52.7836 92.6395 54.3169 91.6617 56.0947 90.9506C57.9169 90.1951 59.828 89.8173 61.828 89.8173C64.2725 89.8173 66.3392 90.3284 68.028 91.3506C69.7614 92.3728 71.0503 93.9506 71.8947 96.0839C72.7836 98.2173 73.228 100.928 73.228 104.217V125.217H69.8947V104.351C69.8947 101.773 69.5392 99.6617 68.828 98.0173C68.1614 96.3284 67.1614 95.0839 65.828 94.2839C64.4947 93.4395 62.828 93.0173 60.828 93.0173C59.0947 93.0173 57.5169 93.3284 56.0947 93.9506C54.6725 94.5284 53.428 95.3284 52.3614 96.3506C51.2947 97.3728 50.4725 98.5506 49.8947 99.8839C49.3169 101.173 49.028 102.551 49.028 104.017V125.217H47.3614C47.3169 125.217 47.1614 125.217 46.8947 125.217C46.6725 125.217 46.2725 125.217 45.6947 125.217ZM96.6692 125.884C93.5136 125.884 90.6914 125.106 88.2025 123.551C85.7136 121.995 83.7359 119.862 82.2692 117.151C80.847 114.44 80.1359 111.351 80.1359 107.884C80.1359 104.373 80.8692 101.262 82.3359 98.5506C83.847 95.8395 85.847 93.7062 88.3359 92.1506C90.8247 90.5951 93.6025 89.8173 96.6692 89.8173C98.447 89.8173 100.136 90.0839 101.736 90.6173C103.336 91.1506 104.78 91.9062 106.069 92.8839C107.358 93.8173 108.469 94.9284 109.403 96.2173C110.336 97.5062 111.003 98.9062 111.403 100.417L110.269 99.2839V75.8839H113.603V125.217H110.403L110.136 116.217L111.403 115.284C111.003 116.751 110.336 118.128 109.403 119.417C108.469 120.706 107.358 121.84 106.069 122.817C104.78 123.795 103.336 124.551 101.736 125.084C100.136 125.617 98.447 125.884 96.6692 125.884ZM97.1359 122.551C99.6692 122.551 101.936 121.928 103.936 120.684C105.98 119.395 107.58 117.662 108.736 115.484C109.936 113.262 110.536 110.706 110.536 107.817C110.536 104.973 109.958 102.462 108.803 100.284C107.647 98.0617 106.047 96.3284 104.003 95.0839C102.003 93.7951 99.7136 93.1506 97.1359 93.1506C94.5136 93.1506 92.1803 93.7951 90.1359 95.0839C88.1359 96.3284 86.5581 98.0617 85.4025 100.284C84.247 102.462 83.6692 104.973 83.6692 107.817C83.6692 110.617 84.2247 113.128 85.3359 115.351C86.4914 117.573 88.0692 119.328 90.0692 120.617C92.1136 121.906 94.4692 122.551 97.1359 122.551Z" fill="white"/>
<path d="M162.333 90.4173C160.689 90.4173 159.067 91.1284 157.467 92.5506C155.911 93.9284 154.511 95.7951 153.267 98.1506C152.022 100.462 151.022 103.084 150.267 106.017C149.556 108.906 149.2 111.862 149.2 114.884C149.2 117.284 149.667 119.017 150.6 120.084C151.578 121.106 152.845 121.617 154.4 121.617C155.778 121.617 157.156 121.217 158.533 120.417C159.956 119.617 161.378 118.151 162.8 116.017L164.133 116.551C163.245 118.017 162.089 119.44 160.667 120.817C159.289 122.195 157.645 123.328 155.733 124.217C153.867 125.062 151.711 125.484 149.267 125.484C146.022 125.484 143.333 124.64 141.2 122.951C139.067 121.262 138 118.64 138 115.084C138 112.817 138.356 110.484 139.067 108.084C139.778 105.684 140.8 103.351 142.133 101.084C143.511 98.8173 145.156 96.7951 147.067 95.0173C148.978 93.1951 151.156 91.7506 153.6 90.684C156.045 89.6173 158.711 89.084 161.6 89.084C164.222 89.084 166.267 89.7506 167.733 91.084C169.245 92.3728 170 93.9284 170 95.7506C170 97.084 169.667 98.3728 169 99.6173C168.378 100.817 167.511 101.817 166.4 102.617C165.333 103.417 164.133 103.817 162.8 103.817C161.689 103.817 160.711 103.462 159.867 102.751C159.022 101.995 158.6 100.928 158.6 99.5506C158.6 97.5506 159.245 95.8173 160.533 94.3506C161.867 92.884 163.378 91.9284 165.067 91.484C164.711 91.1284 164.311 90.8617 163.867 90.684C163.467 90.5062 162.956 90.4173 162.333 90.4173ZM191.909 90.4173C191.02 90.4173 190.02 91.0395 188.909 92.284C187.842 93.5284 186.776 95.1951 185.709 97.284C184.642 99.3728 183.664 101.706 182.776 104.284C181.887 106.862 181.176 109.506 180.642 112.217C180.109 114.928 179.842 117.528 179.842 120.017C179.842 121.528 179.976 122.595 180.242 123.217C180.553 123.84 181.02 124.151 181.642 124.151C182.487 124.151 183.442 123.573 184.509 122.417C185.576 121.217 186.62 119.617 187.642 117.617C188.709 115.573 189.687 113.284 190.576 110.751C191.464 108.173 192.176 105.506 192.709 102.751C193.287 99.9951 193.576 97.3062 193.576 94.684C193.576 92.9062 193.42 91.7506 193.109 91.2173C192.798 90.684 192.398 90.4173 191.909 90.4173ZM169.842 114.351C169.842 112.262 170.131 110.062 170.709 107.751C171.287 105.44 172.153 103.195 173.309 101.017C174.464 98.7951 175.931 96.7951 177.709 95.0173C179.531 93.1951 181.642 91.7506 184.042 90.684C186.442 89.6173 189.176 89.084 192.242 89.084C195.887 89.084 198.687 90.0395 200.642 91.9506C202.598 93.8617 203.576 96.6173 203.576 100.217C203.576 102.306 203.287 104.506 202.709 106.817C202.131 109.128 201.264 111.395 200.109 113.617C198.953 115.795 197.464 117.795 195.642 119.617C193.864 121.395 191.776 122.817 189.376 123.884C186.976 124.951 184.242 125.484 181.176 125.484C177.531 125.484 174.731 124.528 172.776 122.617C170.82 120.706 169.842 117.951 169.842 114.351ZM234.907 118.884C234.507 119.995 234.418 120.795 234.64 121.284C234.862 121.728 235.24 121.951 235.774 121.951C236.262 121.951 236.818 121.662 237.44 121.084C238.107 120.506 238.818 119.217 239.574 117.217L240.84 113.751H242.107L240.507 118.617C239.885 120.484 239.062 121.906 238.04 122.884C237.018 123.862 235.929 124.528 234.774 124.884C233.618 125.284 232.462 125.484 231.307 125.484C228.507 125.484 226.618 124.551 225.64 122.684C225.151 121.795 224.907 120.662 224.907 119.284C224.951 117.906 225.24 116.284 225.774 114.417L234.907 80.084C235.351 78.5728 235.307 77.4617 234.774 76.7506C234.24 76.0395 232.885 75.684 230.707 75.684L231.174 74.284C234.551 74.2395 237.574 73.9951 240.24 73.5506C242.951 73.0617 245.529 72.3951 247.974 71.5506L234.907 118.884ZM218.574 121.751C219.24 121.751 220.018 121.328 220.907 120.484C221.796 119.595 222.751 118.24 223.774 116.417C224.84 114.595 225.885 112.284 226.907 109.484C227.929 106.684 228.885 103.351 229.774 99.484L228.774 106.684C227.396 110.862 226.018 114.351 224.64 117.151C223.307 119.951 221.774 122.04 220.04 123.417C218.351 124.795 216.285 125.484 213.84 125.484C212.329 125.484 210.951 125.151 209.707 124.484C208.462 123.817 207.462 122.795 206.707 121.417C205.951 119.995 205.574 118.173 205.574 115.951C205.574 113.951 205.885 111.751 206.507 109.351C207.129 106.951 208.062 104.573 209.307 102.217C210.551 99.8617 212.085 97.684 213.907 95.684C215.729 93.684 217.796 92.084 220.107 90.884C222.462 89.684 225.062 89.084 227.907 89.084C229.507 89.084 230.618 89.3951 231.24 90.0173C231.862 90.5951 232.24 91.3951 232.374 92.4173L231.84 93.7506C231.662 92.7284 231.396 91.9506 231.04 91.4173C230.685 90.884 230.062 90.6173 229.174 90.6173C228.196 90.6173 227.129 91.1284 225.974 92.1506C224.862 93.1284 223.751 94.5062 222.64 96.284C221.574 98.0173 220.574 100.04 219.64 102.351C218.751 104.617 218.04 107.062 217.507 109.684C216.974 112.262 216.707 114.884 216.707 117.551C216.707 118.928 216.84 119.973 217.107 120.684C217.374 121.395 217.862 121.751 218.574 121.751ZM254.562 110.351C256.206 109.64 257.784 108.84 259.295 107.951C260.806 107.017 262.139 106.017 263.295 104.951C265.028 103.306 266.45 101.417 267.562 99.284C268.673 97.1062 269.228 94.7728 269.228 92.284C269.228 91.5284 269.139 91.0173 268.962 90.7506C268.784 90.484 268.517 90.3506 268.162 90.3506C267.228 90.3506 266.206 90.8617 265.095 91.884C263.984 92.8617 262.895 94.1951 261.828 95.884C260.762 97.5284 259.784 99.4173 258.895 101.551C258.05 103.64 257.362 105.817 256.828 108.084C256.295 110.306 256.028 112.484 256.028 114.617C256.028 117.151 256.517 118.862 257.495 119.751C258.517 120.64 259.828 121.084 261.428 121.084C262.45 121.084 263.85 120.728 265.628 120.017C267.406 119.262 269.162 117.928 270.895 116.017L271.962 116.551C271.028 118.017 269.784 119.44 268.228 120.817C266.673 122.195 264.85 123.328 262.762 124.217C260.673 125.062 258.362 125.484 255.828 125.484C253.784 125.484 251.917 125.128 250.228 124.417C248.584 123.706 247.273 122.662 246.295 121.284C245.317 119.862 244.828 118.128 244.828 116.084C244.828 113.595 245.228 111.084 246.028 108.551C246.828 106.017 247.962 103.595 249.428 101.284C250.895 98.9284 252.65 96.8395 254.695 95.0173C256.784 93.1951 259.073 91.7506 261.562 90.684C264.05 89.6173 266.739 89.084 269.628 89.084C271.762 89.084 273.562 89.5506 275.028 90.484C276.495 91.3728 277.228 92.7728 277.228 94.684C277.228 96.3728 276.762 97.9728 275.828 99.484C274.895 100.951 273.628 102.306 272.028 103.551C270.473 104.795 268.695 105.906 266.695 106.884C264.739 107.862 262.717 108.706 260.628 109.417C258.539 110.128 256.495 110.684 254.495 111.084L254.562 110.351Z" fill="white"/>
</svg>
