<svg width="40" height="40" viewBox="0 0 40 40" fill="none" xmlns="http://www.w3.org/2000/svg">
<g opacity="0.5">
<path d="M38.0708 28.3877C28.0415 33.3751 11.2427 32.3348 5.55131 21.4352C3.29803 17.1218 2.38154 8.308 8.9318 8.308C13.2623 8.308 15.9908 13.4119 13.0654 18.7224C15.4887 20.2871 20.7501 17.3704 20.7501 17.3704C25.3999 25.2219 29.0128 26.5312 29.5065 14.4073C29.5065 14.4073 38.5231 19.1823 39.863 18.1553C38.9428 8.07048 30.4461 0.170288 20.1003 0.170288C9.14013 0.170288 0.255127 9.03681 0.255127 19.9742C0.255127 30.9116 9.14013 39.7781 20.1003 39.7781C28.046 39.7781 34.901 35.1183 38.0708 28.3877Z" fill="white"/>
<path d="M38.0708 28.3877C28.0415 33.3751 11.2427 32.3348 5.55131 21.4352C3.29803 17.1218 2.38154 8.308 8.9318 8.308C13.2623 8.308 15.9908 13.4119 13.0654 18.7224C15.4887 20.2871 20.7501 17.3704 20.7501 17.3704C25.3999 25.2219 29.0128 26.5312 29.5065 14.4073C29.5065 14.4073 38.5231 19.1823 39.863 18.1553C38.9428 8.07048 30.4461 0.170288 20.1003 0.170288C9.14013 0.170288 0.255127 9.03681 0.255127 19.9742C0.255127 30.9116 9.14013 39.7781 20.1003 39.7781C28.046 39.7781 34.901 35.1183 38.0708 28.3877Z" fill="url(#paint0_radial_20_93)" fill-opacity="0.2"/>
<mask id="mask0_20_93" style="mask-type:alpha" maskUnits="userSpaceOnUse" x="0" y="0" width="40" height="40">
<path d="M38.0708 28.3877C28.0415 33.3751 11.2427 32.3348 5.55131 21.4352C3.29803 17.1218 2.38154 8.308 8.9318 8.308C13.2623 8.308 15.9908 13.4119 13.0654 18.7224C15.4887 20.2871 20.7501 17.3704 20.7501 17.3704C25.3999 25.2219 29.0128 26.5312 29.5065 14.4073C29.5065 14.4073 38.5231 19.1823 39.863 18.1553C38.9428 8.07048 30.4461 0.170288 20.1003 0.170288C9.14013 0.170288 0.255127 9.03681 0.255127 19.9742C0.255127 30.9116 9.14013 39.7781 20.1003 39.7781C28.046 39.7781 34.901 35.1183 38.0708 28.3877Z" fill="#3D6DFF"/>
</mask>
<g mask="url(#mask0_20_93)">
<g filter="url(#filter0_d_20_93)">
<path d="M6.24516 22.6319C6.51084 23.0805 6.79676 23.5208 7.10226 23.9516H7.19097C13.9893 32.4661 28.8754 32.9604 38.0708 28.3877C34.901 35.1182 28.046 39.7781 20.1003 39.7781C9.14013 39.7781 0.255127 30.9116 0.255127 19.9742C0.255127 12.2867 2.87156 5.62223 9.47823 2.34047C7.30352 4.10581 5.61697 6.39906 4.65923 9.12519C3.68844 11.8885 3.5808 14.7709 4.20254 17.5391C4.50261 18.9813 4.98472 20.3505 5.55133 21.4352C5.76698 21.8482 5.99857 22.247 6.24516 22.6319Z" fill="white"/>
<path d="M6.24516 22.6319C6.51084 23.0805 6.79676 23.5208 7.10226 23.9516H7.19097C13.9893 32.4661 28.8754 32.9604 38.0708 28.3877C34.901 35.1182 28.046 39.7781 20.1003 39.7781C9.14013 39.7781 0.255127 30.9116 0.255127 19.9742C0.255127 12.2867 2.87156 5.62223 9.47823 2.34047C7.30352 4.10581 5.61697 6.39906 4.65923 9.12519C3.68844 11.8885 3.5808 14.7709 4.20254 17.5391C4.50261 18.9813 4.98472 20.3505 5.55133 21.4352C5.76698 21.8482 5.99857 22.247 6.24516 22.6319Z" fill="url(#paint1_linear_20_93)" fill-opacity="0.2"/>
</g>
</g>
</g>
<defs>
<filter id="filter0_d_20_93" x="-0.363746" y="1.35027" width="40.2912" height="39.9131" filterUnits="userSpaceOnUse" color-interpolation-filters="sRGB">
<feFlood flood-opacity="0" result="BackgroundImageFix"/>
<feColorMatrix in="SourceAlpha" type="matrix" values="0 0 0 0 0 0 0 0 0 0 0 0 0 0 0 0 0 0 127 0" result="hardAlpha"/>
<feOffset dx="0.618873" dy="0.247549"/>
<feGaussianBlur stdDeviation="0.618873"/>
<feComposite in2="hardAlpha" operator="out"/>
<feColorMatrix type="matrix" values="0 0 0 0 0 0 0 0 0 0 0 0 0 0 0 0 0 0 0.25 0"/>
<feBlend mode="normal" in2="BackgroundImageFix" result="effect1_dropShadow_20_93"/>
<feBlend mode="normal" in="SourceGraphic" in2="effect1_dropShadow_20_93" result="shape"/>
</filter>
<radialGradient id="paint0_radial_20_93" cx="0" cy="0" r="1" gradientUnits="userSpaceOnUse" gradientTransform="translate(25.567 2.93442) rotate(106.771) scale(14.1554 23.9984)">
<stop stop-color="white"/>
<stop offset="1"/>
</radialGradient>
<linearGradient id="paint1_linear_20_93" x1="19.163" y1="2.34047" x2="19.163" y2="39.7781" gradientUnits="userSpaceOnUse">
<stop stop-color="white"/>
<stop offset="1"/>
</linearGradient>
</defs>
</svg>
