<svg width="16" height="16" viewBox="0 0 16 16" fill="none" xmlns="http://www.w3.org/2000/svg">
<path opacity="0.3" d="M0.555602 4.90991C0.5 5.76271 0.5 6.80313 0.5 8.09894C0.5 11.3864 0.5 13.0302 1.40796 14.1365C1.57418 14.339 1.75989 14.5248 1.96243 14.691C3.06878 15.5989 4.71252 15.5989 8 15.5989C11.2875 15.5989 12.9312 15.5989 14.0376 14.691C14.2401 14.5248 14.4258 14.339 14.592 14.1365C15.5 13.0302 15.5 11.3864 15.5 8.09894C15.5 6.80313 15.5 5.76271 15.4444 4.90991H0.555602Z" fill="white"/>
<path opacity="0.5" d="M0.715942 4.11205H15.5C15.3884 3.12689 15.1615 2.42579 14.7 1.8635C14.5338 1.66097 14.3481 1.47525 14.1455 1.30904C13.0392 0.401077 11.3954 0.401077 8.10797 0.401077C4.82048 0.401077 3.17674 0.401077 2.07039 1.30904C1.86786 1.47525 1.68214 1.66097 1.51592 1.8635C1.05446 2.42579 0.827537 3.12689 0.715942 4.11205Z" fill="white"/>
<path d="M4.62694 11.9493C4.47729 11.9493 4.32764 11.8942 4.2095 11.7761L2.63426 10.2008C2.40585 9.9724 2.40585 9.5943 2.63426 9.36589L4.2095 7.79065C4.43791 7.56224 4.81597 7.56224 5.04438 7.79065C5.27279 8.01906 5.27279 8.39716 5.04438 8.62557L3.88657 9.78335L5.04438 10.9411C5.27279 11.1695 5.27279 11.5476 5.04438 11.7761C4.92623 11.8942 4.77659 11.9493 4.62694 11.9493Z" fill="white"/>
<path d="M11.3731 11.9493C11.2234 11.9493 11.0738 11.8942 10.9556 11.7761C10.7272 11.5476 10.7272 11.1695 10.9556 10.9411L12.1134 9.78335L10.9556 8.62557C10.7272 8.39716 10.7272 8.01906 10.9556 7.79065C11.184 7.56224 11.5621 7.56224 11.7905 7.79065L13.3657 9.36589C13.5941 9.5943 13.5941 9.9724 13.3657 10.2008L11.7905 11.7761C11.6724 11.8942 11.5227 11.9493 11.3731 11.9493Z" fill="white"/>
<path opacity="0.5" d="M9.89807 7.10212C9.86317 8.0424 9.49936 9.38588 9.03306 10.347C8.69487 9.73703 7.99432 9.41795 7.30485 9.56404C7.75285 8.59176 8.56055 7.43974 9.26709 6.80766C9.39183 6.69861 9.55608 6.68901 9.67741 6.74824C9.80933 6.80719 9.90578 6.93583 9.89807 7.10212Z" fill="white"/>
<path d="M9.03188 10.3439C8.94993 10.5121 8.86458 10.6709 8.77872 10.8086L8.42632 11.3837C8.3791 11.4506 8.3296 11.5111 8.27152 11.5676C8.25448 11.5205 8.23113 11.4756 8.20979 11.4264C8.10641 11.2292 7.94014 11.0654 7.70835 10.9572C7.4734 10.8502 7.22987 10.828 7.00817 10.8761C6.95539 10.8881 6.90174 10.9075 6.85439 10.9246C6.8544 10.8358 6.8693 10.7486 6.90137 10.6695L7.11755 10.0334C7.16907 9.87967 7.23322 9.72143 7.30683 9.55976C7.99314 9.41482 8.69798 9.7359 9.03188 10.3439Z" fill="white"/>
<path opacity="0.5" d="M8.27268 11.5708C8.37266 11.8474 8.36077 12.1503 8.2335 12.4202C8.1345 12.6301 7.96797 12.8112 7.72682 12.9338L7.13317 13.2266C6.80907 13.3863 6.41417 13.2021 6.32935 12.8489L6.17612 12.2076C6.03728 11.6358 6.37086 11.1171 6.85669 10.9309C6.9029 10.9106 6.95769 10.8944 7.01047 10.8824C7.23532 10.8332 7.4757 10.8565 7.71065 10.9635C7.93815 11.0697 8.1087 11.2355 8.21209 11.4327C8.23229 11.4787 8.25564 11.5236 8.27268 11.5708Z" fill="white"/>
</svg>
